#define sh11_width 100
#define sh11_height 100
static char sh11_bits[] = {
  0x00, 0x90, 0x08, 0x81, 0x10, 0x00, 0x09, 0x10, 0x00, 0x09, 0x10, 0x00, 
  0x00, 0x80, 0x6A, 0x65, 0x5E, 0xE6, 0x6D, 0xD6, 0xE6, 0x6D, 0xD6, 0xE6, 
  0x0D, 0x00, 0x60, 0x00, 0x00, 0x00, 0x00, 0x00, 0x00, 0x00, 0x00, 0x00, 
  0x00, 0x60, 0x00, 0x10, 0x00, 0x00, 0x00, 0x00, 0x00, 0x00, 0x00, 0x00, 
  0x00, 0x00, 0x80, 0x00, 0x08, 0x00, 0x00, 0x00, 0x00, 0x00, 0x00, 0x00, 
  0x00, 0x00, 0x00, 0x00, 0x00, 0x04, 0x00, 0x00, 0x00, 0x00, 0x00, 0x00, 
  0x00, 0x00, 0x00, 0x00, 0x00, 0x02, 0x02, 0x00, 0x00, 0x00, 0x00, 0x00, 
  0x00, 0x00, 0x00, 0x00, 0x00, 0x00, 0x02, 0x06, 0x00, 0x00, 0x00, 0x00, 
  0x00, 0x00, 0x00, 0x00, 0x00, 0x00, 0x00, 0x00, 0x00, 0x00, 0x00, 0x00, 
  0xFC, 0xBF, 0x00, 0x00, 0x00, 0x00, 0x00, 0x00, 0x04, 0x02, 0x00, 0x00, 
  0xE8, 0xFF, 0xFF, 0x0F, 0x00, 0x00, 0x00, 0x00, 0x00, 0x00, 0x03, 0x00, 
  0x00, 0xFE, 0xFF, 0xFF, 0xFF, 0x00, 0x00, 0x00, 0x00, 0x00, 0x00, 0x00, 
  0x00, 0xE0, 0xFF, 0x03, 0x40, 0xFF, 0x07, 0x00, 0x00, 0x00, 0x00, 0x00, 
  0x01, 0x00, 0xF8, 0x1B, 0x20, 0x00, 0xF0, 0x3F, 0x00, 0x00, 0x00, 0x00, 
  0x00, 0x02, 0x00, 0xFF, 0x01, 0x00, 0x00, 0x00, 0x7F, 0x00, 0x00, 0x00, 
  0x00, 0x00, 0x02, 0x80, 0x1F, 0x00, 0x00, 0x00, 0x00, 0xF8, 0x03, 0x00, 
  0x00, 0x00, 0x04, 0x00, 0xF0, 0x07, 0x00, 0x00, 0x88, 0x00, 0xE0, 0x07, 
  0x00, 0x00, 0x00, 0x00, 0x01, 0xF8, 0x00, 0x01, 0x02, 0x00, 0x04, 0x80, 
  0x3F, 0x00, 0x00, 0x00, 0x00, 0x02, 0x7E, 0x08, 0x80, 0x20, 0x88, 0x00, 
  0x00, 0x7E, 0x00, 0x00, 0x00, 0x04, 0x02, 0x1F, 0x00, 0x00, 0x00, 0x00, 
  0x20, 0x04, 0xF8, 0x00, 0x00, 0x00, 0x00, 0xC1, 0x07, 0x10, 0x00, 0x00, 
  0x00, 0x00, 0x00, 0xE0, 0x01, 0x00, 0x00, 0x00, 0xE2, 0x83, 0x00, 0x21, 
  0x00, 0x00, 0x00, 0x00, 0xC0, 0x07, 0x00, 0x00, 0x00, 0xF8, 0x00, 0x00, 
  0x00, 0x00, 0x08, 0x00, 0x44, 0x00, 0x0F, 0x00, 0x00, 0x00, 0x7D, 0x00, 
  0x00, 0x00, 0x20, 0x00, 0x20, 0x00, 0x00, 0x1E, 0x00, 0x00, 0x04, 0x3E, 
  0x02, 0x08, 0x00, 0x08, 0x40, 0x01, 0x00, 0x01, 0x3C, 0x00, 0x00, 0x00, 
  0x0F, 0x00, 0x00, 0x08, 0x00, 0x00, 0x00, 0x00, 0x00, 0x78, 0x00, 0x00, 
  0x00, 0x0E, 0x02, 0x01, 0x20, 0x00, 0x20, 0x00, 0x00, 0x44, 0xF0, 0x00, 
  0x00, 0x00, 0x02, 0x00, 0x00, 0x00, 0x08, 0x08, 0x20, 0x84, 0x00, 0xE0, 
  0x01, 0x00, 0x04, 0x16, 0x20, 0x20, 0x00, 0x20, 0x00, 0x02, 0x00, 0x00, 
  0xC0, 0x03, 0x00, 0x00, 0x02, 0x00, 0x00, 0x00, 0x00, 0x00, 0x40, 0x00, 
  0x04, 0x80, 0x07, 0x00, 0x00, 0x06, 0x10, 0x12, 0x00, 0x00, 0x00, 0x00, 
  0x01, 0x10, 0x00, 0x0F, 0x00, 0x04, 0x02, 0x01, 0x00, 0x20, 0x20, 0x00, 
  0x00, 0x00, 0x00, 0x10, 0x0E, 0x00, 0x00, 0x22, 0x00, 0x00, 0x02, 0x02, 
  0x08, 0x01, 0x80, 0x00, 0x02, 0x1C, 0x00, 0x00, 0x10, 0x10, 0x00, 0x00, 
  0x08, 0x00, 0x10, 0x00, 0x20, 0x00, 0x38, 0x00, 0x04, 0x07, 0x01, 0x00, 
  0x00, 0x00, 0x02, 0x00, 0x00, 0x00, 0x02, 0x78, 0x00, 0x00, 0x02, 0x00, 
  0x04, 0x00, 0x00, 0x00, 0x08, 0x08, 0x08, 0x00, 0xF2, 0x00, 0x00, 0x05, 
  0x00, 0x40, 0x21, 0x00, 0x40, 0x00, 0x20, 0x00, 0x10, 0xE0, 0x00, 0x04, 
  0x22, 0x00, 0x02, 0x00, 0x10, 0x00, 0x00, 0x00, 0x00, 0x00, 0xE0, 0x01, 
  0x00, 0x02, 0x10, 0x00, 0x40, 0x00, 0x00, 0x00, 0x00, 0x00, 0x01, 0xC2, 
  0x03, 0x00, 0x06, 0x00, 0x00, 0x00, 0x00, 0x22, 0x00, 0x20, 0x00, 0x00, 
  0x80, 0x03, 0x04, 0x02, 0x02, 0x80, 0x00, 0x04, 0x00, 0x88, 0x02, 0x08, 
  0x10, 0x80, 0x03, 0x00, 0x42, 0x00, 0x40, 0x00, 0xA0, 0xFF, 0x00, 0x04, 
  0x80, 0x21, 0x20, 0x07, 0x00, 0x06, 0x00, 0x00, 0x00, 0xFA, 0xFF, 0x0F, 
  0x00, 0x08, 0x00, 0x00, 0x0F, 0x04, 0x02, 0x42, 0x01, 0x14, 0xFE, 0xED, 
  0x3F, 0x00, 0x00, 0x00, 0x04, 0x0E, 0x00, 0x01, 0x00, 0x00, 0x80, 0x1F, 
  0x00, 0x7F, 0x00, 0x00, 0x00, 0x00, 0x0E, 0x00, 0x26, 0x80, 0x80, 0xC0, 
  0x07, 0x00, 0xF8, 0x11, 0x00, 0x00, 0x00, 0x1C, 0x00, 0x02, 0x00, 0x08, 
  0xF0, 0x03, 0x00, 0xE0, 0x01, 0x08, 0x20, 0x00, 0x38, 0x04, 0x02, 0x01, 
  0x00, 0xF8, 0x00, 0x00, 0xC0, 0x07, 0x10, 0x00, 0x00, 0x38, 0x04, 0x06, 
  0x00, 0x00, 0x3C, 0x00, 0x00, 0x80, 0x0F, 0x00, 0x04, 0x84, 0x78, 0x00, 
  0x20, 0x00, 0x04, 0x1E, 0x00, 0x00, 0x00, 0x1E, 0x00, 0x08, 0x88, 0x70, 
  0x00, 0x07, 0x08, 0x00, 0x0F, 0x00, 0x00, 0x00, 0x1C, 0x00, 0x20, 0x00, 
  0x71, 0x00, 0x02, 0x00, 0x80, 0x0F, 0x00, 0x00, 0x00, 0x3E, 0x10, 0x00, 
  0x00, 0x70, 0x04, 0x02, 0x20, 0xC0, 0x1F, 0x00, 0x00, 0x00, 0x0E, 0x04, 
  0x00, 0x00, 0x70, 0x00, 0x07, 0x00, 0xE4, 0x7F, 0x00, 0x00, 0x00, 0x0F, 
  0x00, 0x00, 0x00, 0x78, 0x00, 0x40, 0x00, 0xF0, 0xFB, 0x00, 0x00, 0xC0, 
  0x07, 0x00, 0x00, 0x08, 0x38, 0x04, 0x01, 0x20, 0xF8, 0xF6, 0x01, 0x00, 
  0xE0, 0x83, 0x04, 0x20, 0x00, 0x38, 0x00, 0x06, 0x02, 0xFC, 0xCC, 0x07, 
  0x00, 0xF8, 0x00, 0x40, 0x02, 0x20, 0x1C, 0x00, 0x00, 0x00, 0xBE, 0x91, 
  0x3F, 0x00, 0x7F, 0x00, 0x10, 0x00, 0x00, 0x1E, 0x00, 0x17, 0x04, 0x3F, 
  0x03, 0xFE, 0xE7, 0x1F, 0x08, 0x00, 0x00, 0x40, 0x0E, 0x00, 0x02, 0x80, 
  0x67, 0x06, 0xF4, 0xFF, 0x07, 0x20, 0x00, 0x12, 0x00, 0x07, 0x04, 0x05, 
  0xC0, 0xCF, 0x08, 0xC0, 0xFF, 0x01, 0x00, 0x00, 0x00, 0x02, 0x07, 0x00, 
  0x22, 0xE0, 0x9B, 0x20, 0x00, 0x00, 0x00, 0x00, 0x08, 0x40, 0x80, 0x07, 
  0x00, 0x02, 0xF0, 0x33, 0x01, 0x01, 0x00, 0x80, 0x00, 0x00, 0x00, 0x81, 
  0x03, 0x00, 0x06, 0x79, 0x46, 0x00, 0x20, 0x04, 0x00, 0x10, 0x00, 0x01, 
  0xC0, 0x01, 0x04, 0x02, 0xFC, 0x8C, 0x00, 0x00, 0x40, 0x00, 0x02, 0x10, 
  0x00, 0xE0, 0x01, 0x00, 0x82, 0x9E, 0x09, 0x20, 0x08, 0x01, 0x40, 0x10, 
  0x02, 0x00, 0xE4, 0x00, 0x00, 0x06, 0x3F, 0x13, 0x00, 0x00, 0x00, 0x01, 
  0x00, 0x20, 0x00, 0xF0, 0x00, 0x00, 0x82, 0x77, 0x42, 0x01, 0x00, 0x00, 
  0x00, 0x00, 0x00, 0x00, 0x78, 0x00, 0x04, 0xC1, 0xCF, 0x04, 0x00, 0x00, 
  0x40, 0x00, 0x00, 0x00, 0x14, 0x38, 0x00, 0x00, 0xE2, 0x9D, 0x00, 0x48, 
  0x00, 0x01, 0x84, 0x08, 0x20, 0x00, 0x3C, 0x00, 0x00, 0xF2, 0x19, 0x21, 
  0x00, 0x08, 0x20, 0x00, 0x00, 0x08, 0x00, 0x0E, 0x00, 0x00, 0x7E, 0x23, 
  0x00, 0x00, 0x20, 0x00, 0x00, 0x00, 0x00, 0x08, 0x0F, 0x00, 0x04, 0xFE, 
  0x4E, 0x00, 0x00, 0x00, 0x00, 0x00, 0x20, 0x00, 0x80, 0x07, 0x00, 0x00, 
  0xFE, 0x89, 0x01, 0x00, 0x02, 0x00, 0x10, 0x00, 0x04, 0xC0, 0x03, 0x00, 
  0x00, 0x1F, 0x21, 0x10, 0x40, 0x80, 0x44, 0x04, 0x40, 0x00, 0xE0, 0x01, 
  0x00, 0x00, 0x3F, 0x02, 0x00, 0x00, 0x00, 0x00, 0x00, 0x00, 0x20, 0xF4, 
  0x00, 0x00, 0x04, 0x6E, 0x0A, 0x00, 0x02, 0x00, 0x00, 0x00, 0x04, 0x00, 
  0x78, 0x00, 0x00, 0x00, 0xFE, 0x04, 0x10, 0x02, 0x21, 0x00, 0x00, 0x00, 
  0x00, 0x3C, 0x00, 0x00, 0x00, 0xBE, 0x01, 0x00, 0x00, 0x00, 0x00, 0x00, 
  0x48, 0x00, 0x1E, 0x00, 0x00, 0x00, 0xF2, 0x80, 0x00, 0x40, 0x00, 0x14, 
  0x04, 0x00, 0x11, 0x0F, 0x00, 0x00, 0x04, 0xE1, 0x01, 0x02, 0x00, 0x00, 
  0x00, 0x40, 0x00, 0xC0, 0x07, 0x00, 0x00, 0x00, 0xC2, 0x07, 0x00, 0x00, 
  0x00, 0x02, 0x00, 0x00, 0xF0, 0x01, 0x00, 0x00, 0x00, 0x00, 0x1F, 0x10, 
  0x00, 0x10, 0x00, 0x00, 0x00, 0xF8, 0x00, 0x00, 0x00, 0x00, 0x01, 0x7E, 
  0x02, 0x00, 0x00, 0x00, 0x00, 0x08, 0x3E, 0x00, 0x00, 0x00, 0x04, 0x02, 
  0xFC, 0x00, 0x48, 0x04, 0x20, 0x44, 0x80, 0x1F, 0x00, 0x00, 0x00, 0x00, 
  0x02, 0xE0, 0x07, 0x00, 0x00, 0x00, 0x00, 0xE8, 0x0F, 0x00, 0x00, 0x00, 
  0x00, 0x01, 0xC0, 0x1F, 0x00, 0x00, 0x01, 0x01, 0xF8, 0x03, 0x00, 0x00, 
  0x00, 0x00, 0x02, 0x00, 0xFF, 0x00, 0x08, 0x10, 0x00, 0x7F, 0x00, 0x00, 
  0x00, 0x00, 0x04, 0x00, 0x00, 0xFC, 0x2F, 0x00, 0x00, 0xE0, 0x3F, 0x00, 
  0x00, 0x00, 0x00, 0x00, 0x01, 0x00, 0xC0, 0xFF, 0x21, 0x80, 0xFF, 0x07, 
  0x00, 0x00, 0x00, 0x00, 0x00, 0x02, 0x00, 0x00, 0xFF, 0xFF, 0xFF, 0xFF, 
  0x00, 0x00, 0x00, 0x00, 0x00, 0x00, 0x02, 0x00, 0x00, 0xE0, 0xFF, 0xFF, 
  0x0F, 0x00, 0x00, 0x00, 0x00, 0x00, 0x00, 0x02, 0x00, 0x00, 0x00, 0xF4, 
  0x3B, 0x00, 0x00, 0x00, 0x00, 0x00, 0x00, 0x00, 0x02, 0x00, 0x00, 0x00, 
  0x00, 0x00, 0x00, 0x00, 0x00, 0x00, 0x00, 0x00, 0x04, 0x04, 0x00, 0x00, 
  0x00, 0x00, 0x00, 0x00, 0x00, 0x00, 0x00, 0x00, 0x00, 0x00, 0x08, 0x00, 
  0x00, 0x00, 0x00, 0x00, 0x00, 0x00, 0x00, 0x00, 0x00, 0x00, 0x00, 0x08, 
  0x00, 0x00, 0x00, 0x00, 0x00, 0x00, 0x00, 0x00, 0x00, 0x00, 0x00, 0x00, 
  0x10, 0x00, 0x00, 0x00, 0x00, 0x00, 0x00, 0x00, 0x00, 0x00, 0x00, 0x80, 
  0x00, 0xC0, 0x00, 0x00, 0x00, 0x00, 0x00, 0x00, 0x00, 0x00, 0x00, 0x00, 
  0x10, 0x00, 0x00, 0xAD, 0xED, 0xDA, 0xDA, 0xAE, 0xED, 0xDA, 0xDA, 0xAE, 
  0xED, 0x06, 0x00, 0x00, 0x00, 0x00, 0x00, 0x00, 0x00, 0x00, 0x00, 0x00, 
  0x00, 0x00, 0x00, 0x00, };
