#define sh12_width 100
#define sh12_height 100
static char sh12_bits[] = {
  0x00, 0x4A, 0x24, 0x45, 0x4A, 0xA4, 0x24, 0x80, 0x12, 0x08, 0x90, 0x04, 
  0x00, 0x40, 0x9A, 0xD9, 0xBF, 0xDA, 0xAB, 0xED, 0x7F, 0xF6, 0xFF, 0x67, 
  0x29, 0x00, 0x40, 0x00, 0xC0, 0x9F, 0x2A, 0xA0, 0xA2, 0x24, 0x06, 0x3C, 
  0x00, 0x30, 0x00, 0x10, 0x00, 0xC0, 0x3F, 0x00, 0x09, 0x00, 0x00, 0x80, 
  0x7C, 0x00, 0x80, 0x00, 0x08, 0x00, 0xE0, 0x7F, 0x00, 0x00, 0x00, 0x40, 
  0x04, 0x78, 0x00, 0x00, 0x01, 0x08, 0x00, 0x70, 0xF3, 0x01, 0x00, 0x00, 
  0x08, 0x00, 0xF1, 0x00, 0x00, 0x02, 0x04, 0x00, 0xB8, 0xF9, 0x01, 0x48, 
  0x08, 0x00, 0x10, 0xE0, 0x01, 0x00, 0x02, 0x00, 0x00, 0xF8, 0xDC, 0x43, 
  0x00, 0x80, 0x00, 0x00, 0xC0, 0x01, 0x00, 0x02, 0x00, 0x00, 0x3C, 0xEE, 
  0x07, 0x00, 0x00, 0x20, 0x00, 0x91, 0x03, 0x00, 0x04, 0x02, 0x00, 0x0E, 
  0x62, 0x8F, 0x00, 0x42, 0x01, 0x44, 0x00, 0x07, 0x00, 0x04, 0x02, 0x00, 
  0x8F, 0xB0, 0x1F, 0x42, 0x00, 0x00, 0x00, 0x00, 0x0F, 0x00, 0x00, 0x00, 
  0x00, 0x07, 0xC8, 0x3D, 0x00, 0x00, 0x00, 0x00, 0x00, 0x0E, 0x00, 0x0C, 
  0x02, 0x00, 0x87, 0x66, 0x7E, 0x00, 0x00, 0x48, 0x04, 0x80, 0x1E, 0x00, 
  0x00, 0x01, 0x80, 0x03, 0x20, 0xF6, 0x20, 0x00, 0x00, 0x10, 0x00, 0x1C, 
  0x00, 0x08, 0x02, 0xC0, 0x03, 0x10, 0xF3, 0x01, 0x18, 0x00, 0x00, 0x00, 
  0x38, 0x00, 0x04, 0x00, 0xC0, 0x01, 0x80, 0xD9, 0x03, 0x00, 0x00, 0x00, 
  0x88, 0x38, 0x00, 0x04, 0x02, 0xC0, 0x21, 0x40, 0xE4, 0x87, 0x80, 0x10, 
  0x02, 0x00, 0x70, 0x00, 0x08, 0x00, 0xE0, 0x00, 0x04, 0x66, 0x0F, 0x00, 
  0x00, 0x80, 0x00, 0x70, 0x00, 0x04, 0x02, 0xF0, 0x00, 0x80, 0x32, 0x1F, 
  0x04, 0x00, 0x00, 0x02, 0xF2, 0x00, 0x00, 0x01, 0x70, 0x00, 0x00, 0x98, 
  0x3F, 0x00, 0x00, 0x00, 0x00, 0xE0, 0x00, 0x04, 0x02, 0x70, 0x40, 0x02, 
  0xC4, 0x7C, 0x88, 0x00, 0x21, 0x44, 0xE0, 0x00, 0x04, 0x00, 0x30, 0x08, 
  0x10, 0x60, 0xFE, 0x00, 0x10, 0x00, 0x00, 0xC0, 0x01, 0x08, 0x02, 0x38, 
  0x00, 0x00, 0x20, 0xF3, 0x01, 0x04, 0x00, 0x00, 0xC2, 0x01, 0x00, 0x00, 
  0x38, 0x00, 0x00, 0x80, 0xF9, 0x03, 0x00, 0x00, 0x00, 0xC0, 0x01, 0x04, 
  0x02, 0x18, 0x08, 0x00, 0x45, 0xCC, 0x27, 0x00, 0x00, 0x00, 0x84, 0x03, 
  0x00, 0x01, 0x1C, 0x00, 0x14, 0x00, 0x62, 0x0F, 0x22, 0x00, 0x00, 0x80, 
  0x03, 0x08, 0x02, 0x1C, 0x10, 0x00, 0x00, 0xB2, 0x1F, 0x00, 0x42, 0x48, 
  0x80, 0x03, 0x04, 0x00, 0x1E, 0x00, 0x00, 0x00, 0xD8, 0x3F, 0x00, 0x00, 
  0x00, 0x00, 0x03, 0x04, 0x02, 0x0C, 0x00, 0x00, 0x10, 0xEC, 0x79, 0x20, 
  0x80, 0x04, 0x00, 0x07, 0x08, 0x00, 0x0E, 0x00, 0x00, 0x00, 0xE0, 0x70, 
  0x00, 0x00, 0x00, 0x10, 0x07, 0x04, 0x02, 0x4E, 0x00, 0x04, 0x10, 0x70, 
  0xE0, 0x08, 0x01, 0x80, 0x00, 0x07, 0x00, 0x01, 0x0E, 0x21, 0x40, 0x00, 
  0x78, 0xE0, 0x01, 0x00, 0x00, 0x10, 0x07, 0x04, 0x02, 0x06, 0x00, 0x10, 
  0x01, 0x38, 0xC0, 0x81, 0x10, 0x01, 0x00, 0x06, 0x04, 0x00, 0x0F, 0x00, 
  0x01, 0x10, 0x3C, 0x80, 0x03, 0x00, 0x00, 0x40, 0x0F, 0x00, 0x02, 0x26, 
  0x00, 0x00, 0x00, 0x1C, 0x80, 0x07, 0x00, 0x00, 0x01, 0x0E, 0x08, 0x00, 
  0x07, 0x22, 0x00, 0x00, 0x0E, 0x00, 0x03, 0x00, 0x40, 0x00, 0x06, 0x04, 
  0x02, 0x17, 0x00, 0x00, 0x10, 0x0E, 0x00, 0x87, 0x08, 0x02, 0x00, 0x0E, 
  0x00, 0x01, 0x07, 0x40, 0x10, 0x00, 0x0E, 0x00, 0x07, 0x00, 0x20, 0x84, 
  0x0E, 0x08, 0x02, 0x07, 0x01, 0x00, 0x00, 0x07, 0x00, 0x0E, 0x00, 0x00, 
  0x00, 0x0E, 0x04, 0x00, 0x07, 0x00, 0x02, 0x04, 0x07, 0x00, 0x0E, 0x20, 
  0x00, 0x00, 0x0E, 0x04, 0x02, 0x07, 0x04, 0x00, 0x00, 0x07, 0x00, 0x8E, 
  0x04, 0x02, 0x10, 0x0E, 0x04, 0x00, 0x07, 0x00, 0x00, 0x02, 0x07, 0x00, 
  0x0E, 0x40, 0x20, 0x00, 0x0E, 0x04, 0x02, 0x07, 0x10, 0x42, 0x80, 0x07, 
  0x00, 0x0E, 0x00, 0x00, 0x04, 0x0E, 0x00, 0x01, 0x87, 0x00, 0x00, 0x00, 
  0x03, 0x00, 0x0C, 0x00, 0x00, 0x00, 0x0E, 0x04, 0x02, 0x07, 0x00, 0x80, 
  0x20, 0x07, 0x00, 0x0E, 0x02, 0x00, 0x00, 0x0E, 0x04, 0x00, 0x07, 0x00, 
  0x00, 0x02, 0x07, 0x00, 0x1E, 0x10, 0x00, 0x00, 0x0E, 0x08, 0x02, 0x07, 
  0x00, 0x01, 0x00, 0x07, 0x00, 0x0E, 0x00, 0x20, 0x00, 0x07, 0x00, 0x00, 
  0x8E, 0x10, 0x00, 0x00, 0x07, 0x00, 0x0E, 0x00, 0x08, 0x88, 0x0E, 0x04, 
  0x02, 0x0E, 0x10, 0x00, 0x22, 0x0F, 0x00, 0x0E, 0x00, 0x02, 0x00, 0x07, 
  0x00, 0x01, 0x0E, 0x00, 0x01, 0x00, 0x0E, 0x00, 0x07, 0x20, 0x00, 0x42, 
  0x07, 0x08, 0x02, 0x1E, 0x00, 0x00, 0x00, 0x0E, 0x00, 0x07, 0x04, 0x10, 
  0x00, 0x07, 0x04, 0x00, 0x0C, 0x00, 0x20, 0x00, 0x1C, 0x80, 0x13, 0x00, 
  0x00, 0x00, 0x07, 0x04, 0x02, 0x0E, 0x08, 0x00, 0x00, 0x3C, 0xC0, 0x03, 
  0x00, 0x00, 0x00, 0x07, 0x04, 0x00, 0x1C, 0x00, 0x12, 0x10, 0x38, 0xC0, 
  0x01, 0x00, 0x00, 0x80, 0x03, 0x04, 0x02, 0x1C, 0x00, 0x00, 0x00, 0x78, 
  0xE0, 0x01, 0x08, 0x01, 0x88, 0x03, 0x00, 0x01, 0x1C, 0x10, 0x00, 0x08, 
  0xF0, 0xE0, 0x10, 0x80, 0x10, 0x80, 0x03, 0x04, 0x02, 0x38, 0x40, 0x00, 
  0x00, 0xE0, 0x78, 0x00, 0x08, 0x00, 0xC0, 0x01, 0x04, 0x00, 0x38, 0x08, 
  0x00, 0x00, 0xE0, 0x79, 0x00, 0x00, 0x10, 0xC0, 0x01, 0x08, 0x02, 0x38, 
  0x00, 0x00, 0x08, 0xC2, 0x3F, 0x84, 0x00, 0x01, 0xC0, 0x01, 0x00, 0x00, 
  0x70, 0x00, 0x10, 0x20, 0x00, 0x1F, 0x00, 0x00, 0x00, 0xE8, 0x00, 0x04, 
  0x02, 0x70, 0x00, 0x01, 0x00, 0x00, 0x4F, 0x00, 0x00, 0x10, 0xE2, 0x00, 
  0x00, 0x01, 0xF0, 0x04, 0x80, 0x00, 0x22, 0x00, 0x01, 0x08, 0x00, 0xF0, 
  0x00, 0x08, 0x02, 0xE0, 0x08, 0x00, 0x02, 0x00, 0x00, 0x00, 0x20, 0x02, 
  0x70, 0x00, 0x04, 0x00, 0xE0, 0x40, 0x00, 0x20, 0x00, 0x00, 0x80, 0x00, 
  0x00, 0x70, 0x00, 0x04, 0x02, 0xC0, 0x01, 0x40, 0x00, 0x08, 0x00, 0x00, 
  0x00, 0x04, 0x38, 0x00, 0x00, 0x00, 0xC0, 0x03, 0x00, 0x00, 0x20, 0x00, 
  0x00, 0x40, 0x40, 0x3C, 0x00, 0x04, 0x02, 0x80, 0x03, 0x01, 0x10, 0x00, 
  0x00, 0x00, 0x00, 0x00, 0x1C, 0x00, 0x08, 0x01, 0x00, 0x17, 0x00, 0x04, 
  0x00, 0x84, 0x12, 0x02, 0x00, 0x0E, 0x00, 0x04, 0x02, 0x00, 0x0F, 0x88, 
  0x00, 0x00, 0x00, 0x00, 0x00, 0x04, 0x0E, 0x00, 0x00, 0x00, 0x00, 0x0F, 
  0x00, 0x00, 0x00, 0x01, 0x00, 0x42, 0x00, 0x07, 0x00, 0x04, 0x02, 0x00, 
  0x1C, 0x00, 0x04, 0x20, 0x00, 0x80, 0x00, 0x80, 0x07, 0x00, 0x08, 0x00, 
  0x00, 0x1C, 0x00, 0x40, 0x02, 0x80, 0x02, 0x00, 0xC0, 0x03, 0x00, 0x04, 
  0x02, 0x00, 0x38, 0x08, 0x10, 0x00, 0x80, 0x00, 0x00, 0xC0, 0x01, 0x00, 
  0x00, 0x01, 0x00, 0x70, 0x00, 0x00, 0x00, 0x00, 0x00, 0x00, 0xE2, 0x01, 
  0x00, 0x04, 0x02, 0x00, 0xF0, 0x00, 0x00, 0x20, 0x00, 0x40, 0x48, 0xF0, 
  0x00, 0x00, 0x08, 0x00, 0x00, 0xE0, 0x01, 0x00, 0x02, 0x02, 0x00, 0x00, 
  0x78, 0x00, 0x00, 0x04, 0x02, 0x00, 0xC0, 0x13, 0x08, 0x40, 0x40, 0x11, 
  0x00, 0x3C, 0x00, 0x00, 0x00, 0x00, 0x00, 0x80, 0x07, 0x00, 0x00, 0x04, 
  0x00, 0x00, 0x1E, 0x00, 0x00, 0x04, 0x02, 0x00, 0x00, 0x0F, 0x00, 0x01, 
  0x00, 0x00, 0x04, 0x1E, 0x00, 0x00, 0x08, 0x01, 0x00, 0x00, 0x1E, 0x10, 
  0x00, 0x00, 0x00, 0x80, 0x0F, 0x00, 0x00, 0x04, 0x02, 0x00, 0x00, 0x3C, 
  0x00, 0x20, 0x00, 0x00, 0xC0, 0x03, 0x00, 0x00, 0x00, 0x00, 0x00, 0x00, 
  0x78, 0x00, 0x00, 0x00, 0x00, 0xE0, 0x01, 0x00, 0x00, 0x04, 0x02, 0x00, 
  0x00, 0xF0, 0x41, 0x04, 0x00, 0x11, 0xF2, 0x00, 0x00, 0x00, 0x08, 0x00, 
  0x00, 0x00, 0xE0, 0x03, 0x00, 0x21, 0x00, 0x7C, 0x00, 0x00, 0x00, 0x04, 
  0x02, 0x00, 0x00, 0x80, 0x07, 0x00, 0x00, 0x00, 0x1E, 0x00, 0x00, 0x00, 
  0x00, 0x01, 0x00, 0x00, 0x00, 0x1F, 0x00, 0x40, 0x80, 0x0F, 0x00, 0x00, 
  0x00, 0x04, 0x02, 0x00, 0x00, 0x00, 0x3E, 0x00, 0x00, 0xC2, 0x07, 0x00, 
  0x00, 0x00, 0x04, 0x00, 0x00, 0x00, 0x00, 0xFC, 0x84, 0x01, 0xF0, 0x01, 
  0x00, 0x00, 0x00, 0x08, 0x02, 0x00, 0x00, 0x00, 0xF0, 0x03, 0x08, 0xF8, 
  0x00, 0x00, 0x00, 0x00, 0x00, 0x00, 0x00, 0x00, 0x00, 0xC0, 0x0F, 0x00, 
  0x3F, 0x00, 0x00, 0x00, 0x00, 0x04, 0x00, 0x00, 0x00, 0x00, 0x00, 0x3F, 
  0xC0, 0x1F, 0x00, 0x00, 0x00, 0x00, 0x00, 0x02, 0x00, 0x00, 0x00, 0x00, 
  0xFE, 0xF0, 0x07, 0x00, 0x00, 0x00, 0x00, 0x04, 0x00, 0x00, 0x00, 0x00, 
  0x00, 0xF0, 0xFF, 0x00, 0x00, 0x00, 0x00, 0x00, 0x04, 0x04, 0x00, 0x00, 
  0x00, 0x00, 0xC0, 0x7F, 0x00, 0x00, 0x00, 0x00, 0x00, 0x02, 0x08, 0x00, 
  0x00, 0x00, 0x00, 0x00, 0x0F, 0x00, 0x00, 0x00, 0x00, 0x00, 0x01, 0x00, 
  0x00, 0x00, 0x00, 0x00, 0x00, 0x00, 0x00, 0x00, 0x00, 0x00, 0x00, 0x00, 
  0x00, 0x00, 0x00, 0x00, 0x00, 0x00, 0x00, 0x00, 0x00, 0x00, 0x00, 0xC0, 
  0x00, 0x00, 0x00, 0x00, 0x00, 0x00, 0x00, 0x00, 0x00, 0x00, 0x00, 0x00, 
  0x20, 0x00, 0x00, 0x21, 0x44, 0x62, 0x62, 0x24, 0x44, 0x62, 0x42, 0x24, 
  0x44, 0x08, 0x00, 0x00, 0x00, 0x00, 0x00, 0x00, 0x00, 0x00, 0x00, 0x00, 
  0x00, 0x00, 0x00, 0x00, };
