#define sh13_width 100
#define sh13_height 100
static char sh13_bits[] = {
  0x00, 0x00, 0x20, 0x00, 0x02, 0x20, 0x00, 0x82, 0x20, 0x00, 0x82, 0x00, 
  0x00, 0x00, 0xD5, 0x55, 0x5D, 0xD5, 0x55, 0x5D, 0x55, 0x55, 0x5D, 0x55, 
  0x15, 0x00, 0x00, 0x00, 0x00, 0x00, 0x00, 0x00, 0x00, 0x00, 0x00, 0x00, 
  0x00, 0x60, 0x00, 0x20, 0x00, 0x00, 0x00, 0x00, 0x00, 0x00, 0x00, 0x00, 
  0x00, 0x00, 0x80, 0x00, 0x08, 0x00, 0x00, 0x00, 0x00, 0x00, 0x00, 0x00, 
  0x00, 0x00, 0x00, 0x00, 0x00, 0x00, 0x00, 0x00, 0x00, 0x00, 0x00, 0x00, 
  0x00, 0x00, 0x00, 0x00, 0x00, 0x02, 0x00, 0x00, 0x00, 0x00, 0x00, 0x00, 
  0x00, 0x00, 0x00, 0x00, 0x00, 0x00, 0x02, 0x00, 0x00, 0x00, 0x00, 0x00, 
  0x00, 0x00, 0x00, 0x00, 0x00, 0x00, 0x00, 0x02, 0x00, 0x00, 0x00, 0x00, 
  0x00, 0x00, 0xE0, 0xFE, 0x05, 0x00, 0x00, 0x00, 0x04, 0x00, 0x00, 0x00, 
  0x00, 0x00, 0x00, 0xFE, 0xFF, 0xFF, 0x00, 0x00, 0x00, 0x04, 0x00, 0x00, 
  0x00, 0x00, 0x00, 0xF0, 0xFF, 0xFF, 0xFF, 0x0F, 0x00, 0x00, 0x04, 0x02, 
  0x00, 0x00, 0x00, 0x00, 0xFE, 0x1F, 0x00, 0xFC, 0x7F, 0x00, 0x00, 0x08, 
  0x00, 0x00, 0x00, 0x00, 0xC0, 0x7F, 0x00, 0x00, 0x80, 0xFF, 0x01, 0x00, 
  0x08, 0x00, 0x00, 0x00, 0x00, 0xF0, 0x0F, 0x40, 0x00, 0x00, 0xF0, 0x0F, 
  0x00, 0x04, 0x00, 0x00, 0x00, 0x00, 0xFC, 0x01, 0x04, 0x01, 0x00, 0xC0, 
  0x3F, 0x00, 0x00, 0x00, 0x00, 0x00, 0x00, 0x7E, 0x80, 0x00, 0x20, 0x01, 
  0x00, 0xFE, 0x00, 0x08, 0x02, 0x00, 0x00, 0xC0, 0x1F, 0x20, 0x10, 0x00, 
  0x40, 0x00, 0xF8, 0x01, 0x04, 0x00, 0x00, 0x00, 0xC0, 0x07, 0x02, 0x04, 
  0x00, 0x08, 0x00, 0xE0, 0x07, 0x08, 0x00, 0x00, 0x00, 0xF0, 0x01, 0x00, 
  0x00, 0x80, 0x00, 0x01, 0x80, 0x0F, 0x00, 0x02, 0x00, 0x00, 0x7C, 0x00, 
  0x00, 0x00, 0x08, 0x00, 0x80, 0x00, 0x3E, 0x04, 0x00, 0x00, 0x00, 0x3E, 
  0x10, 0x00, 0x00, 0x00, 0x00, 0x08, 0x00, 0x7C, 0x08, 0x00, 0x00, 0x00, 
  0x1F, 0x00, 0x20, 0x00, 0x01, 0x08, 0x00, 0x00, 0xF0, 0x04, 0x02, 0x00, 
  0x80, 0x07, 0x08, 0x08, 0x42, 0x00, 0x20, 0x00, 0x08, 0xE8, 0x07, 0x00, 
  0x00, 0xC0, 0x03, 0x00, 0x00, 0x00, 0x80, 0x00, 0x00, 0x40, 0xD0, 0x07, 
  0x02, 0x00, 0xF0, 0x01, 0x00, 0x00, 0x00, 0x00, 0x02, 0x00, 0x00, 0x62, 
  0x0F, 0x00, 0x00, 0xF0, 0x00, 0x00, 0x00, 0x00, 0x08, 0x80, 0x44, 0x80, 
  0xCC, 0x07, 0x00, 0x00, 0x78, 0x20, 0x80, 0x21, 0x04, 0x20, 0x00, 0x00, 
  0x84, 0x98, 0x0F, 0x00, 0x00, 0x1C, 0x00, 0x04, 0x00, 0x40, 0x00, 0x00, 
  0x00, 0x00, 0xB3, 0x07, 0x02, 0x00, 0x1E, 0x00, 0x00, 0x00, 0x02, 0x00, 
  0x21, 0x00, 0x20, 0xF6, 0x07, 0x00, 0x00, 0x4F, 0x00, 0x01, 0x80, 0x00, 
  0x00, 0x00, 0x00, 0xC0, 0xEC, 0x07, 0x02, 0x80, 0x07, 0x00, 0x00, 0x00, 
  0x00, 0x10, 0x00, 0x18, 0x98, 0xFD, 0x04, 0x00, 0x80, 0x03, 0x21, 0x80, 
  0x01, 0x80, 0x00, 0x00, 0x00, 0x10, 0x7B, 0x04, 0x00, 0xC0, 0x49, 0x00, 
  0x00, 0x00, 0x08, 0x00, 0x08, 0x41, 0x22, 0x3F, 0x04, 0x00, 0xE0, 0x01, 
  0x00, 0x08, 0x00, 0x00, 0x40, 0x00, 0x00, 0xE4, 0x9E, 0x04, 0x02, 0xE0, 
  0x00, 0x08, 0x20, 0x10, 0x10, 0x02, 0x00, 0x00, 0xDC, 0x0F, 0x06, 0x00, 
  0x70, 0x00, 0x40, 0x00, 0x04, 0x00, 0x00, 0x00, 0x81, 0x99, 0x07, 0x04, 
  0x02, 0x70, 0x00, 0x04, 0x00, 0x00, 0x00, 0x01, 0x00, 0x00, 0xF3, 0x03, 
  0x04, 0x00, 0x38, 0x00, 0x00, 0x00, 0x00, 0x00, 0x40, 0x08, 0x20, 0xE6, 
  0x01, 0x06, 0x00, 0x1C, 0x08, 0x00, 0x10, 0x04, 0x10, 0x00, 0x00, 0xC8, 
  0xFC, 0x08, 0x04, 0x00, 0x9E, 0x10, 0x80, 0x01, 0x80, 0x01, 0x00, 0x20, 
  0x98, 0x7D, 0x40, 0x04, 0x02, 0x0E, 0x00, 0x10, 0x00, 0x01, 0xF8, 0x3F, 
  0x00, 0x32, 0x3F, 0x04, 0x06, 0x00, 0x0F, 0x00, 0x00, 0x00, 0x00, 0xFE, 
  0xFF, 0x01, 0x64, 0x1E, 0x00, 0x04, 0x02, 0x07, 0x80, 0x00, 0x00, 0x80, 
  0x7F, 0xFB, 0x87, 0xCC, 0x0F, 0x00, 0x04, 0x00, 0x07, 0x04, 0x00, 0x00, 
  0xE0, 0x0F, 0xC0, 0x9F, 0xD9, 0x07, 0x40, 0x06, 0x80, 0x03, 0x00, 0x08, 
  0x91, 0xF1, 0x01, 0x00, 0x3E, 0xF3, 0x03, 0x00, 0x04, 0x80, 0x01, 0x01, 
  0x00, 0x00, 0x7C, 0x00, 0x00, 0xF8, 0xF6, 0x49, 0x00, 0x04, 0xC2, 0x11, 
  0x00, 0x00, 0x00, 0x1C, 0x00, 0x00, 0xF0, 0xFD, 0x00, 0x01, 0x06, 0xE0, 
  0x01, 0x80, 0x20, 0x00, 0x1F, 0x00, 0x00, 0xE0, 0x7D, 0x00, 0x10, 0x04, 
  0xE2, 0x00, 0x00, 0x00, 0x00, 0x07, 0x00, 0x00, 0x80, 0x3F, 0x01, 0x00, 
  0x04, 0xE0, 0x00, 0x02, 0x40, 0x90, 0x03, 0x00, 0x00, 0x00, 0x1F, 0x10, 
  0x42, 0x06, 0xE0, 0x08, 0x00, 0x00, 0x81, 0x03, 0x00, 0x00, 0x00, 0x0F, 
  0x00, 0x00, 0x06, 0xE0, 0x40, 0x40, 0x08, 0x80, 0x07, 0x00, 0x00, 0x80, 
  0x27, 0x00, 0x00, 0x04, 0xC2, 0x01, 0x40, 0x00, 0x00, 0x1F, 0x00, 0x00, 
  0xE0, 0x03, 0x10, 0x00, 0x00, 0xC0, 0x01, 0x00, 0x80, 0x00, 0x3E, 0x00, 
  0x00, 0xF0, 0x01, 0x00, 0x10, 0x0C, 0x82, 0x03, 0x02, 0x08, 0x20, 0xFC, 
  0x00, 0x00, 0xF8, 0x10, 0x00, 0x08, 0x04, 0x80, 0x23, 0x00, 0x00, 0x02, 
  0xF0, 0x01, 0x00, 0xBF, 0x00, 0x04, 0x00, 0x05, 0x00, 0x03, 0x00, 0x00, 
  0x00, 0xE0, 0x0F, 0x80, 0x1F, 0x00, 0x00, 0x02, 0x0E, 0x00, 0x07, 0x00, 
  0x00, 0x04, 0x82, 0xFF, 0xFD, 0x07, 0x00, 0x08, 0x00, 0x00, 0x00, 0x0F, 
  0x00, 0x44, 0x00, 0x00, 0xFF, 0xFF, 0x05, 0x00, 0x20, 0x80, 0x04, 0x02, 
  0x8E, 0x12, 0x00, 0x10, 0x00, 0xF0, 0x5F, 0x00, 0x89, 0x00, 0x00, 0x08, 
  0x02, 0x1E, 0x80, 0x02, 0x00, 0x40, 0x00, 0x02, 0x00, 0x00, 0x00, 0x11, 
  0x04, 0x00, 0x1C, 0x00, 0x00, 0x00, 0x00, 0x20, 0x00, 0x00, 0x00, 0x00, 
  0x00, 0x0D, 0x00, 0x38, 0x00, 0x80, 0x00, 0x02, 0x00, 0x00, 0x08, 0x00, 
  0x10, 0x00, 0x00, 0x00, 0x78, 0x02, 0x00, 0x08, 0x00, 0x00, 0x40, 0x80, 
  0x00, 0x01, 0x00, 0x0C, 0x02, 0x70, 0x00, 0x02, 0x08, 0x01, 0x20, 0x08, 
  0x02, 0x80, 0x00, 0x20, 0x0E, 0x00, 0xF0, 0x08, 0x20, 0x00, 0x00, 0x00, 
  0x00, 0x10, 0x08, 0x00, 0x02, 0x00, 0x02, 0xE0, 0x81, 0x00, 0x00, 0x00, 
  0x01, 0x00, 0x00, 0x00, 0x40, 0x00, 0x06, 0x00, 0xC0, 0x01, 0x00, 0x00, 
  0x40, 0x00, 0x00, 0x00, 0x00, 0x00, 0x00, 0x08, 0x00, 0x80, 0x03, 0x20, 
  0x00, 0x02, 0x48, 0x08, 0x20, 0x00, 0x21, 0x20, 0x04, 0x00, 0x00, 0x07, 
  0x00, 0x08, 0x20, 0x00, 0x00, 0x08, 0x04, 0x00, 0x00, 0x06, 0x02, 0x00, 
  0x0F, 0x08, 0x20, 0x00, 0x00, 0x00, 0x00, 0x10, 0x00, 0x00, 0x04, 0x00, 
  0x00, 0x1E, 0x00, 0x00, 0x00, 0x00, 0x20, 0x00, 0x00, 0x00, 0x04, 0x04, 
  0x02, 0x00, 0x1C, 0x00, 0x04, 0x00, 0x10, 0x00, 0x04, 0x20, 0x00, 0x00, 
  0x06, 0x00, 0x00, 0x78, 0x00, 0x40, 0x42, 0x08, 0x40, 0x00, 0x00, 0x00, 
  0x22, 0x04, 0x00, 0x00, 0xF0, 0x01, 0x00, 0x00, 0x00, 0x00, 0x20, 0x04, 
  0x04, 0x10, 0x07, 0x00, 0x00, 0xF0, 0x21, 0x00, 0x00, 0x00, 0x08, 0x00, 
  0x00, 0x40, 0x00, 0x0F, 0x02, 0x00, 0xC0, 0x03, 0x11, 0x00, 0x00, 0x00, 
  0x00, 0x00, 0x02, 0x80, 0x07, 0x00, 0x00, 0x80, 0x07, 0x00, 0x00, 0x00, 
  0x80, 0x00, 0x00, 0x00, 0xE0, 0x07, 0x02, 0x00, 0x00, 0x0F, 0x00, 0x18, 
  0x42, 0x08, 0x00, 0x00, 0x40, 0xF0, 0x00, 0x00, 0x00, 0x00, 0x3E, 0x00, 
  0x00, 0x00, 0x00, 0x21, 0x84, 0x00, 0x7C, 0x0C, 0x00, 0x00, 0x00, 0x78, 
  0x00, 0x00, 0x08, 0x00, 0x08, 0x00, 0x04, 0x3E, 0x00, 0x00, 0x00, 0x00, 
  0xF0, 0x01, 0x00, 0x80, 0x00, 0x80, 0x00, 0x40, 0x1F, 0x04, 0x02, 0x00, 
  0x00, 0xE0, 0x07, 0x18, 0x00, 0x48, 0x00, 0x00, 0xC0, 0x07, 0x04, 0x00, 
  0x00, 0x00, 0xC0, 0x1F, 0x00, 0x00, 0x00, 0x00, 0x10, 0xF0, 0x03, 0x08, 
  0x02, 0x00, 0x00, 0x00, 0x7E, 0x00, 0x08, 0x02, 0x08, 0x01, 0xFD, 0x00, 
  0x00, 0x00, 0x00, 0x00, 0x00, 0xFC, 0x01, 0x00, 0x00, 0x00, 0x80, 0x3F, 
  0x00, 0x04, 0x00, 0x00, 0x00, 0x00, 0xF0, 0x0F, 0x00, 0x00, 0x00, 0xF0, 
  0x0F, 0x00, 0x04, 0x00, 0x00, 0x00, 0x00, 0x80, 0x7F, 0x20, 0x00, 0x40, 
  0xFE, 0x03, 0x00, 0x04, 0x02, 0x00, 0x00, 0x00, 0x00, 0xFE, 0x0F, 0x00, 
  0xF6, 0x3F, 0x00, 0x00, 0x0C, 0x00, 0x00, 0x00, 0x00, 0x00, 0xF0, 0xFF, 
  0xFF, 0xFF, 0x0F, 0x00, 0x00, 0x00, 0x00, 0x00, 0x00, 0x00, 0x00, 0x00, 
  0xFF, 0xFF, 0xFF, 0x00, 0x00, 0x00, 0x04, 0x02, 0x00, 0x00, 0x00, 0x00, 
  0x00, 0xD0, 0xFF, 0x05, 0x00, 0x00, 0x00, 0x08, 0x06, 0x00, 0x00, 0x00, 
  0x00, 0x00, 0x00, 0x00, 0x00, 0x00, 0x00, 0x00, 0x04, 0x00, 0x00, 0x00, 
  0x00, 0x00, 0x00, 0x00, 0x00, 0x00, 0x00, 0x00, 0x00, 0x02, 0x00, 0x00, 
  0x00, 0x00, 0x00, 0x00, 0x00, 0x00, 0x00, 0x00, 0x00, 0x00, 0x01, 0x08, 
  0x00, 0x00, 0x00, 0x00, 0x00, 0x00, 0x00, 0x00, 0x00, 0x00, 0x00, 0x02, 
  0x10, 0x00, 0x00, 0x00, 0x00, 0x00, 0x00, 0x00, 0x00, 0x00, 0x00, 0xC0, 
  0x00, 0x40, 0x00, 0x00, 0x00, 0x00, 0x00, 0x00, 0x00, 0x00, 0x00, 0x00, 
  0x20, 0x00, 0x00, 0xA3, 0xC9, 0x9A, 0x9A, 0xAC, 0xC9, 0x9A, 0xAA, 0xAC, 
  0xCA, 0x15, 0x00, 0x00, 0x18, 0x22, 0x21, 0x21, 0x12, 0x22, 0x21, 0x21, 
  0x12, 0x22, 0x02, 0x00, };
