#define sh20_width 100
#define sh20_height 100
static char sh20_bits[] = {
  0x00, 0x00, 0x00, 0x00, 0x00, 0x00, 0x00, 0x00, 0x00, 0x00, 0x00, 0x00, 
  0x00, 0x00, 0x50, 0x08, 0x9F, 0x65, 0x59, 0x68, 0x9A, 0xA6, 0x1F, 0x22, 
  0x00, 0x00, 0x20, 0x00, 0x80, 0x1F, 0x00, 0x04, 0x08, 0x00, 0x00, 0x3C, 
  0x00, 0x00, 0x00, 0x20, 0x00, 0xC0, 0x39, 0x00, 0x00, 0x00, 0x00, 0x00, 
  0x20, 0x00, 0x40, 0x00, 0x10, 0x00, 0xE0, 0x7E, 0x00, 0x00, 0x00, 0x00, 
  0x00, 0xF0, 0x00, 0x00, 0x00, 0x04, 0x00, 0xF0, 0xF6, 0x01, 0x00, 0x00, 
  0x00, 0x00, 0xE0, 0x00, 0x00, 0x00, 0x00, 0x00, 0x78, 0xFB, 0x01, 0x00, 
  0x00, 0x00, 0x00, 0xC0, 0x01, 0x00, 0x02, 0x04, 0x00, 0xB8, 0xD8, 0x03, 
  0x00, 0x00, 0x00, 0x00, 0xC0, 0x03, 0x00, 0x04, 0x00, 0x00, 0x7C, 0xCC, 
  0x0F, 0x00, 0x00, 0x00, 0x00, 0x80, 0x07, 0x00, 0x04, 0x02, 0x00, 0x0E, 
  0x73, 0x0F, 0x20, 0x00, 0x00, 0x00, 0x00, 0x07, 0x00, 0x00, 0x02, 0x00, 
  0x0E, 0x90, 0x3F, 0x00, 0x80, 0x00, 0x80, 0x00, 0x0F, 0x00, 0x08, 0x00, 
  0x00, 0x07, 0x88, 0x3D, 0x00, 0x00, 0x04, 0x00, 0x00, 0x0E, 0x00, 0x00, 
  0x02, 0x00, 0x07, 0xC4, 0xFE, 0x00, 0x04, 0x00, 0x00, 0x12, 0x1C, 0x00, 
  0x00, 0x02, 0x80, 0x13, 0x60, 0xF6, 0x01, 0x00, 0x00, 0x01, 0x00, 0x3C, 
  0x00, 0x04, 0x02, 0x80, 0x03, 0x00, 0xF9, 0x03, 0x00, 0x00, 0x00, 0x00, 
  0x38, 0x00, 0x00, 0x00, 0xC0, 0x01, 0x80, 0xD9, 0x03, 0x00, 0x20, 0x00, 
  0x00, 0x70, 0x00, 0x04, 0x02, 0xC0, 0x01, 0x80, 0xEC, 0x0F, 0x00, 0x00, 
  0x00, 0x01, 0x70, 0x00, 0x04, 0x00, 0xE0, 0x00, 0x00, 0x62, 0x0F, 0x00, 
  0x00, 0x00, 0x00, 0xF0, 0x00, 0x00, 0x02, 0xE0, 0x00, 0x00, 0x32, 0x1F, 
  0x00, 0x01, 0x00, 0x00, 0xE0, 0x00, 0x08, 0x02, 0x70, 0x00, 0x80, 0x90, 
  0x3D, 0x00, 0x00, 0x00, 0x00, 0xC0, 0x00, 0x00, 0x02, 0x70, 0x40, 0x01, 
  0xC8, 0xFE, 0x20, 0x00, 0x01, 0x00, 0xC2, 0x01, 0x08, 0x00, 0x30, 0x00, 
  0x00, 0x40, 0xF6, 0x01, 0x00, 0x00, 0x00, 0xC0, 0x01, 0x00, 0x02, 0x38, 
  0x00, 0x00, 0x20, 0xF3, 0x01, 0x80, 0x00, 0x00, 0xC0, 0x01, 0x00, 0x00, 
  0x3C, 0x00, 0x00, 0x80, 0xD9, 0x03, 0x00, 0x00, 0x10, 0x80, 0x03, 0x04, 
  0x02, 0x1C, 0x00, 0x00, 0x80, 0xCC, 0x07, 0x00, 0x00, 0x00, 0xA0, 0x03, 
  0x00, 0x02, 0x1C, 0x04, 0x00, 0x10, 0x66, 0x0F, 0x04, 0x00, 0x01, 0x00, 
  0x07, 0x04, 0x02, 0x0C, 0x00, 0x10, 0x00, 0xA1, 0x1F, 0x00, 0x00, 0x00, 
  0x00, 0x07, 0x00, 0x00, 0x1E, 0x00, 0x00, 0x00, 0x90, 0x3F, 0x00, 0x10, 
  0x00, 0x00, 0x07, 0x08, 0x02, 0x0E, 0x00, 0x02, 0x00, 0xCC, 0x79, 0x00, 
  0x00, 0x00, 0x00, 0x0E, 0x04, 0x00, 0x06, 0x80, 0x00, 0x04, 0xE0, 0x71, 
  0x00, 0x00, 0x00, 0x00, 0x0E, 0x00, 0x02, 0x0F, 0x00, 0x00, 0x00, 0xE0, 
  0xE0, 0x00, 0x00, 0x10, 0x00, 0x0E, 0x08, 0x02, 0x07, 0x00, 0x00, 0x00, 
  0x70, 0xE0, 0x08, 0x08, 0x00, 0x00, 0x0E, 0x00, 0x02, 0x07, 0x00, 0x00, 
  0x00, 0x30, 0xC0, 0x01, 0x00, 0x00, 0x80, 0x1C, 0x04, 0x00, 0x03, 0x00, 
  0x40, 0x00, 0x38, 0x80, 0x03, 0x00, 0x00, 0x00, 0x0C, 0x00, 0x02, 0x47, 
  0x04, 0x00, 0x20, 0x3C, 0x80, 0x83, 0x00, 0x00, 0x00, 0x1C, 0x04, 0x00, 
  0x03, 0x00, 0x00, 0x00, 0x1C, 0x80, 0x03, 0x01, 0x08, 0x00, 0x1C, 0x00, 
  0x82, 0x03, 0x00, 0x00, 0x00, 0x1C, 0x00, 0x07, 0x00, 0x80, 0x01, 0x1C, 
  0x00, 0x82, 0x03, 0x00, 0x00, 0x00, 0x0C, 0x00, 0x07, 0x00, 0x00, 0x00, 
  0x18, 0x04, 0x82, 0x03, 0x00, 0x00, 0x00, 0x0E, 0x00, 0x07, 0x00, 0x00, 
  0x00, 0x38, 0x00, 0x80, 0x03, 0x00, 0x02, 0x00, 0x0E, 0x00, 0x0E, 0x80, 
  0x00, 0x00, 0x38, 0x08, 0x82, 0x03, 0x00, 0x00, 0x01, 0x0F, 0x00, 0x0E, 
  0x00, 0x00, 0x00, 0x3A, 0x04, 0x80, 0x03, 0x00, 0x20, 0x00, 0x06, 0x00, 
  0x0E, 0x00, 0x00, 0x00, 0x38, 0x00, 0xC2, 0x01, 0x02, 0x00, 0x00, 0x07, 
  0x00, 0x1E, 0x00, 0x00, 0x00, 0x38, 0x08, 0xC2, 0x01, 0x00, 0x00, 0x00, 
  0x07, 0x00, 0x0C, 0x00, 0x40, 0x00, 0x30, 0x00, 0x82, 0x01, 0x00, 0x00, 
  0x00, 0x07, 0x00, 0x0C, 0x02, 0x00, 0x08, 0x38, 0x08, 0xC0, 0x01, 0x00, 
  0x00, 0x00, 0x03, 0x00, 0x1C, 0x00, 0x08, 0x00, 0x30, 0x00, 0xC2, 0x01, 
  0x00, 0x20, 0x10, 0x07, 0x00, 0x1C, 0x00, 0x00, 0x00, 0x30, 0x00, 0xC0, 
  0x11, 0x20, 0x00, 0x00, 0x03, 0x00, 0x1C, 0x00, 0x00, 0x00, 0x78, 0x04, 
  0xC2, 0x01, 0x00, 0x02, 0x00, 0x03, 0x00, 0x1C, 0x00, 0x00, 0x00, 0x30, 
  0x00, 0xC2, 0x01, 0x00, 0x00, 0x00, 0x03, 0x00, 0x1C, 0x00, 0x04, 0x00, 
  0x38, 0x04, 0xC2, 0x01, 0x00, 0x00, 0x00, 0x03, 0x00, 0x1C, 0x08, 0x00, 
  0x00, 0x30, 0x00, 0xC0, 0x01, 0x00, 0x00, 0xA0, 0x03, 0x00, 0x1C, 0x00, 
  0x00, 0x20, 0x38, 0x08, 0xC2, 0x05, 0x00, 0x00, 0x00, 0x07, 0x00, 0x1C, 
  0x00, 0x00, 0x00, 0x38, 0x04, 0xC0, 0x01, 0x08, 0x00, 0x00, 0x03, 0x00, 
  0x0C, 0x00, 0x80, 0x00, 0x70, 0x00, 0x82, 0x01, 0x00, 0x40, 0x00, 0x07, 
  0x00, 0x1C, 0x00, 0x00, 0x00, 0x30, 0x08, 0xC2, 0x01, 0x00, 0x00, 0x00, 
  0x07, 0x00, 0x0C, 0x00, 0x00, 0x00, 0x38, 0x00, 0xC2, 0x01, 0x00, 0x00, 
  0x00, 0x07, 0x00, 0x1C, 0x00, 0x00, 0x00, 0x38, 0x08, 0x80, 0x01, 0x00, 
  0x00, 0x02, 0x07, 0x00, 0x0C, 0x80, 0x00, 0x01, 0x38, 0x00, 0x82, 0x01, 
  0x00, 0x00, 0x00, 0x07, 0x00, 0x0E, 0x00, 0x00, 0x00, 0x38, 0x00, 0x80, 
  0x03, 0x40, 0x02, 0x00, 0x0E, 0x00, 0x0E, 0x00, 0x00, 0x00, 0x38, 0x04, 
  0x82, 0x13, 0x00, 0x00, 0x00, 0x0E, 0x00, 0x0E, 0x00, 0x00, 0x00, 0x38, 
  0x00, 0x82, 0x03, 0x00, 0x10, 0x80, 0x0E, 0x00, 0x07, 0x00, 0x42, 0x00, 
  0x18, 0x04, 0x82, 0x03, 0x00, 0x00, 0x00, 0x0E, 0x00, 0x07, 0x02, 0x00, 
  0x40, 0x3C, 0x00, 0x80, 0x03, 0x02, 0x00, 0x00, 0x1C, 0x80, 0x07, 0x00, 
  0x00, 0x00, 0x18, 0x08, 0x02, 0x03, 0x00, 0x80, 0x00, 0x1C, 0x80, 0x03, 
  0x02, 0x00, 0x00, 0x1C, 0x08, 0x00, 0x07, 0x00, 0x00, 0x02, 0x3C, 0x80, 
  0x03, 0x00, 0x00, 0x01, 0x1C, 0x00, 0x02, 0x07, 0x00, 0x00, 0x00, 0x38, 
  0x80, 0x03, 0x00, 0x00, 0x00, 0x0C, 0x04, 0x02, 0x07, 0x84, 0x00, 0x00, 
  0x70, 0xC0, 0x01, 0x00, 0x00, 0x00, 0x0E, 0x00, 0x02, 0x07, 0x00, 0x01, 
  0x00, 0x70, 0xE0, 0x00, 0x00, 0x04, 0x00, 0x0E, 0x08, 0x00, 0x07, 0x00, 
  0x00, 0x00, 0xF0, 0xE0, 0x00, 0x80, 0x00, 0x10, 0x0E, 0x00, 0x02, 0x0E, 
  0x00, 0x00, 0x80, 0xE0, 0x70, 0x00, 0x00, 0x00, 0x00, 0x0E, 0x04, 0x00, 
  0x0E, 0x00, 0x00, 0x00, 0xC0, 0x79, 0x05, 0x00, 0x00, 0x00, 0x06, 0x00, 
  0x02, 0x0E, 0x02, 0x00, 0x00, 0x80, 0x3F, 0x01, 0x00, 0x00, 0x00, 0x07, 
  0x08, 0x02, 0x0C, 0x00, 0x00, 0x00, 0x80, 0xDF, 0x08, 0x00, 0x00, 0x00, 
  0x07, 0x00, 0x02, 0x1C, 0x00, 0x00, 0x00, 0x00, 0x7F, 0x46, 0x00, 0x20, 
  0x00, 0x07, 0x04, 0x00, 0x1C, 0x00, 0x10, 0x00, 0x00, 0x3E, 0x23, 0x08, 
  0x00, 0x80, 0x03, 0x00, 0x02, 0x1C, 0x00, 0x00, 0x00, 0x20, 0xFC, 0x11, 
  0x40, 0x00, 0x88, 0x03, 0x08, 0x00, 0x38, 0x00, 0x00, 0x08, 0x00, 0xF8, 
  0x8C, 0x00, 0x02, 0xC0, 0x01, 0x00, 0x02, 0x70, 0x00, 0x00, 0x00, 0x08, 
  0xF0, 0x47, 0x00, 0x00, 0xC0, 0x01, 0x04, 0x02, 0x70, 0x20, 0x00, 0x00, 
  0x00, 0xE0, 0x37, 0x02, 0x00, 0xC0, 0x01, 0x00, 0x02, 0x70, 0x00, 0x00, 
  0x40, 0x00, 0xC0, 0x9B, 0x11, 0x00, 0xE0, 0x00, 0x08, 0x00, 0xF0, 0x00, 
  0x10, 0x00, 0x00, 0x80, 0x9F, 0x08, 0x00, 0xE0, 0x00, 0x00, 0x02, 0xE0, 
  0x01, 0x00, 0x00, 0x00, 0x00, 0x6F, 0x06, 0x20, 0x70, 0x00, 0x04, 0x00, 
  0xC0, 0x00, 0x00, 0x00, 0x00, 0x00, 0x7E, 0x22, 0x00, 0x70, 0x00, 0x00, 
  0x02, 0xC0, 0x01, 0x04, 0x00, 0x00, 0x00, 0xFC, 0x13, 0x00, 0x38, 0x00, 
  0x08, 0x02, 0x80, 0x43, 0x00, 0x01, 0x10, 0x00, 0xF8, 0x89, 0x04, 0x38, 
  0x00, 0x00, 0x02, 0x80, 0x03, 0x00, 0x00, 0x00, 0x04, 0xF0, 0x4E, 0x00, 
  0x3C, 0x00, 0x04, 0x00, 0x00, 0x07, 0x00, 0x00, 0x00, 0x00, 0xE0, 0x67, 
  0x02, 0x1E, 0x00, 0x00, 0x02, 0x00, 0x07, 0x00, 0x00, 0x80, 0x00, 0xC0, 
  0x37, 0x01, 0x0E, 0x00, 0x08, 0x00, 0x00, 0x0E, 0x00, 0x00, 0x00, 0x00, 
  0x80, 0x9F, 0x08, 0x0F, 0x00, 0x00, 0x02, 0x00, 0x1E, 0x40, 0x10, 0x00, 
  0x00, 0x04, 0xEF, 0x0C, 0x07, 0x00, 0x00, 0x02, 0x00, 0x3C, 0x00, 0x00, 
  0x00, 0x40, 0x00, 0x7E, 0xA6, 0x03, 0x00, 0x04, 0x04, 0x00, 0x38, 0x00, 
  0x00, 0x00, 0x00, 0x00, 0x7C, 0xF3, 0x03, 0x00, 0x00, 0x00, 0x00, 0x70, 
  0x04, 0x00, 0x00, 0x04, 0x40, 0xF8, 0xD9, 0x01, 0x00, 0x06, 0x08, 0x00, 
  0xF0, 0x00, 0x04, 0x04, 0x00, 0x00, 0xF0, 0xED, 0x00, 0x00, 0x02, 0x08, 
  0x00, 0xE0, 0x01, 0x00, 0x00, 0x00, 0x00, 0xE0, 0x77, 0x00, 0x00, 0x00, 
  0x30, 0x00, 0xC0, 0x03, 0x00, 0x00, 0x00, 0x00, 0xC0, 0x7F, 0x00, 0x80, 
  0x00, 0x80, 0x00, 0xC0, 0x87, 0x48, 0x21, 0x24, 0x15, 0x88, 0x3F, 0x00, 
  0x60, 0x00, 0x20, 0xB3, 0x89, 0xFF, 0xFF, 0xEB, 0xFE, 0x96, 0xFF, 0x9F, 
  0xC6, 0x19, 0x00, 0x00, 0x08, 0x62, 0x01, 0x00, 0x28, 0x01, 0x94, 0x00, 
  0x29, 0x29, 0x02, 0x00, };
