#define sh21_width 100
#define sh21_height 100
static char sh21_bits[] = {
  0x00, 0x00, 0x00, 0x00, 0x00, 0x00, 0x00, 0x00, 0x00, 0x00, 0x00, 0x00, 
  0x00, 0x80, 0xAE, 0x75, 0x5D, 0xD7, 0x75, 0x5D, 0xD7, 0x75, 0x5D, 0xD7, 
  0x05, 0x00, 0x40, 0x00, 0x00, 0x00, 0x00, 0x00, 0x00, 0x00, 0x00, 0x00, 
  0x00, 0x50, 0x00, 0x10, 0x00, 0x00, 0x00, 0x00, 0x00, 0x00, 0x00, 0x00, 
  0x00, 0x00, 0x80, 0x00, 0x08, 0x00, 0x00, 0x00, 0x00, 0x00, 0x00, 0x00, 
  0x00, 0x00, 0x00, 0x00, 0x00, 0x08, 0x00, 0x00, 0x00, 0x00, 0x00, 0x00, 
  0x00, 0x00, 0x00, 0x00, 0x00, 0x01, 0x04, 0x00, 0x00, 0x00, 0x00, 0xEA, 
  0xFF, 0x08, 0x00, 0x00, 0x00, 0x00, 0x02, 0x04, 0x00, 0x00, 0x00, 0xF0, 
  0xFF, 0xFF, 0xFF, 0x00, 0x00, 0x00, 0x00, 0x00, 0x00, 0x00, 0x00, 0xC0, 
  0xFF, 0xFF, 0xFF, 0xFF, 0x3F, 0x00, 0x00, 0x00, 0x00, 0x02, 0x00, 0x00, 
  0xF8, 0xFF, 0x01, 0x00, 0xF2, 0xFF, 0x01, 0x00, 0x00, 0x04, 0x01, 0x00, 
  0x80, 0xFF, 0x07, 0x00, 0x00, 0x00, 0xFC, 0x0F, 0x00, 0x00, 0x00, 0x02, 
  0x00, 0xC0, 0x3F, 0x00, 0x00, 0x00, 0x00, 0xE0, 0x7F, 0x00, 0x00, 0x00, 
  0x02, 0x00, 0xF8, 0x03, 0x00, 0x42, 0x80, 0x00, 0x00, 0xFE, 0x01, 0x00, 
  0x00, 0x01, 0x00, 0xFF, 0x00, 0x00, 0x00, 0x00, 0x00, 0x00, 0xE0, 0x0F, 
  0x00, 0x00, 0x02, 0x80, 0x1F, 0x00, 0x00, 0x00, 0x00, 0x20, 0x00, 0x80, 
  0x3F, 0x00, 0x00, 0x00, 0xE0, 0x07, 0x40, 0x00, 0x00, 0x00, 0x00, 0x00, 
  0x00, 0x7E, 0x00, 0x04, 0x02, 0xF8, 0x01, 0x00, 0x00, 0x00, 0x10, 0x00, 
  0x00, 0x20, 0xF8, 0x01, 0x04, 0x01, 0x7E, 0x00, 0x00, 0x00, 0x00, 0x00, 
  0x00, 0x10, 0x00, 0xE0, 0x07, 0x00, 0x00, 0x1F, 0x00, 0x00, 0x02, 0x08, 
  0x00, 0x00, 0x00, 0x00, 0xC0, 0x0F, 0x00, 0x82, 0x07, 0x00, 0x00, 0x00, 
  0x00, 0x00, 0x10, 0x00, 0x00, 0x00, 0x1E, 0x00, 0xE0, 0x03, 0x00, 0x08, 
  0x00, 0x00, 0x00, 0x00, 0x00, 0x00, 0x00, 0x7C, 0x00, 0xF2, 0x01, 0x00, 
  0x00, 0x20, 0x00, 0x00, 0x00, 0x00, 0x00, 0x00, 0xF8, 0x00, 0x7D, 0x40, 
  0x40, 0x00, 0x00, 0x00, 0x00, 0x00, 0x20, 0x04, 0x00, 0xE0, 0x02, 0x3E, 
  0x00, 0x00, 0x00, 0x00, 0x00, 0x01, 0x00, 0x00, 0x00, 0x00, 0xD0, 0x06, 
  0x1F, 0x00, 0x00, 0x10, 0x00, 0x00, 0x00, 0x00, 0x00, 0x00, 0x04, 0x22, 
  0x07, 0x0E, 0x00, 0x00, 0x00, 0x20, 0x40, 0x00, 0x00, 0x02, 0x00, 0x00, 
  0xC4, 0x06, 0x06, 0x00, 0x00, 0x00, 0x00, 0x00, 0x00, 0x01, 0x00, 0x00, 
  0x80, 0x98, 0x06, 0x02, 0x00, 0x84, 0x00, 0x00, 0x00, 0x00, 0x00, 0x00, 
  0x20, 0x00, 0xB9, 0x07, 0x01, 0x00, 0x00, 0x00, 0x00, 0x00, 0x02, 0x00, 
  0x00, 0x00, 0x20, 0xF2, 0x06, 0x0A, 0x08, 0x00, 0x00, 0x04, 0x02, 0x80, 
  0x00, 0x00, 0x00, 0x40, 0xEE, 0x01, 0x80, 0x00, 0x00, 0x00, 0x00, 0x00, 
  0x00, 0x80, 0x80, 0x00, 0x88, 0xFC, 0x00, 0x03, 0x00, 0x00, 0x01, 0x00, 
  0x00, 0x00, 0x00, 0x00, 0x00, 0x90, 0xFB, 0x04, 0x42, 0x00, 0x10, 0x00, 
  0x00, 0x00, 0x00, 0x00, 0x00, 0x00, 0x32, 0x3F, 0x00, 0x04, 0x00, 0x00, 
  0x00, 0x00, 0x00, 0x00, 0x08, 0x00, 0x00, 0xC0, 0x3E, 0x04, 0x07, 0x40, 
  0x00, 0x00, 0x00, 0x02, 0x08, 0x00, 0x02, 0x88, 0xCC, 0x0F, 0x04, 0x00, 
  0x00, 0x00, 0x80, 0x40, 0x00, 0x00, 0x00, 0x00, 0x00, 0xB9, 0x07, 0x00, 
  0x01, 0x00, 0x00, 0x08, 0x00, 0x00, 0x00, 0x00, 0x00, 0x20, 0xF3, 0x07, 
  0x00, 0x06, 0x04, 0x00, 0x00, 0x00, 0x00, 0x00, 0x00, 0x00, 0x00, 0xEE, 
  0x01, 0x04, 0x02, 0x00, 0x00, 0x00, 0x00, 0x00, 0x00, 0x00, 0x00, 0xC0, 
  0xFC, 0x00, 0x00, 0x02, 0x00, 0x01, 0x00, 0x01, 0x80, 0x22, 0x08, 0x00, 
  0x98, 0xF9, 0x08, 0x04, 0x01, 0x04, 0x00, 0x00, 0x00, 0xF6, 0xFF, 0x07, 
  0x00, 0x30, 0x7F, 0x00, 0x00, 0x02, 0x00, 0x00, 0x04, 0xE0, 0xFF, 0xFF, 
  0x3F, 0x00, 0xE2, 0x1E, 0x00, 0x04, 0x00, 0x00, 0x00, 0x00, 0xF8, 0x1F, 
  0x91, 0xFF, 0x81, 0xCC, 0x1F, 0x00, 0x04, 0x87, 0x00, 0x00, 0x00, 0xFE, 
  0x01, 0x00, 0xF8, 0x8F, 0x98, 0x0F, 0x00, 0x00, 0x04, 0x00, 0x00, 0x80, 
  0x3F, 0x00, 0x00, 0x80, 0x3F, 0xF3, 0x03, 0x00, 0x00, 0x03, 0x40, 0x20, 
  0xE0, 0x03, 0x00, 0x00, 0x00, 0x7C, 0xF6, 0x01, 0x04, 0x04, 0x02, 0x00, 
  0x00, 0xF8, 0x01, 0x00, 0x00, 0x00, 0xF8, 0xFC, 0x01, 0x00, 0x04, 0x06, 
  0x00, 0x00, 0x78, 0x00, 0x00, 0x00, 0x00, 0xE0, 0x7D, 0x00, 0x00, 0x00, 
  0x12, 0x00, 0x00, 0x3E, 0x00, 0x00, 0x00, 0x00, 0x80, 0x3F, 0x02, 0x00, 
  0x00, 0x02, 0x00, 0x00, 0x0E, 0x00, 0x00, 0x00, 0x00, 0x00, 0x1F, 0x00, 
  0x00, 0x04, 0x00, 0x20, 0x80, 0x0F, 0x00, 0x00, 0x00, 0x00, 0x00, 0x1F, 
  0x00, 0x00, 0x00, 0x07, 0x00, 0xE0, 0x1F, 0x00, 0x00, 0x00, 0x00, 0x00, 
  0x07, 0x00, 0x04, 0x04, 0x06, 0x00, 0xE0, 0x7F, 0x00, 0x00, 0x00, 0x00, 
  0xE0, 0x03, 0x00, 0x00, 0x04, 0x01, 0x00, 0xF0, 0xF3, 0x00, 0x00, 0x00, 
  0x00, 0xF0, 0x11, 0x00, 0x00, 0x00, 0x02, 0x00, 0xF8, 0xF6, 0x01, 0x00, 
  0x00, 0x00, 0xFC, 0x00, 0x00, 0x00, 0x04, 0x02, 0x02, 0xFC, 0xCE, 0x0F, 
  0x00, 0x00, 0x00, 0x3F, 0x00, 0x40, 0x00, 0x00, 0x02, 0x00, 0xFE, 0x19, 
  0x7F, 0x00, 0x00, 0xE0, 0x0F, 0x00, 0x00, 0x00, 0x00, 0x42, 0x00, 0x3F, 
  0x01, 0xFE, 0x07, 0x00, 0xFC, 0x07, 0x40, 0x00, 0x00, 0x04, 0x05, 0x80, 
  0x67, 0x06, 0xF0, 0xFF, 0xFF, 0xFF, 0x00, 0x00, 0x08, 0x02, 0x04, 0x02, 
  0xC0, 0x6F, 0x84, 0x80, 0xFF, 0xFF, 0x1F, 0x00, 0x00, 0x00, 0x00, 0x00, 
  0x00, 0xE0, 0xDB, 0x00, 0x00, 0xD0, 0xBB, 0x01, 0x00, 0x00, 0x00, 0x00, 
  0x00, 0x07, 0xF0, 0x1B, 0x01, 0x00, 0x00, 0x00, 0x00, 0x04, 0x00, 0x00, 
  0x00, 0x04, 0x02, 0xF8, 0x27, 0x00, 0x00, 0x00, 0x00, 0x00, 0x00, 0x00, 
  0x00, 0x00, 0x00, 0x02, 0x7C, 0x44, 0x00, 0x00, 0x00, 0x00, 0x00, 0x00, 
  0x04, 0x04, 0x00, 0x04, 0x01, 0xFE, 0x19, 0x00, 0x00, 0x00, 0x00, 0x00, 
  0x00, 0x00, 0x00, 0x00, 0x00, 0x06, 0x9F, 0x21, 0x00, 0x00, 0x00, 0x00, 
  0x00, 0x00, 0x00, 0x00, 0x00, 0x04, 0x80, 0x37, 0x03, 0x00, 0x00, 0x00, 
  0x01, 0x04, 0x02, 0x01, 0x80, 0x40, 0x00, 0xC3, 0x6F, 0x04, 0x00, 0x40, 
  0x00, 0x00, 0x00, 0x00, 0x00, 0x04, 0x00, 0x04, 0xE4, 0x8D, 0x04, 0x20, 
  0x00, 0x04, 0x00, 0x00, 0x00, 0x00, 0x00, 0x00, 0x00, 0xF3, 0x9B, 0x00, 
  0x00, 0x00, 0x00, 0x00, 0x00, 0x00, 0x00, 0x00, 0x00, 0x04, 0xFA, 0x33, 
  0x00, 0x00, 0x00, 0x00, 0x80, 0x00, 0x00, 0x00, 0x00, 0x00, 0x00, 0x7C, 
  0x46, 0x00, 0x00, 0x02, 0x00, 0x00, 0x00, 0x20, 0x40, 0x00, 0x00, 0x04, 
  0xFF, 0x0C, 0x00, 0x00, 0x08, 0x08, 0x00, 0x00, 0x00, 0x00, 0x00, 0x00, 
  0x00, 0x9E, 0x01, 0x00, 0x00, 0x00, 0x00, 0x00, 0x40, 0x00, 0x00, 0x00, 
  0x00, 0x04, 0x3F, 0x13, 0x00, 0x02, 0x00, 0x00, 0x01, 0x00, 0x20, 0x00, 
  0x20, 0x00, 0x06, 0x6E, 0x04, 0x40, 0x00, 0x00, 0x00, 0x40, 0x00, 0x00, 
  0x00, 0x00, 0x01, 0x06, 0x5E, 0x08, 0x00, 0x00, 0x10, 0x00, 0x00, 0x00, 
  0x00, 0x00, 0x00, 0x80, 0x07, 0xBE, 0x00, 0x08, 0x00, 0x00, 0x00, 0x00, 
  0x00, 0x02, 0x08, 0x00, 0xE0, 0x02, 0xF2, 0x00, 0x00, 0x00, 0x00, 0x00, 
  0x00, 0x04, 0x00, 0x00, 0x00, 0xF0, 0x00, 0xF1, 0x01, 0x00, 0x20, 0x00, 
  0x80, 0x00, 0x00, 0x00, 0x00, 0x00, 0xF8, 0x04, 0xC2, 0x07, 0x00, 0x40, 
  0x00, 0x00, 0x00, 0x00, 0x00, 0x00, 0x00, 0x3C, 0x00, 0x00, 0x0F, 0x00, 
  0x00, 0x00, 0x00, 0x00, 0x00, 0x00, 0x00, 0x02, 0x1F, 0x00, 0x02, 0x3F, 
  0x20, 0x00, 0x00, 0x00, 0x01, 0x04, 0x00, 0x20, 0xC0, 0x0F, 0x00, 0x02, 
  0xFC, 0x00, 0x00, 0x20, 0x00, 0x00, 0x00, 0x00, 0x00, 0xF0, 0x03, 0x04, 
  0x00, 0xF0, 0x03, 0x00, 0x00, 0x00, 0x00, 0x00, 0x40, 0x00, 0xFC, 0x00, 
  0x00, 0x02, 0xC0, 0x0F, 0x01, 0x00, 0x00, 0x00, 0x00, 0x01, 0x00, 0x3F, 
  0x00, 0x00, 0x02, 0x00, 0x3F, 0x00, 0x04, 0x08, 0x20, 0x00, 0x00, 0xC0, 
  0x1F, 0x00, 0x00, 0x00, 0x00, 0xFE, 0x01, 0x00, 0x00, 0x00, 0x00, 0x00, 
  0xF8, 0x07, 0x00, 0x04, 0x02, 0x00, 0xF0, 0x0F, 0x00, 0x00, 0x00, 0x00, 
  0x00, 0xFF, 0x00, 0x00, 0x00, 0x02, 0x00, 0xC0, 0xFF, 0x01, 0x00, 0x00, 
  0x00, 0xE8, 0x3F, 0x00, 0x00, 0x00, 0x02, 0x00, 0x00, 0xFE, 0x2F, 0x00, 
  0x00, 0xC0, 0xFF, 0x03, 0x00, 0x00, 0x00, 0x02, 0x00, 0x00, 0xF0, 0xFF, 
  0xB7, 0xA9, 0xFE, 0xFF, 0x00, 0x00, 0x00, 0x00, 0x06, 0x00, 0x00, 0x00, 
  0xFE, 0xFF, 0xFF, 0xFF, 0x07, 0x00, 0x00, 0x00, 0x00, 0x00, 0x00, 0x00, 
  0x00, 0x40, 0xFF, 0xFF, 0x3F, 0x00, 0x00, 0x00, 0x00, 0x00, 0x04, 0x00, 
  0x00, 0x00, 0x00, 0x00, 0x02, 0x00, 0x00, 0x00, 0x00, 0x00, 0x00, 0x00, 
  0x00, 0x00, 0x00, 0x00, 0x00, 0x00, 0x00, 0x00, 0x00, 0x00, 0x00, 0x00, 
  0x20, 0x00, 0x00, 0x00, 0x00, 0x00, 0x00, 0x00, 0x00, 0x00, 0x00, 0x00, 
  0x00, 0x20, 0x00, 0x00, 0x00, 0x00, 0x00, 0x00, 0x00, 0x00, 0x00, 0x00, 
  0x10, 0x00, 0x00, 0x1D, 0x2A, 0x81, 0x81, 0x12, 0x28, 0x81, 0x81, 0x12, 
  0x28, 0x09, 0x00, 0x00, 0x40, 0x81, 0x14, 0x14, 0x48, 0x81, 0x14, 0x14, 
  0x48, 0x81, 0x00, 0x00, };
