#define sh22_width 100
#define sh22_height 100
static char sh22_bits[] = {
  0x00, 0x20, 0x08, 0x09, 0x02, 0x24, 0x28, 0x49, 0x12, 0x21, 0x22, 0x00, 
  0x00, 0x80, 0x97, 0xE5, 0xFF, 0xFD, 0xEB, 0x67, 0x9B, 0xB6, 0x5F, 0x95, 
  0x1D, 0x00, 0x20, 0x00, 0xC0, 0x1F, 0x22, 0x24, 0xA2, 0x88, 0x8A, 0x3E, 
  0x00, 0x20, 0x00, 0x20, 0x00, 0xE0, 0x3F, 0x00, 0x00, 0x00, 0x00, 0x00, 
  0x3C, 0x00, 0xC0, 0x00, 0x08, 0x00, 0xF0, 0x7E, 0x00, 0x01, 0x08, 0x20, 
  0x00, 0x78, 0x00, 0x00, 0x00, 0x04, 0x00, 0x70, 0xFB, 0x00, 0x00, 0x00, 
  0x00, 0x00, 0xF0, 0x00, 0x00, 0x02, 0x04, 0x00, 0xB8, 0xF9, 0x05, 0x00, 
  0x00, 0x00, 0x00, 0xE0, 0x00, 0x00, 0x02, 0x00, 0x00, 0xBC, 0xDC, 0x03, 
  0x00, 0x00, 0x00, 0x20, 0xC0, 0x01, 0x00, 0x02, 0x02, 0x00, 0x5C, 0xE6, 
  0x07, 0x00, 0x00, 0x01, 0x08, 0x80, 0x03, 0x00, 0x00, 0x00, 0x00, 0x1E, 
  0x31, 0x0F, 0x40, 0x00, 0x00, 0x00, 0x84, 0x03, 0x00, 0x04, 0x02, 0x00, 
  0x0F, 0x98, 0x1F, 0x00, 0x00, 0x00, 0x00, 0x00, 0x07, 0x00, 0x04, 0x00, 
  0x00, 0x07, 0xCC, 0x3F, 0x00, 0x01, 0x00, 0x00, 0x00, 0x0E, 0x00, 0x04, 
  0x00, 0x80, 0x13, 0xC4, 0x7E, 0x00, 0x10, 0x80, 0x10, 0x00, 0x1E, 0x00, 
  0x04, 0x01, 0x80, 0x03, 0x30, 0xF7, 0x00, 0x00, 0x00, 0x00, 0x00, 0x1C, 
  0x00, 0x00, 0x00, 0xC0, 0x01, 0x80, 0xF9, 0x01, 0x00, 0x00, 0x00, 0x20, 
  0x1C, 0x00, 0x04, 0x01, 0xE0, 0x01, 0x80, 0xD8, 0x03, 0x00, 0x00, 0x00, 
  0x00, 0x38, 0x00, 0x04, 0x00, 0xE0, 0x00, 0x60, 0xE6, 0x07, 0x00, 0x00, 
  0x80, 0x00, 0x38, 0x00, 0x00, 0x02, 0xE0, 0x00, 0x00, 0x62, 0x0F, 0x00, 
  0x00, 0x00, 0x00, 0x70, 0x00, 0x04, 0x00, 0x70, 0x00, 0x00, 0xB9, 0x1F, 
  0x00, 0x00, 0x00, 0x00, 0xF0, 0x00, 0x00, 0x01, 0x70, 0x10, 0x00, 0x88, 
  0x3F, 0x04, 0x04, 0x00, 0x00, 0xE0, 0x00, 0x04, 0x00, 0x38, 0x00, 0x00, 
  0xE0, 0x7E, 0x00, 0x00, 0x01, 0x00, 0xE0, 0x00, 0x00, 0x01, 0x38, 0x00, 
  0x00, 0x24, 0xF6, 0x00, 0x00, 0x00, 0x00, 0xC0, 0x00, 0x04, 0x00, 0x3C, 
  0x00, 0x10, 0x10, 0xFB, 0x01, 0x10, 0x00, 0x10, 0xC0, 0x01, 0x04, 0x02, 
  0x1C, 0x00, 0x00, 0x80, 0xF8, 0x03, 0x00, 0x00, 0x00, 0xC0, 0x01, 0x04, 
  0x00, 0x1C, 0x01, 0x02, 0xC0, 0xCC, 0x07, 0x08, 0x00, 0x00, 0x80, 0x03, 
  0x00, 0x02, 0x0C, 0x00, 0x00, 0x00, 0x66, 0x0F, 0x00, 0x00, 0x01, 0x80, 
  0x03, 0x04, 0x00, 0x0E, 0x00, 0x00, 0x00, 0xB1, 0x1F, 0x00, 0x00, 0x00, 
  0x02, 0x03, 0x04, 0x01, 0x2E, 0x00, 0x00, 0x00, 0xD8, 0x1F, 0x00, 0x10, 
  0x00, 0x00, 0x07, 0x04, 0x00, 0x07, 0x04, 0x00, 0x02, 0xE4, 0x39, 0x00, 
  0x00, 0x00, 0x20, 0x07, 0x00, 0x02, 0x07, 0x00, 0x00, 0x00, 0xE0, 0x78, 
  0x00, 0x00, 0x00, 0x00, 0x07, 0x04, 0x00, 0x07, 0x00, 0x40, 0x00, 0x70, 
  0x70, 0x04, 0x00, 0x10, 0x00, 0x0E, 0x00, 0x02, 0x07, 0x00, 0x00, 0x00, 
  0x78, 0xE0, 0x00, 0x08, 0x00, 0x00, 0x06, 0x04, 0x00, 0x23, 0x00, 0x08, 
  0x00, 0x38, 0xC0, 0x01, 0x00, 0x00, 0x00, 0x0E, 0x04, 0x81, 0x03, 0x00, 
  0x00, 0x00, 0x3C, 0xC0, 0x01, 0x00, 0x01, 0x00, 0x0E, 0x00, 0x80, 0x03, 
  0x00, 0x00, 0x20, 0x1C, 0xC0, 0x01, 0x00, 0x00, 0x08, 0x0E, 0x04, 0x82, 
  0x03, 0x02, 0x00, 0x00, 0x1C, 0x80, 0x03, 0x00, 0x00, 0x00, 0x0C, 0x04, 
  0x80, 0x01, 0x10, 0x00, 0x00, 0x0E, 0x80, 0x03, 0x04, 0x00, 0x00, 0x1C, 
  0x04, 0x82, 0x03, 0x00, 0x00, 0x00, 0x0E, 0x00, 0x03, 0x00, 0x00, 0x00, 
  0x1C, 0x00, 0xC0, 0x01, 0x00, 0x00, 0x00, 0x06, 0x00, 0x87, 0x00, 0x00, 
  0x80, 0x1C, 0x04, 0xC1, 0x01, 0x00, 0x80, 0x00, 0x07, 0x00, 0x07, 0x00, 
  0x20, 0x00, 0x18, 0x04, 0xC0, 0x01, 0x20, 0x00, 0x00, 0x07, 0x00, 0x07, 
  0x00, 0x00, 0x00, 0x1C, 0x00, 0xC2, 0x01, 0x00, 0x00, 0x01, 0x07, 0x00, 
  0x06, 0x00, 0x00, 0x00, 0x18, 0x04, 0xC0, 0x01, 0x00, 0x00, 0x80, 0x07, 
  0x00, 0x4E, 0x40, 0x00, 0x01, 0x3C, 0x00, 0xC2, 0x01, 0x00, 0x00, 0x00, 
  0x03, 0x00, 0x0E, 0x00, 0x00, 0x00, 0x18, 0x04, 0xC0, 0x00, 0x00, 0x02, 
  0x00, 0x03, 0x00, 0x0E, 0x00, 0x40, 0x80, 0x38, 0x00, 0xC1, 0x01, 0x02, 
  0x00, 0x00, 0x03, 0x00, 0x0E, 0x00, 0x01, 0x00, 0x38, 0x04, 0xE0, 0x00, 
  0x00, 0x00, 0x80, 0x03, 0x00, 0x0C, 0x01, 0x00, 0x00, 0x38, 0x04, 0xC2, 
  0x01, 0x00, 0x00, 0x90, 0x03, 0x00, 0x1C, 0x00, 0x00, 0x00, 0x38, 0x04, 
  0xC0, 0x01, 0x02, 0x00, 0x00, 0x03, 0x00, 0x1C, 0x00, 0x00, 0x00, 0x38, 
  0x04, 0xC2, 0x00, 0x00, 0x00, 0x80, 0x03, 0x00, 0x0C, 0x00, 0x01, 0x00, 
  0x38, 0x00, 0xC0, 0x00, 0x00, 0x10, 0x80, 0x03, 0x00, 0x0C, 0x00, 0x00, 
  0x20, 0x38, 0x04, 0xC1, 0x01, 0x00, 0x00, 0x80, 0x03, 0x00, 0x1C, 0x00, 
  0x00, 0x00, 0x38, 0x04, 0xC0, 0x00, 0x40, 0x02, 0x88, 0x03, 0x00, 0x0C, 
  0x04, 0x00, 0x00, 0x38, 0x00, 0xC2, 0x01, 0x00, 0x00, 0x80, 0x03, 0x00, 
  0x0E, 0x00, 0x00, 0x00, 0x38, 0x04, 0xC0, 0x20, 0x00, 0x00, 0x00, 0x03, 
  0x00, 0x0C, 0x00, 0x20, 0x00, 0x38, 0x00, 0xC2, 0x01, 0x00, 0x00, 0x80, 
  0x03, 0x00, 0x0E, 0x00, 0x00, 0x00, 0x18, 0x04, 0xC0, 0x01, 0x00, 0x00, 
  0x80, 0x07, 0x00, 0x0E, 0x00, 0x00, 0x00, 0x38, 0x00, 0xC1, 0x00, 0x00, 
  0x40, 0x00, 0x03, 0x00, 0x0E, 0x00, 0x00, 0x02, 0x18, 0x04, 0xC0, 0x01, 
  0x08, 0x00, 0x00, 0x07, 0x00, 0x0E, 0x40, 0x02, 0x00, 0x1C, 0x04, 0xC2, 
  0x01, 0x00, 0x00, 0x00, 0x07, 0x00, 0x06, 0x00, 0x00, 0x00, 0x38, 0x04, 
  0x80, 0x01, 0x00, 0x00, 0x00, 0x06, 0x00, 0x07, 0x00, 0x00, 0x80, 0x18, 
  0x04, 0xC2, 0x01, 0x00, 0x00, 0x00, 0x0E, 0x00, 0x07, 0x00, 0x20, 0x00, 
  0x1C, 0x00, 0xC0, 0x03, 0x00, 0x00, 0x04, 0x0E, 0x80, 0x03, 0x04, 0x00, 
  0x00, 0x1C, 0x04, 0x81, 0x41, 0x00, 0x02, 0x00, 0x0E, 0x80, 0x13, 0x00, 
  0x00, 0x00, 0x1C, 0x04, 0x80, 0x03, 0x00, 0x20, 0x00, 0x1E, 0x80, 0x03, 
  0x00, 0x20, 0x20, 0x1C, 0x04, 0x82, 0x03, 0x00, 0x00, 0x00, 0x1C, 0xC0, 
  0x03, 0x20, 0x00, 0x00, 0x0C, 0x00, 0x00, 0x03, 0x08, 0x00, 0x00, 0x3C, 
  0xC0, 0x01, 0x00, 0x00, 0x00, 0x0E, 0x04, 0x02, 0x03, 0x00, 0x00, 0x00, 
  0x38, 0xE0, 0x00, 0x00, 0x00, 0x00, 0x0E, 0x00, 0x00, 0x07, 0x00, 0x00, 
  0x00, 0x70, 0xE0, 0x00, 0x04, 0x00, 0x00, 0x0E, 0x00, 0x01, 0x07, 0x40, 
  0x02, 0x08, 0xF0, 0x70, 0x00, 0x00, 0x10, 0x00, 0x07, 0x04, 0x00, 0x07, 
  0x00, 0x00, 0x00, 0xE0, 0x78, 0x00, 0x00, 0x00, 0x00, 0x06, 0x04, 0x02, 
  0x27, 0x00, 0x00, 0x00, 0xE0, 0x38, 0x03, 0x00, 0x00, 0x02, 0x07, 0x04, 
  0x00, 0x0E, 0x00, 0x00, 0x00, 0xC0, 0x9F, 0x01, 0x00, 0x02, 0x00, 0x07, 
  0x04, 0x02, 0x0E, 0x04, 0x00, 0x00, 0x80, 0xCF, 0x04, 0x00, 0x00, 0x00, 
  0x03, 0x00, 0x00, 0x0E, 0x00, 0x20, 0x00, 0x00, 0x7F, 0x02, 0x00, 0x00, 
  0x80, 0x03, 0x04, 0x01, 0x1C, 0x00, 0x00, 0x80, 0x00, 0x3E, 0x13, 0x00, 
  0x00, 0x82, 0x03, 0x00, 0x00, 0x1C, 0x00, 0x00, 0x00, 0x01, 0xFE, 0x19, 
  0x00, 0x00, 0xC0, 0x01, 0x00, 0x02, 0x18, 0x00, 0x00, 0x00, 0x40, 0xF8, 
  0x4C, 0x04, 0x00, 0xC0, 0x01, 0x04, 0x00, 0x38, 0x40, 0x00, 0x00, 0x00, 
  0xF0, 0x26, 0x00, 0x00, 0xC0, 0x01, 0x04, 0x02, 0x38, 0x00, 0x00, 0x01, 
  0x00, 0xE0, 0x33, 0x01, 0x20, 0xE0, 0x00, 0x04, 0x00, 0x70, 0x00, 0x00, 
  0x00, 0x08, 0xC0, 0x9B, 0x01, 0x00, 0xE0, 0x00, 0x04, 0x01, 0x70, 0x88, 
  0x00, 0x00, 0x00, 0x80, 0xCF, 0x04, 0x00, 0xF0, 0x00, 0x00, 0x00, 0xF0, 
  0x00, 0x00, 0x00, 0x00, 0x80, 0x6F, 0x04, 0x00, 0x70, 0x00, 0x04, 0x02, 
  0xE0, 0x00, 0x00, 0x08, 0x00, 0x04, 0x3F, 0x23, 0x02, 0x38, 0x00, 0x00, 
  0x00, 0xC0, 0x01, 0x20, 0x00, 0x00, 0x00, 0xBC, 0x19, 0x00, 0x38, 0x00, 
  0x00, 0x02, 0xC0, 0x01, 0x00, 0x00, 0x00, 0x00, 0xFC, 0x8C, 0x00, 0x3C, 
  0x00, 0x04, 0x00, 0x80, 0x03, 0x00, 0x00, 0x80, 0x00, 0xF0, 0x46, 0x00, 
  0x1C, 0x00, 0x04, 0x01, 0x80, 0x03, 0x00, 0x00, 0x00, 0x00, 0xF0, 0x33, 
  0x02, 0x1E, 0x00, 0x04, 0x00, 0x00, 0x07, 0x00, 0x00, 0x00, 0x00, 0xE0, 
  0x1B, 0x01, 0x0E, 0x00, 0x04, 0x02, 0x00, 0x0F, 0x00, 0x00, 0x00, 0x00, 
  0xC0, 0xDF, 0x08, 0x07, 0x00, 0x00, 0x00, 0x00, 0x0E, 0x01, 0x00, 0x00, 
  0x01, 0x00, 0xEF, 0x84, 0x03, 0x00, 0x00, 0x02, 0x00, 0x1E, 0x00, 0x40, 
  0x20, 0x00, 0x00, 0x3F, 0xC3, 0x03, 0x00, 0x04, 0x02, 0x00, 0x3C, 0x00, 
  0x00, 0x00, 0x80, 0x08, 0xBC, 0xD9, 0x01, 0x00, 0x02, 0x04, 0x00, 0x38, 
  0x40, 0x00, 0x00, 0x00, 0x00, 0xFC, 0xE9, 0x01, 0x00, 0x02, 0x00, 0x00, 
  0x70, 0x00, 0x20, 0x00, 0x00, 0x00, 0xF8, 0xFC, 0x00, 0x00, 0x00, 0x00, 
  0x00, 0xF0, 0x00, 0x00, 0x00, 0x00, 0x00, 0xE0, 0x77, 0x00, 0x00, 0x00, 
  0x00, 0x00, 0x40, 0x00, 0x00, 0x00, 0x00, 0x00, 0x00, 0x29, 0x00, 0x00, 
  0x00, 0x00, 0x00, 0x80, 0x03, 0x00, 0x00, 0x00, 0x00, 0xC0, 0x1F, 0x00, 
  0x50, 0x00, 0x00, 0x18, 0xC1, 0x97, 0x96, 0x65, 0x59, 0x96, 0xA5, 0x1F, 
  0x84, 0x08, 0x00, 0x00, 0x00, 0x00, 0x00, 0x00, 0x00, 0x00, 0x00, 0x00, 
  0x00, 0x00, 0x00, 0x00, };
