#define sh30_width 100
#define sh30_height 100
static char sh30_bits[] = {
  0x00, 0x00, 0x00, 0x00, 0x00, 0x00, 0x00, 0x00, 0x00, 0x00, 0x00, 0x00, 
  0x00, 0x00, 0x21, 0x08, 0x82, 0x20, 0x08, 0x82, 0x20, 0x08, 0x82, 0x20, 
  0x00, 0x00, 0x20, 0x00, 0x00, 0x00, 0x00, 0x00, 0x00, 0x00, 0x00, 0x00, 
  0x00, 0x00, 0x00, 0x10, 0x00, 0x00, 0x00, 0x00, 0x00, 0x00, 0x00, 0x00, 
  0x00, 0x00, 0x40, 0x00, 0x00, 0x00, 0x00, 0x00, 0x00, 0x00, 0x00, 0x00, 
  0x00, 0x00, 0x00, 0x00, 0x00, 0x04, 0x00, 0x00, 0x00, 0x00, 0x00, 0x00, 
  0x00, 0x00, 0x00, 0x00, 0x00, 0x00, 0x02, 0x00, 0x00, 0x00, 0x00, 0x00, 
  0x00, 0x24, 0x49, 0xAA, 0x24, 0x05, 0x00, 0x00, 0x00, 0x00, 0x00, 0x00, 
  0xD8, 0xFF, 0xFF, 0xFF, 0xFF, 0xFF, 0x0F, 0x02, 0x00, 0x00, 0x00, 0x00, 
  0xFC, 0xFF, 0xFF, 0xFF, 0xFF, 0xFF, 0xFF, 0x1F, 0x00, 0x01, 0x00, 0x00, 
  0xE0, 0xFF, 0xFF, 0xDF, 0x9A, 0x11, 0x00, 0x58, 0x1E, 0x04, 0x01, 0x00, 
  0x00, 0xFE, 0xFF, 0x04, 0x00, 0x00, 0x00, 0x00, 0x00, 0x1C, 0x00, 0x01, 
  0x00, 0xC0, 0xFF, 0x03, 0x00, 0x00, 0x00, 0x00, 0x44, 0x00, 0x1C, 0x00, 
  0x00, 0x00, 0xF8, 0x1F, 0x00, 0x00, 0x00, 0x00, 0x00, 0x00, 0x00, 0x1C, 
  0x04, 0x01, 0x00, 0xFF, 0x01, 0x00, 0x00, 0x00, 0x04, 0x00, 0x01, 0x00, 
  0x1C, 0x04, 0x01, 0x80, 0x1F, 0x00, 0x00, 0x08, 0x00, 0x00, 0x08, 0x00, 
  0x00, 0x1C, 0x02, 0x00, 0xF0, 0x07, 0x00, 0x00, 0x00, 0x00, 0x00, 0x00, 
  0x00, 0x80, 0x1C, 0x00, 0x01, 0xFC, 0x00, 0x00, 0x00, 0x00, 0x00, 0x40, 
  0x02, 0x00, 0x00, 0x1C, 0x04, 0x01, 0x7F, 0x00, 0x00, 0x00, 0x02, 0x00, 
  0x00, 0x00, 0x00, 0x80, 0x1C, 0x00, 0x80, 0x0F, 0x80, 0x02, 0x01, 0x00, 
  0x80, 0x00, 0x00, 0x02, 0x00, 0x1C, 0x04, 0xC1, 0x03, 0x00, 0x00, 0x00, 
  0x00, 0x01, 0x00, 0x00, 0x80, 0x00, 0x1C, 0x00, 0xE1, 0x01, 0x00, 0x00, 
  0x20, 0x00, 0x00, 0x04, 0x00, 0x00, 0x00, 0x1C, 0x00, 0xF9, 0x00, 0x01, 
  0x80, 0x00, 0x00, 0x00, 0x00, 0x20, 0x00, 0x04, 0x1C, 0x04, 0x3E, 0x00, 
  0x00, 0x00, 0x00, 0x00, 0x00, 0x00, 0x00, 0x00, 0x00, 0x1C, 0x04, 0x1F, 
  0x02, 0x00, 0x00, 0x00, 0x10, 0x00, 0x00, 0x00, 0x00, 0x00, 0x1C, 0x00, 
  0x0E, 0x00, 0x80, 0x00, 0x08, 0x00, 0x00, 0x00, 0x00, 0x00, 0x00, 0x1C, 
  0x04, 0x07, 0x00, 0x00, 0x00, 0x00, 0x00, 0x00, 0x00, 0x00, 0x00, 0x00, 
  0x1C, 0x00, 0x03, 0x20, 0x00, 0x00, 0x00, 0x00, 0x00, 0x80, 0x01, 0x00, 
  0x00, 0x1C, 0x04, 0x41, 0x00, 0x00, 0x00, 0x00, 0x04, 0x20, 0x00, 0x00, 
  0x04, 0x40, 0x1C, 0x00, 0x00, 0x00, 0x00, 0x00, 0x00, 0x00, 0x00, 0x00, 
  0x00, 0x00, 0x00, 0x1C, 0x04, 0x03, 0x00, 0x04, 0x20, 0x00, 0x00, 0x00, 
  0x01, 0x00, 0x00, 0x00, 0x1C, 0x00, 0x02, 0x01, 0x00, 0x00, 0x00, 0x00, 
  0x00, 0x00, 0x80, 0x00, 0x00, 0x1C, 0x04, 0x01, 0x00, 0x00, 0x00, 0x04, 
  0x80, 0x00, 0x00, 0x00, 0x00, 0x02, 0x1C, 0x04, 0x01, 0x00, 0x00, 0x00, 
  0x40, 0x00, 0x01, 0x00, 0x00, 0x00, 0x80, 0x1C, 0x00, 0x03, 0x00, 0x00, 
  0x00, 0x00, 0x00, 0x00, 0x20, 0x04, 0x00, 0x00, 0x1C, 0x04, 0x00, 0x00, 
  0x40, 0x00, 0x00, 0x00, 0x00, 0x00, 0x00, 0x40, 0x00, 0x1C, 0x04, 0x07, 
  0x08, 0x00, 0x00, 0x00, 0x00, 0x00, 0x00, 0x00, 0x00, 0x00, 0x1C, 0x00, 
  0x02, 0x00, 0x08, 0x01, 0x00, 0x08, 0x20, 0x00, 0x00, 0x01, 0x00, 0x1C, 
  0x04, 0x01, 0x00, 0x00, 0x40, 0x04, 0x00, 0x00, 0x00, 0x10, 0x00, 0x04, 
  0x1C, 0x00, 0x41, 0x00, 0x00, 0x00, 0x00, 0x00, 0x80, 0x08, 0x00, 0x00, 
  0x00, 0x1C, 0x04, 0x02, 0x00, 0x00, 0x00, 0x00, 0xE0, 0xFF, 0x1F, 0x00, 
  0x00, 0x00, 0x1C, 0x00, 0x01, 0x00, 0x00, 0x00, 0x80, 0xFF, 0xFF, 0x1F, 
  0x00, 0x00, 0x40, 0x0C, 0x04, 0x06, 0x40, 0x00, 0x00, 0xF0, 0xFF, 0x57, 
  0x1E, 0x02, 0x08, 0x00, 0x1C, 0x00, 0x01, 0x00, 0x40, 0x20, 0xFE, 0x07, 
  0x00, 0x1C, 0x00, 0x00, 0x00, 0x1C, 0x04, 0x01, 0x00, 0x00, 0x00, 0x7F, 
  0x00, 0x00, 0x0C, 0x00, 0x00, 0x00, 0x0C, 0x04, 0x01, 0x02, 0x00, 0xC0, 
  0x0F, 0x00, 0x00, 0x1C, 0x00, 0x00, 0x00, 0x1C, 0x00, 0x03, 0x00, 0x04, 
  0xF0, 0x03, 0x00, 0x00, 0x1C, 0x40, 0x00, 0x00, 0x1C, 0x04, 0x12, 0x00, 
  0x00, 0xF8, 0x00, 0x00, 0x00, 0x1C, 0x00, 0x80, 0x08, 0x0C, 0x04, 0x01, 
  0x00, 0x00, 0x3E, 0x00, 0x00, 0x00, 0x0C, 0x00, 0x00, 0x00, 0x1E, 0x00, 
  0x02, 0x00, 0x00, 0x0E, 0x00, 0x00, 0x00, 0x1C, 0x00, 0x00, 0x04, 0x0C, 
  0x04, 0x01, 0x00, 0x88, 0x0F, 0x00, 0x00, 0x00, 0x1C, 0x80, 0x00, 0x00, 
  0x0E, 0x00, 0x11, 0x00, 0x80, 0x0F, 0x00, 0x00, 0x00, 0x0C, 0x00, 0x00, 
  0x00, 0x0C, 0x04, 0x03, 0x80, 0xE0, 0x0F, 0x00, 0x00, 0x00, 0x0C, 0x00, 
  0x00, 0x00, 0x0C, 0x00, 0x00, 0x02, 0xF0, 0x3F, 0x00, 0x00, 0x00, 0x0E, 
  0x01, 0x08, 0x00, 0x0C, 0x04, 0x0B, 0x00, 0xF0, 0x3B, 0x00, 0x00, 0x00, 
  0x0E, 0x00, 0x00, 0x00, 0x0E, 0x00, 0x00, 0x00, 0x7C, 0xFA, 0x00, 0x00, 
  0x00, 0x0E, 0x00, 0x00, 0x00, 0x0E, 0x04, 0x01, 0x00, 0xFE, 0xF6, 0x00, 
  0x00, 0x00, 0x8E, 0x00, 0x00, 0x00, 0x0E, 0x04, 0x01, 0x00, 0x9F, 0xCC, 
  0x01, 0x00, 0x00, 0x0E, 0x00, 0x00, 0x00, 0x0E, 0x00, 0x02, 0x80, 0xBF, 
  0xD1, 0x03, 0x00, 0x00, 0x0E, 0x00, 0x00, 0x00, 0x0E, 0x04, 0x05, 0xC0, 
  0x37, 0x03, 0x0F, 0x00, 0x00, 0x07, 0x40, 0x00, 0x08, 0x0E, 0x04, 0x03, 
  0xE0, 0x67, 0x40, 0x0F, 0x00, 0x00, 0x07, 0x00, 0x80, 0x00, 0x0E, 0x00, 
  0x00, 0xE0, 0x9D, 0x00, 0x3C, 0x00, 0x00, 0x07, 0x00, 0x02, 0x00, 0x06, 
  0x04, 0x05, 0xF8, 0x19, 0x00, 0x3C, 0x00, 0x00, 0x03, 0x00, 0x00, 0x00, 
  0x0F, 0x00, 0x01, 0x7C, 0x23, 0x00, 0x70, 0x00, 0x80, 0x23, 0x00, 0x00, 
  0x00, 0x06, 0x04, 0x02, 0x7E, 0x46, 0x00, 0xF0, 0x00, 0x80, 0x03, 0x01, 
  0x00, 0x20, 0x07, 0x00, 0x05, 0xDF, 0x0C, 0x00, 0xE0, 0x03, 0x80, 0x03, 
  0x00, 0x00, 0x80, 0x07, 0x04, 0x82, 0x9F, 0x11, 0x00, 0x80, 0x03, 0xC0, 
  0x01, 0x04, 0x00, 0x00, 0x07, 0x00, 0x81, 0x37, 0x02, 0x08, 0x80, 0x07, 
  0xE0, 0x01, 0x00, 0x20, 0x00, 0x07, 0x00, 0xE1, 0x67, 0x02, 0x00, 0x00, 
  0x0F, 0xE0, 0x00, 0x00, 0x00, 0x00, 0x07, 0x04, 0xE2, 0xCD, 0x04, 0x00, 
  0x00, 0x3C, 0xE0, 0x20, 0x00, 0x00, 0x00, 0x03, 0x04, 0xF9, 0x19, 0x00, 
  0x00, 0x00, 0x38, 0x70, 0x00, 0x00, 0x00, 0x80, 0x03, 0x00, 0x7D, 0x23, 
  0x00, 0x00, 0x00, 0xF8, 0x78, 0x00, 0x00, 0x00, 0x84, 0x03, 0x00, 0x7E, 
  0x46, 0x00, 0x80, 0x10, 0xF0, 0x3C, 0x01, 0x10, 0x02, 0x80, 0x03, 0x04, 
  0xCF, 0x0C, 0x00, 0x00, 0x00, 0xC0, 0x9F, 0x00, 0x00, 0x00, 0xC0, 0x03, 
  0x04, 0x9F, 0x01, 0x00, 0x04, 0x20, 0xC0, 0xEF, 0x04, 0x00, 0x00, 0xC0, 
  0x01, 0x00, 0x3F, 0x11, 0x40, 0x00, 0x00, 0x02, 0x6F, 0x02, 0x00, 0x00, 
  0xC0, 0x01, 0x00, 0x67, 0x02, 0x00, 0x00, 0x00, 0x00, 0x3F, 0x13, 0x21, 
  0x40, 0xC0, 0x01, 0x04, 0xDF, 0x00, 0x08, 0x00, 0x00, 0x10, 0xFC, 0x0D, 
  0x00, 0x00, 0xC0, 0x00, 0x04, 0x3D, 0x00, 0x00, 0x00, 0x00, 0x00, 0xF8, 
  0x44, 0x00, 0x00, 0xE0, 0x00, 0x00, 0x78, 0x08, 0x00, 0x00, 0x00, 0x00, 
  0xF8, 0x27, 0x00, 0x01, 0xE0, 0x00, 0x00, 0xF1, 0x00, 0x00, 0x08, 0x10, 
  0x00, 0xF0, 0x33, 0x01, 0x00, 0x70, 0x00, 0x04, 0xE1, 0x00, 0x00, 0x00, 
  0x00, 0x00, 0xC0, 0x9F, 0x81, 0x00, 0x70, 0x00, 0x04, 0xC0, 0x03, 0x20, 
  0x00, 0x00, 0x04, 0xC0, 0x4F, 0x00, 0x00, 0x78, 0x00, 0x00, 0x81, 0x07, 
  0x00, 0x00, 0x00, 0x00, 0x80, 0x6F, 0x06, 0x02, 0x38, 0x00, 0x00, 0x01, 
  0x0F, 0x00, 0x40, 0x01, 0x00, 0x01, 0xBF, 0x13, 0x00, 0x38, 0x00, 0x04, 
  0x00, 0x1E, 0x00, 0x00, 0x00, 0x00, 0x00, 0xBC, 0x19, 0x00, 0x3C, 0x00, 
  0x04, 0x01, 0x3C, 0x00, 0x00, 0x00, 0x00, 0x00, 0xFC, 0x04, 0x80, 0x1C, 
  0x00, 0x04, 0x01, 0x78, 0x04, 0x00, 0x40, 0x00, 0x00, 0xF0, 0x47, 0x00, 
  0x0E, 0x00, 0x04, 0x00, 0xF0, 0x00, 0x02, 0x00, 0x80, 0x00, 0xF0, 0x33, 
  0x01, 0x0E, 0x00, 0x00, 0x01, 0xE0, 0x00, 0x00, 0x00, 0x01, 0x04, 0xE0, 
  0x9B, 0x01, 0x07, 0x00, 0x04, 0x01, 0xC0, 0x03, 0x00, 0x00, 0x00, 0x00, 
  0x80, 0xCF, 0x00, 0x07, 0x00, 0x00, 0x00, 0x80, 0x07, 0x00, 0x00, 0x00, 
  0x00, 0x80, 0x7F, 0x86, 0x03, 0x00, 0x00, 0x02, 0x00, 0x0F, 0x10, 0x08, 
  0x00, 0x00, 0x00, 0x3F, 0xD2, 0x03, 0x00, 0x02, 0x02, 0x00, 0x1E, 0x00, 
  0x80, 0x00, 0x00, 0x00, 0xBC, 0xF9, 0x01, 0x00, 0x02, 0x04, 0x00, 0x3C, 
  0x01, 0x00, 0x20, 0x00, 0x00, 0xFC, 0xEC, 0x00, 0x00, 0x02, 0x00, 0x00, 
  0x38, 0x00, 0x00, 0x00, 0x20, 0x00, 0xF0, 0xF6, 0x00, 0x00, 0x00, 0x04, 
  0x00, 0xF0, 0x00, 0x00, 0x00, 0x00, 0x01, 0xF0, 0x3F, 0x00, 0x00, 0x00, 
  0x18, 0x00, 0xE0, 0x01, 0x00, 0x00, 0x00, 0x00, 0xC0, 0x3F, 0x00, 0x40, 
  0x00, 0x60, 0x00, 0xC0, 0x87, 0x48, 0x61, 0x21, 0x89, 0xC5, 0x3F, 0x00, 
  0x30, 0x00, 0x40, 0xBB, 0xF9, 0xB7, 0xFF, 0xAB, 0xF5, 0xFF, 0xB6, 0xBF, 
  0xC9, 0x05, 0x00, 0x00, 0x00, 0x02, 0x25, 0x00, 0x28, 0x09, 0x00, 0xA4, 
  0x05, 0x22, 0x02, 0x00, };
