#define sh31_width 100
#define sh31_height 100
static char sh31_bits[] = {
  0x00, 0xB5, 0x6D, 0x5F, 0x57, 0x95, 0x57, 0x77, 0x6B, 0xD7, 0xB6, 0x01, 
  0x00, 0x40, 0x02, 0xC0, 0x9F, 0xA4, 0x69, 0xA4, 0x84, 0x8A, 0x3E, 0x00, 
  0x34, 0x00, 0x20, 0x00, 0xC0, 0x3F, 0x04, 0x81, 0x40, 0x04, 0x48, 0x3C, 
  0x00, 0x00, 0x00, 0x10, 0x00, 0xE0, 0x3F, 0x00, 0x00, 0x00, 0x00, 0x00, 
  0x78, 0x00, 0x80, 0x00, 0x00, 0x00, 0x70, 0xFE, 0x10, 0x00, 0x00, 0x00, 
  0x40, 0xF0, 0x00, 0x00, 0x00, 0x0C, 0x00, 0x78, 0xF3, 0x00, 0x00, 0x00, 
  0x20, 0x00, 0xE0, 0x00, 0x00, 0x02, 0x02, 0x00, 0xBC, 0xF9, 0x03, 0x00, 
  0x00, 0x00, 0x00, 0xC0, 0x01, 0x00, 0x02, 0x02, 0x00, 0xDE, 0xCC, 0x07, 
  0x04, 0x04, 0x00, 0x00, 0xC0, 0x03, 0x00, 0x00, 0x02, 0x00, 0x0F, 0xE6, 
  0x0F, 0x00, 0x00, 0x00, 0x00, 0x80, 0x07, 0x00, 0x04, 0x00, 0x80, 0x07, 
  0x30, 0x0F, 0x00, 0x01, 0x00, 0x00, 0x80, 0x07, 0x00, 0x00, 0x01, 0xC0, 
  0x03, 0x98, 0x3F, 0x02, 0x00, 0x01, 0x00, 0x00, 0x0F, 0x00, 0x00, 0x02, 
  0xE0, 0x01, 0xC4, 0x7C, 0x80, 0x00, 0x00, 0x02, 0x00, 0x0E, 0x00, 0x00, 
  0x02, 0xF0, 0x00, 0x64, 0xFE, 0x00, 0x00, 0x00, 0x00, 0x00, 0x1C, 0x00, 
  0x00, 0x02, 0x78, 0x00, 0x20, 0xF3, 0x01, 0x10, 0x80, 0x00, 0x00, 0x1C, 
  0x00, 0x00, 0x02, 0x3C, 0x00, 0x80, 0xF9, 0x03, 0x00, 0x00, 0x40, 0x00, 
  0x38, 0x00, 0x00, 0x00, 0x1E, 0x08, 0x80, 0xDC, 0x03, 0x00, 0x00, 0x00, 
  0x00, 0x38, 0x00, 0x04, 0x02, 0x0F, 0x00, 0x00, 0xE6, 0x0F, 0x00, 0x00, 
  0x00, 0x00, 0x30, 0x00, 0x04, 0x82, 0x07, 0x80, 0x00, 0x30, 0x1F, 0x00, 
  0x00, 0x10, 0x00, 0x70, 0x00, 0x00, 0xC0, 0x03, 0x00, 0x88, 0x99, 0x3F, 
  0x02, 0x04, 0x00, 0x10, 0xF0, 0x00, 0x00, 0xE2, 0x01, 0x00, 0x00, 0xC8, 
  0x3D, 0x00, 0x00, 0x00, 0x00, 0xE1, 0x00, 0x00, 0xF2, 0x80, 0x00, 0x00, 
  0x60, 0xFE, 0x00, 0x00, 0x00, 0x00, 0xE0, 0x00, 0x04, 0x7C, 0x00, 0x02, 
  0x00, 0x20, 0xF6, 0x00, 0x00, 0x00, 0x00, 0xC0, 0x00, 0x00, 0x3F, 0x00, 
  0x00, 0x40, 0x80, 0xF9, 0x03, 0x00, 0x08, 0x00, 0xC0, 0x01, 0x00, 0x1E, 
  0x00, 0x00, 0x00, 0x80, 0xD8, 0x07, 0x40, 0x00, 0x02, 0xC0, 0x01, 0x00, 
  0x0E, 0x01, 0x00, 0x00, 0x40, 0xE4, 0x0F, 0x00, 0x00, 0x02, 0x84, 0x03, 
  0x00, 0x06, 0x00, 0x40, 0x00, 0x02, 0xE6, 0x1F, 0x08, 0x08, 0x00, 0x80, 
  0x03, 0x00, 0x02, 0x00, 0x00, 0x00, 0x00, 0x91, 0x1F, 0x00, 0x00, 0x00, 
  0x80, 0x03, 0x00, 0x05, 0x00, 0x00, 0x00, 0x00, 0xE8, 0x3F, 0x00, 0x00, 
  0x00, 0x80, 0x03, 0x04, 0x06, 0x00, 0x00, 0x08, 0x00, 0xF4, 0x71, 0x00, 
  0x00, 0x00, 0x80, 0x07, 0x04, 0x00, 0x20, 0x00, 0x00, 0x00, 0x70, 0x70, 
  0x00, 0x00, 0x00, 0x00, 0x03, 0x00, 0x03, 0x00, 0x00, 0x00, 0x00, 0x3C, 
  0xE0, 0x00, 0x10, 0x10, 0x00, 0x07, 0x00, 0x02, 0x00, 0x08, 0x00, 0x20, 
  0x3C, 0xE0, 0x09, 0x00, 0x00, 0x00, 0x07, 0x00, 0x04, 0x00, 0x00, 0x00, 
  0x00, 0x0F, 0xC0, 0x01, 0x00, 0x00, 0x00, 0x06, 0x00, 0x03, 0x00, 0x00, 
  0x00, 0x04, 0x0F, 0x80, 0x03, 0x00, 0x01, 0x00, 0x0F, 0x00, 0x02, 0x00, 
  0x08, 0x20, 0xC0, 0x03, 0x80, 0x43, 0x00, 0x00, 0x02, 0x07, 0x04, 0x06, 
  0x02, 0x00, 0x00, 0xE0, 0x01, 0x80, 0x03, 0x00, 0x00, 0x00, 0x0E, 0x00, 
  0x22, 0x20, 0x00, 0x00, 0xE0, 0x00, 0x00, 0x07, 0x00, 0x00, 0x00, 0x0E, 
  0x00, 0x02, 0x00, 0x00, 0x00, 0xF0, 0x00, 0x00, 0x07, 0x04, 0x00, 0x00, 
  0x0E, 0x00, 0x00, 0x00, 0x00, 0x00, 0x3C, 0x00, 0x00, 0x07, 0x00, 0x10, 
  0x00, 0x0E, 0x00, 0x07, 0x00, 0x80, 0x00, 0x1E, 0x00, 0x00, 0x0E, 0x00, 
  0x00, 0x40, 0x0E, 0x04, 0x02, 0x00, 0x00, 0x00, 0x0E, 0x00, 0x00, 0x0E, 
  0x00, 0x40, 0x00, 0x0E, 0x04, 0x06, 0x01, 0x00, 0x80, 0x0F, 0x00, 0x00, 
  0x0E, 0x00, 0x00, 0x00, 0x0C, 0x00, 0x02, 0x00, 0x00, 0x80, 0x03, 0x00, 
  0x00, 0x0E, 0x80, 0x00, 0x00, 0x0E, 0x00, 0x02, 0x00, 0x01, 0xE0, 0x01, 
  0x00, 0x00, 0x1C, 0x00, 0x00, 0x02, 0x0C, 0x00, 0x82, 0x40, 0x80, 0xF0, 
  0x01, 0x00, 0x00, 0x0C, 0x02, 0x00, 0x40, 0x1C, 0x04, 0x04, 0x00, 0x00, 
  0x78, 0x00, 0x00, 0x00, 0x1C, 0x00, 0x00, 0x00, 0x1C, 0x00, 0x07, 0x00, 
  0x00, 0x3C, 0x00, 0x00, 0x00, 0x1C, 0x00, 0x04, 0x00, 0x1C, 0x00, 0x00, 
  0x00, 0x00, 0x3C, 0x00, 0x00, 0x00, 0x1C, 0x00, 0x00, 0x00, 0x1C, 0x00, 
  0x01, 0x00, 0x00, 0x0E, 0x00, 0x00, 0x00, 0x1C, 0x08, 0x00, 0x00, 0x1C, 
  0x00, 0x06, 0x01, 0x80, 0x0F, 0x00, 0x00, 0x00, 0x1C, 0x00, 0x00, 0x00, 
  0x1C, 0x00, 0x02, 0x00, 0x80, 0x0F, 0x00, 0x00, 0x00, 0x18, 0x00, 0x00, 
  0x00, 0x18, 0x00, 0x04, 0x00, 0xE0, 0x3F, 0x00, 0x00, 0x00, 0x1C, 0x00, 
  0x40, 0x08, 0x1C, 0x04, 0x03, 0x00, 0xF0, 0xFB, 0x00, 0x00, 0x00, 0x3C, 
  0x00, 0x02, 0x00, 0x1C, 0x04, 0x00, 0x20, 0xF8, 0xF3, 0x01, 0x00, 0x00, 
  0x18, 0x00, 0x00, 0x00, 0x1C, 0x00, 0x11, 0x00, 0x7C, 0xEC, 0x07, 0x00, 
  0x00, 0x18, 0x00, 0x00, 0x00, 0x18, 0x00, 0x06, 0x00, 0xFC, 0x89, 0x3F, 
  0x00, 0x00, 0x1C, 0x20, 0x00, 0x00, 0x1C, 0x00, 0x12, 0x00, 0xBF, 0x11, 
  0xFE, 0x03, 0x00, 0x18, 0x00, 0x00, 0x00, 0x1C, 0x04, 0x02, 0x82, 0x7F, 
  0x23, 0xF8, 0xFF, 0x00, 0x3C, 0x04, 0x02, 0x01, 0x38, 0x00, 0x05, 0x80, 
  0x67, 0x04, 0xC0, 0xFF, 0xFF, 0x1F, 0x00, 0x00, 0x00, 0x1C, 0x00, 0x02, 
  0xE0, 0x8F, 0x00, 0x00, 0xFC, 0xFF, 0x1F, 0x00, 0x00, 0x00, 0x38, 0x00, 
  0x00, 0xE0, 0x1B, 0x01, 0x00, 0x20, 0xB5, 0x1E, 0x10, 0x00, 0x40, 0x18, 
  0x00, 0x07, 0xF0, 0x33, 0x00, 0x00, 0x00, 0x00, 0x00, 0x00, 0x00, 0x00, 
  0x1C, 0x00, 0x02, 0xFC, 0x46, 0x00, 0x01, 0x00, 0x00, 0x00, 0x00, 0x00, 
  0x00, 0x3C, 0x00, 0x02, 0xFE, 0x4C, 0x00, 0x00, 0x00, 0x00, 0x00, 0x00, 
  0x10, 0x00, 0x18, 0x04, 0x43, 0x9F, 0x19, 0x00, 0x00, 0x00, 0x20, 0x00, 
  0x00, 0x00, 0x00, 0x1C, 0x00, 0x00, 0x3F, 0x02, 0x10, 0x04, 0x00, 0x00, 
  0x00, 0x00, 0x00, 0x10, 0x38, 0x00, 0x81, 0x6F, 0x02, 0x00, 0x00, 0x40, 
  0x00, 0x00, 0x00, 0x00, 0x00, 0x18, 0x00, 0xE6, 0xEF, 0x00, 0x00, 0x00, 
  0x01, 0x00, 0x04, 0x01, 0x20, 0x00, 0x18, 0x04, 0xE2, 0x99, 0x81, 0x00, 
  0x10, 0x00, 0x04, 0x00, 0x00, 0x00, 0x00, 0x18, 0x00, 0xFA, 0x33, 0x00, 
  0x00, 0x00, 0x00, 0x00, 0x00, 0x40, 0x00, 0x00, 0x38, 0x00, 0x7E, 0x06, 
  0x00, 0x08, 0x00, 0x00, 0x00, 0x00, 0x00, 0x00, 0x00, 0x1C, 0x00, 0xFE, 
  0x4C, 0x00, 0x00, 0x00, 0x00, 0x00, 0x80, 0x00, 0x02, 0x04, 0x18, 0x04, 
  0xDE, 0x01, 0x40, 0x80, 0x00, 0x00, 0x20, 0x00, 0x00, 0x00, 0x00, 0x1C, 
  0x00, 0x3F, 0x13, 0x00, 0x00, 0x02, 0x00, 0x00, 0x00, 0x00, 0x00, 0x00, 
  0x39, 0x00, 0x6F, 0x06, 0x00, 0x00, 0x00, 0x08, 0x00, 0x00, 0x00, 0x80, 
  0x00, 0x18, 0x00, 0x5E, 0x00, 0x00, 0x00, 0x00, 0x00, 0x00, 0x00, 0x08, 
  0x01, 0x04, 0x18, 0x04, 0xBE, 0x00, 0x04, 0x00, 0x80, 0x00, 0x00, 0x04, 
  0x00, 0x00, 0x00, 0x18, 0x00, 0xF9, 0x00, 0x00, 0x04, 0x00, 0x00, 0x00, 
  0x00, 0x80, 0x00, 0x00, 0x38, 0x00, 0xF2, 0x01, 0x00, 0x00, 0x00, 0x00, 
  0x00, 0x00, 0x00, 0x00, 0x80, 0x1C, 0x00, 0xC2, 0x07, 0x00, 0x00, 0x00, 
  0x80, 0x04, 0x00, 0x00, 0x00, 0x00, 0x18, 0x04, 0x82, 0x0F, 0x00, 0x00, 
  0x00, 0x00, 0x40, 0x00, 0x00, 0x00, 0x02, 0x18, 0x00, 0x00, 0x3F, 0x00, 
  0x00, 0x00, 0x00, 0x00, 0x00, 0x10, 0x80, 0x00, 0x38, 0x00, 0x02, 0xFC, 
  0x00, 0x40, 0x80, 0x00, 0x00, 0x40, 0x00, 0x00, 0x00, 0x1C, 0x00, 0x02, 
  0xF8, 0x03, 0x00, 0x00, 0x00, 0x00, 0x00, 0x00, 0x00, 0x00, 0x18, 0x04, 
  0x02, 0xC0, 0x0F, 0x00, 0x00, 0x04, 0x00, 0x08, 0x00, 0x00, 0x00, 0x1C, 
  0x00, 0x02, 0x00, 0xFF, 0x00, 0x00, 0x00, 0x00, 0x00, 0x00, 0x04, 0x00, 
  0x38, 0x00, 0x02, 0x00, 0xFC, 0x07, 0x00, 0x00, 0x08, 0x00, 0x02, 0x00, 
  0x20, 0x18, 0x00, 0x00, 0x00, 0xF0, 0xBF, 0x01, 0x00, 0x00, 0x00, 0x00, 
  0x00, 0x00, 0x1C, 0x04, 0x02, 0x00, 0x00, 0xFF, 0x5F, 0x00, 0x00, 0x00, 
  0x00, 0x00, 0x00, 0x18, 0x00, 0x02, 0x00, 0x00, 0xF0, 0xFF, 0xBF, 0x08, 
  0x00, 0x00, 0x00, 0x00, 0x3C, 0x00, 0x00, 0x00, 0x00, 0x80, 0xFE, 0xFF, 
  0xFF, 0xFF, 0xFF, 0xFF, 0xFF, 0x1F, 0x00, 0x06, 0x00, 0x00, 0x00, 0x60, 
  0xFF, 0xFF, 0xFF, 0xFF, 0xFF, 0xFF, 0x1F, 0x00, 0x06, 0x00, 0x00, 0x00, 
  0x00, 0x00, 0xD0, 0xFE, 0xFF, 0xFF, 0xFF, 0x1F, 0x00, 0x00, 0x00, 0x00, 
  0x00, 0x00, 0x00, 0x00, 0x00, 0x00, 0x00, 0x00, 0x00, 0x00, 0x08, 0x00, 
  0x00, 0x00, 0x00, 0x00, 0x00, 0x00, 0x00, 0x00, 0x00, 0x00, 0x00, 0x08, 
  0x00, 0x00, 0x00, 0x00, 0x00, 0x00, 0x00, 0x00, 0x00, 0x00, 0x00, 0x00, 
  0x20, 0x00, 0x00, 0x00, 0x00, 0x00, 0x00, 0x00, 0x00, 0x00, 0x00, 0x20, 
  0x00, 0x80, 0x01, 0x00, 0x00, 0x00, 0x00, 0x00, 0x00, 0x00, 0x00, 0x00, 
  0x08, 0x00, 0x00, 0xD4, 0x56, 0x6D, 0x66, 0xD5, 0x56, 0x6D, 0x65, 0xD5, 
  0x56, 0x09, 0x00, 0x00, 0x00, 0x00, 0x00, 0x00, 0x00, 0x00, 0x00, 0x00, 
  0x00, 0x00, 0x00, 0x00, };
