#define sh32_width 100
#define sh32_height 100
static char sh32_bits[] = {
  0x00, 0x48, 0x80, 0x04, 0x00, 0x92, 0x44, 0x92, 0x24, 0x29, 0x01, 0x00, 
  0x00, 0x80, 0x9A, 0xBD, 0xFF, 0xFF, 0xB6, 0xBD, 0xAE, 0xEB, 0x7E, 0xF6, 
  0x1D, 0x00, 0x40, 0x00, 0x80, 0x3F, 0x24, 0x8A, 0x41, 0x22, 0x24, 0x7C, 
  0x00, 0xE0, 0x00, 0x20, 0x00, 0xC0, 0x7F, 0x00, 0x00, 0x00, 0x00, 0x00, 
  0x78, 0x00, 0x00, 0x00, 0x10, 0x00, 0xE0, 0xFD, 0x00, 0x00, 0x00, 0x00, 
  0x01, 0xF0, 0x00, 0x00, 0x01, 0x08, 0x00, 0xE0, 0xF7, 0x01, 0x00, 0x00, 
  0x00, 0x00, 0xE0, 0x01, 0x00, 0x06, 0x00, 0x00, 0x70, 0xF3, 0x01, 0x00, 
  0x80, 0x80, 0x00, 0x84, 0x03, 0x00, 0x04, 0x04, 0x00, 0xB8, 0xD8, 0x07, 
  0x10, 0x00, 0x00, 0x00, 0x80, 0x07, 0x00, 0x00, 0x00, 0x00, 0x78, 0xCC, 
  0x0F, 0x00, 0x00, 0x00, 0x40, 0x10, 0x0F, 0x00, 0x04, 0x02, 0x00, 0x1C, 
  0x62, 0x0F, 0x00, 0x00, 0x00, 0x00, 0x00, 0x1E, 0x00, 0x00, 0x00, 0x00, 
  0x0E, 0x30, 0x3F, 0x00, 0x01, 0x00, 0x00, 0x00, 0x3C, 0x00, 0x08, 0x02, 
  0x00, 0x0F, 0x98, 0x3D, 0x82, 0x00, 0x02, 0x00, 0x00, 0x78, 0x00, 0x08, 
  0x02, 0x00, 0x07, 0xC4, 0xFC, 0x00, 0x20, 0x00, 0x04, 0x00, 0xF0, 0x00, 
  0x00, 0x00, 0x00, 0x87, 0x60, 0xF6, 0x00, 0x00, 0x00, 0x00, 0x00, 0xE0, 
  0x01, 0x08, 0x00, 0x80, 0x03, 0x10, 0xF3, 0x03, 0x00, 0x40, 0x00, 0x08, 
  0xC0, 0x03, 0x08, 0x02, 0x80, 0x03, 0x00, 0xF9, 0x03, 0x00, 0x00, 0x00, 
  0x00, 0x00, 0x07, 0x08, 0x00, 0xC0, 0x81, 0x80, 0xCC, 0x0F, 0x00, 0x00, 
  0x00, 0x00, 0x00, 0x0F, 0x08, 0x02, 0xC0, 0x01, 0x80, 0x64, 0x1F, 0x00, 
  0x10, 0x20, 0x00, 0x00, 0x1E, 0x08, 0x02, 0xC0, 0x00, 0x00, 0x32, 0x1F, 
  0x00, 0x00, 0x00, 0x20, 0x00, 0x3C, 0x00, 0x00, 0xE0, 0x00, 0x00, 0x98, 
  0x3F, 0x04, 0x00, 0x00, 0x00, 0x08, 0x78, 0x08, 0x00, 0x70, 0x00, 0x01, 
  0xC8, 0xFC, 0x80, 0x00, 0x00, 0x00, 0x00, 0xF0, 0x08, 0x02, 0x70, 0x00, 
  0x00, 0x40, 0xFE, 0x00, 0x00, 0x00, 0x00, 0x00, 0xE0, 0x01, 0x00, 0x70, 
  0x08, 0x00, 0x20, 0xF2, 0x03, 0x08, 0x00, 0x00, 0x00, 0xC0, 0x0F, 0x02, 
  0x78, 0x00, 0x00, 0x80, 0xF9, 0x03, 0x00, 0x08, 0x01, 0x00, 0xA1, 0x07, 
  0x02, 0x30, 0x00, 0x10, 0xC0, 0xD8, 0x0F, 0x00, 0x00, 0x00, 0x00, 0x64, 
  0x0F, 0x00, 0x38, 0x00, 0x00, 0x00, 0xE4, 0x1F, 0x20, 0x04, 0x02, 0x01, 
  0xC8, 0x0E, 0x00, 0x38, 0x00, 0x00, 0x00, 0x62, 0x1F, 0x00, 0x00, 0x00, 
  0x80, 0x98, 0x0F, 0x02, 0x3C, 0x10, 0x00, 0x00, 0x91, 0x3F, 0x00, 0x00, 
  0x00, 0x00, 0xB3, 0x0F, 0x00, 0x1C, 0x00, 0x00, 0x00, 0xC8, 0xF3, 0x00, 
  0x00, 0x00, 0x40, 0xE6, 0x07, 0x02, 0x1C, 0x00, 0x00, 0x00, 0xE0, 0xE1, 
  0x01, 0x10, 0x00, 0x80, 0xEC, 0x0B, 0x02, 0x1C, 0x01, 0x00, 0x02, 0xE0, 
  0xC0, 0x01, 0x00, 0x20, 0x80, 0xF9, 0x09, 0x00, 0x0C, 0x00, 0x04, 0x00, 
  0x70, 0xC0, 0x13, 0x00, 0x00, 0x30, 0xFB, 0x04, 0x00, 0x0E, 0x00, 0x00, 
  0x00, 0x70, 0x00, 0x0F, 0x00, 0x00, 0x62, 0x3E, 0x00, 0x02, 0x0E, 0x00, 
  0x00, 0x00, 0x38, 0x00, 0x0F, 0x00, 0x00, 0xC4, 0x3E, 0x0C, 0x00, 0x0E, 
  0x40, 0x00, 0x10, 0x38, 0x00, 0x1C, 0x40, 0x80, 0x98, 0x1F, 0x08, 0x02, 
  0x0E, 0x00, 0x00, 0x00, 0x3C, 0x00, 0x78, 0x00, 0x00, 0xB3, 0x07, 0x08, 
  0x02, 0x1E, 0x04, 0x01, 0x00, 0x1C, 0x00, 0xF0, 0x00, 0x20, 0xE6, 0x07, 
  0x08, 0x00, 0x06, 0x00, 0x40, 0x00, 0x0C, 0x00, 0xF0, 0x00, 0x80, 0xEC, 
  0x03, 0x0A, 0x00, 0x0F, 0x00, 0x00, 0x00, 0x0E, 0x00, 0xC0, 0x03, 0x81, 
  0xF9, 0x01, 0x08, 0x02, 0x06, 0x00, 0x00, 0x01, 0x0E, 0x00, 0xC0, 0x07, 
  0x30, 0xFB, 0x00, 0x08, 0x00, 0x07, 0x00, 0x02, 0x00, 0x0E, 0x00, 0x00, 
  0x0F, 0x22, 0x7F, 0x40, 0x04, 0x02, 0x07, 0x00, 0x00, 0x40, 0x0E, 0x00, 
  0x00, 0x0E, 0xE4, 0x1E, 0x00, 0x08, 0x02, 0x07, 0x80, 0x00, 0x00, 0x07, 
  0x00, 0x00, 0xBC, 0xC8, 0x1F, 0x00, 0x04, 0x00, 0x07, 0x00, 0x00, 0x00, 
  0x07, 0x00, 0x00, 0x3C, 0xB9, 0x0F, 0x00, 0x0A, 0x00, 0x07, 0x00, 0x00, 
  0x10, 0x07, 0x00, 0x00, 0xF0, 0xF2, 0x07, 0x00, 0x08, 0x02, 0x07, 0x00, 
  0x20, 0x00, 0x07, 0x00, 0x00, 0xF0, 0xEE, 0x03, 0x00, 0x08, 0x00, 0x07, 
  0x01, 0x00, 0x00, 0x07, 0x00, 0x00, 0xC0, 0xFF, 0x01, 0x00, 0x04, 0x02, 
  0x03, 0x00, 0x00, 0x00, 0x03, 0x00, 0x00, 0xC0, 0x7B, 0x00, 0x08, 0x0A, 
  0x02, 0x03, 0x00, 0x02, 0x00, 0x03, 0x00, 0x00, 0x00, 0x7F, 0x00, 0x00, 
  0x04, 0x00, 0x03, 0x00, 0x00, 0x08, 0x03, 0x00, 0x00, 0x00, 0x3F, 0x02, 
  0x08, 0x08, 0x00, 0x07, 0x00, 0x00, 0x80, 0x03, 0x00, 0x00, 0x00, 0x0F, 
  0x00, 0x00, 0x04, 0x02, 0x43, 0x08, 0x00, 0x00, 0x03, 0x00, 0x00, 0x00, 
  0x4F, 0x00, 0x00, 0x08, 0x80, 0x07, 0x00, 0x00, 0x00, 0x03, 0x00, 0x00, 
  0xC0, 0x07, 0x00, 0x00, 0x0E, 0x02, 0x03, 0x00, 0x00, 0x80, 0x03, 0x00, 
  0x00, 0xF0, 0x01, 0x00, 0x00, 0x00, 0x82, 0x03, 0x00, 0x00, 0x80, 0x03, 
  0x00, 0x00, 0xFC, 0x00, 0x10, 0x40, 0x0C, 0x00, 0x03, 0x00, 0x20, 0x80, 
  0x03, 0x00, 0x00, 0x7F, 0x00, 0x00, 0x00, 0x08, 0x80, 0x03, 0x00, 0x00, 
  0x80, 0x03, 0x00, 0xE0, 0x0F, 0x00, 0x00, 0x00, 0x08, 0x02, 0x03, 0x40, 
  0x80, 0x80, 0x03, 0x00, 0xFC, 0x07, 0x00, 0x04, 0x00, 0x00, 0x80, 0x43, 
  0x00, 0x00, 0x00, 0xAB, 0xFE, 0xFF, 0x00, 0x40, 0x00, 0x00, 0x0D, 0x02, 
  0x03, 0x00, 0x00, 0x82, 0xFF, 0xFF, 0x1F, 0x00, 0x00, 0x00, 0x08, 0x00, 
  0x82, 0x03, 0x01, 0x00, 0x00, 0xFF, 0xBF, 0x01, 0x00, 0x04, 0x00, 0x00, 
  0x0C, 0x80, 0x03, 0x00, 0x04, 0x00, 0x04, 0x00, 0x00, 0x00, 0x00, 0x00, 
  0x00, 0x04, 0x82, 0x03, 0x00, 0x00, 0x00, 0x80, 0x00, 0x00, 0x02, 0x00, 
  0x00, 0x00, 0x08, 0x80, 0x03, 0x00, 0x00, 0x04, 0x08, 0x00, 0x00, 0x00, 
  0x00, 0x10, 0x00, 0x04, 0x80, 0x03, 0x00, 0x00, 0x00, 0x20, 0x00, 0x01, 
  0x00, 0x00, 0x00, 0x00, 0x0A, 0x82, 0x03, 0x01, 0x00, 0x00, 0x00, 0x00, 
  0x00, 0x00, 0x40, 0x00, 0x02, 0x04, 0x82, 0x03, 0x00, 0x00, 0x40, 0x00, 
  0x00, 0x00, 0x08, 0x00, 0x00, 0x00, 0x04, 0x80, 0x03, 0x00, 0x02, 0x00, 
  0x00, 0x40, 0x00, 0x00, 0x00, 0x00, 0x00, 0x08, 0x80, 0x03, 0x00, 0x00, 
  0x00, 0x00, 0x00, 0x00, 0x00, 0x02, 0x10, 0x40, 0x04, 0x82, 0x03, 0x00, 
  0x00, 0x00, 0x00, 0x00, 0x20, 0x00, 0x00, 0x00, 0x00, 0x0A, 0x80, 0x03, 
  0x10, 0x80, 0x00, 0x00, 0x02, 0x00, 0x00, 0x00, 0x00, 0x00, 0x08, 0x82, 
  0x03, 0x00, 0x00, 0x01, 0x04, 0x00, 0x00, 0x10, 0x00, 0x00, 0x00, 0x08, 
  0x82, 0x03, 0x00, 0x00, 0x00, 0x00, 0x00, 0x00, 0x00, 0x00, 0x00, 0x00, 
  0x00, 0x80, 0x03, 0x00, 0x00, 0x10, 0x00, 0x00, 0x02, 0x00, 0x20, 0x00, 
  0x00, 0x0C, 0x82, 0x13, 0x00, 0x08, 0x00, 0x00, 0x00, 0x00, 0x00, 0x00, 
  0x00, 0x00, 0x0E, 0x80, 0x03, 0x80, 0x00, 0x00, 0x02, 0x00, 0x00, 0x20, 
  0x00, 0x00, 0x01, 0x0F, 0x80, 0x03, 0x02, 0x00, 0x00, 0x20, 0x10, 0x00, 
  0x00, 0x00, 0x00, 0x80, 0x07, 0x82, 0x03, 0x00, 0x00, 0x00, 0x00, 0x00, 
  0x00, 0x02, 0x00, 0x81, 0xE0, 0x0F, 0x82, 0x03, 0x00, 0x10, 0x00, 0x00, 
  0x00, 0x00, 0x00, 0x02, 0x00, 0xF0, 0x01, 0x80, 0x03, 0x00, 0x00, 0x08, 
  0x00, 0x00, 0x10, 0x00, 0x00, 0x00, 0xF8, 0x08, 0x80, 0x03, 0x00, 0x00, 
  0x00, 0x00, 0x00, 0x00, 0x00, 0x00, 0x00, 0x7E, 0x00, 0x82, 0x03, 0x00, 
  0x00, 0x00, 0x04, 0x00, 0x40, 0x00, 0x00, 0x00, 0x1F, 0x08, 0x80, 0x03, 
  0x00, 0x40, 0x00, 0x00, 0x20, 0x00, 0x00, 0x00, 0xC0, 0x0F, 0x00, 0x82, 
  0x03, 0x10, 0x00, 0x01, 0x00, 0x00, 0x00, 0x40, 0x00, 0xF8, 0x03, 0x08, 
  0x82, 0x13, 0x00, 0x02, 0x00, 0x00, 0x00, 0x00, 0x02, 0x00, 0xFC, 0x00, 
  0x00, 0x80, 0x03, 0x00, 0x00, 0x00, 0x00, 0x00, 0x00, 0x00, 0xC0, 0x3F, 
  0x00, 0x08, 0x80, 0x03, 0x00, 0x00, 0x00, 0x20, 0x00, 0x08, 0x00, 0xF8, 
  0x0F, 0x00, 0x00, 0x82, 0x03, 0x01, 0x00, 0x00, 0x00, 0x01, 0x00, 0x00, 
  0xFF, 0x03, 0x00, 0x08, 0x80, 0x03, 0x00, 0x00, 0x00, 0x00, 0x00, 0x00, 
  0xF4, 0x3F, 0x00, 0x00, 0x00, 0x82, 0x03, 0x00, 0x00, 0x00, 0x00, 0x00, 
  0xF1, 0xFF, 0x07, 0x00, 0x00, 0x08, 0x80, 0x5B, 0x88, 0x84, 0xB4, 0xC5, 
  0xFF, 0xFF, 0x7F, 0x00, 0x00, 0x00, 0x00, 0x84, 0xFF, 0xFF, 0xFF, 0xFF, 
  0xFF, 0xFF, 0xFF, 0x03, 0x00, 0x00, 0x00, 0x0C, 0x00, 0xFF, 0xFF, 0xFF, 
  0xFF, 0xFF, 0x7F, 0x04, 0x00, 0x00, 0x00, 0x00, 0x04, 0x08, 0x24, 0x49, 
  0x95, 0x24, 0x05, 0x00, 0x00, 0x00, 0x00, 0x00, 0x00, 0x00, 0x00, 0x00, 
  0x00, 0x00, 0x00, 0x00, 0x00, 0x00, 0x00, 0x00, 0x00, 0x00, 0x02, 0x00, 
  0x00, 0x00, 0x00, 0x00, 0x00, 0x00, 0x00, 0x00, 0x00, 0x00, 0x00, 0x00, 
  0x00, 0x00, 0x00, 0x00, 0x00, 0x00, 0x00, 0x00, 0x00, 0x00, 0x00, 0x00, 
  0x00, 0x00, 0x00, 0x00, 0x00, 0x00, 0x00, 0x00, 0x00, 0x00, 0x00, 0x00, 
  0x60, 0x00, 0x00, 0x18, 0x81, 0x11, 0x11, 0x18, 0x81, 0x11, 0x11, 0x18, 
  0x81, 0x02, 0x00, 0x00, 0x00, 0x00, 0x00, 0x00, 0x00, 0x00, 0x00, 0x00, 
  0x00, 0x00, 0x00, 0x00, };
