#define sh33_width 100
#define sh33_height 100
static char sh33_bits[] = {
  0x00, 0x00, 0x00, 0x00, 0x00, 0x00, 0x00, 0x00, 0x00, 0x00, 0x00, 0x00, 
  0x00, 0x00, 0x68, 0x9A, 0xA6, 0x65, 0x9A, 0xA6, 0x69, 0x9A, 0xA6, 0x69, 
  0x03, 0x00, 0x00, 0x02, 0x00, 0x00, 0x00, 0x00, 0x00, 0x00, 0x00, 0x00, 
  0x00, 0x10, 0x00, 0x40, 0x00, 0x00, 0x00, 0x00, 0x00, 0x00, 0x00, 0x00, 
  0x00, 0x00, 0x40, 0x00, 0x10, 0x00, 0x00, 0x00, 0x00, 0x00, 0x00, 0x00, 
  0x00, 0x00, 0x00, 0x00, 0x00, 0x00, 0x00, 0x00, 0x00, 0x00, 0x00, 0x00, 
  0x00, 0x00, 0x00, 0x00, 0x00, 0x01, 0x00, 0x00, 0x00, 0x00, 0x00, 0x00, 
  0x00, 0x00, 0x00, 0x00, 0x00, 0x00, 0x00, 0x00, 0xFF, 0xFF, 0xFF, 0xFF, 
  0xDB, 0x00, 0x00, 0x00, 0x00, 0x00, 0x00, 0x06, 0xC0, 0xFF, 0xFF, 0xFF, 
  0xFF, 0xFF, 0xFF, 0x2F, 0x00, 0x00, 0x00, 0x00, 0x04, 0x80, 0xFF, 0xFF, 
  0xFF, 0xFF, 0xFF, 0xFF, 0xFF, 0x07, 0x00, 0x00, 0x00, 0x04, 0x80, 0x03, 
  0x00, 0x00, 0x00, 0x40, 0xD9, 0xFF, 0xFF, 0x00, 0x00, 0x00, 0x00, 0xC0, 
  0x01, 0x00, 0x80, 0x00, 0x00, 0x00, 0xA0, 0xFF, 0x0F, 0x00, 0x00, 0x04, 
  0x80, 0x01, 0x00, 0x00, 0x80, 0x00, 0x00, 0x00, 0xE0, 0xFF, 0x00, 0x00, 
  0x00, 0x82, 0x09, 0x00, 0x00, 0x00, 0x00, 0x00, 0x04, 0x80, 0xFD, 0x01, 
  0x00, 0x08, 0xC0, 0x03, 0x80, 0x00, 0x00, 0x04, 0x00, 0x00, 0x00, 0xF0, 
  0x0F, 0x00, 0x04, 0x80, 0x01, 0x00, 0x00, 0x00, 0x00, 0x00, 0x00, 0x00, 
  0x00, 0x3F, 0x00, 0x04, 0x80, 0x01, 0x00, 0x04, 0x00, 0x00, 0x00, 0x00, 
  0x00, 0x00, 0xFC, 0x00, 0x04, 0x82, 0x03, 0x00, 0x00, 0x00, 0x00, 0x00, 
  0x80, 0x00, 0x00, 0xF0, 0x03, 0x04, 0xC0, 0x81, 0x20, 0x00, 0x00, 0x01, 
  0x81, 0x00, 0x00, 0x00, 0xC0, 0x0F, 0x00, 0xC0, 0x01, 0x00, 0x00, 0x00, 
  0x00, 0x00, 0x00, 0x10, 0x20, 0x00, 0x1F, 0x04, 0x80, 0x01, 0x00, 0x10, 
  0x80, 0x00, 0x00, 0x02, 0x00, 0x00, 0x00, 0x7C, 0x04, 0xC0, 0x03, 0x00, 
  0x00, 0x02, 0x10, 0x00, 0x00, 0x00, 0x00, 0x00, 0xF8, 0x08, 0x80, 0x01, 
  0x00, 0x00, 0x00, 0x00, 0x00, 0x00, 0x00, 0x00, 0x00, 0xF0, 0x01, 0xC2, 
  0x41, 0x00, 0x00, 0x00, 0x00, 0x00, 0x00, 0x04, 0x02, 0x02, 0xD8, 0x07, 
  0x80, 0x03, 0x01, 0x08, 0x40, 0x00, 0x00, 0x00, 0x20, 0x00, 0x00, 0xB0, 
  0x0F, 0x80, 0x01, 0x00, 0x00, 0x00, 0x00, 0x00, 0x00, 0x00, 0x00, 0x00, 
  0xE4, 0x07, 0xC0, 0x01, 0x00, 0x00, 0x00, 0x01, 0x00, 0x00, 0x00, 0x02, 
  0x80, 0xC8, 0x0F, 0x80, 0x01, 0x00, 0x00, 0x00, 0x00, 0x08, 0x40, 0x00, 
  0x00, 0x00, 0x99, 0x07, 0x80, 0x21, 0x00, 0x00, 0x00, 0x00, 0x00, 0x00, 
  0x00, 0x40, 0x00, 0xF3, 0x07, 0xC2, 0x03, 0x20, 0x00, 0x04, 0x00, 0x00, 
  0x00, 0x00, 0x00, 0x60, 0xE6, 0x07, 0x80, 0x01, 0x00, 0x20, 0x00, 0x80, 
  0x00, 0x00, 0x00, 0x00, 0xC0, 0xFC, 0x05, 0x80, 0x01, 0x00, 0x00, 0x00, 
  0x00, 0x00, 0x02, 0x20, 0x00, 0x88, 0x7B, 0x04, 0xC0, 0x03, 0x00, 0x00, 
  0x00, 0x40, 0x00, 0x00, 0x04, 0x00, 0x32, 0x7F, 0x04, 0x80, 0x01, 0x40, 
  0x00, 0x00, 0x00, 0x00, 0x20, 0x00, 0x00, 0x60, 0x3E, 0x04, 0x80, 0x01, 
  0x00, 0x40, 0x80, 0x00, 0x00, 0x00, 0x00, 0x00, 0xCC, 0x0F, 0x06, 0xC2, 
  0x81, 0x00, 0x00, 0x00, 0x00, 0x00, 0x00, 0x00, 0x82, 0x99, 0x07, 0x04, 
  0x80, 0x01, 0x00, 0x08, 0x00, 0x00, 0x80, 0x00, 0x10, 0x20, 0xF3, 0x07, 
  0x06, 0x80, 0x03, 0x00, 0x00, 0x00, 0x00, 0x00, 0x00, 0x00, 0x00, 0xF6, 
  0x01, 0x04, 0xC0, 0x03, 0x00, 0x00, 0x00, 0x00, 0x00, 0x04, 0x00, 0xC0, 
  0xFC, 0x01, 0x08, 0x80, 0x01, 0x08, 0x00, 0x80, 0xED, 0x05, 0x00, 0x00, 
  0x98, 0xFD, 0x00, 0x04, 0x80, 0x03, 0x00, 0x10, 0x80, 0xFF, 0xFF, 0x01, 
  0x00, 0x30, 0x7F, 0x40, 0x02, 0x82, 0x01, 0x00, 0x00, 0x80, 0xFF, 0xFF, 
  0x3F, 0x00, 0x64, 0x1E, 0x00, 0x0C, 0xC0, 0x03, 0x00, 0x00, 0xC1, 0x03, 
  0xF0, 0xFF, 0x01, 0xC6, 0x1F, 0x00, 0x06, 0x80, 0x01, 0x20, 0x00, 0x80, 
  0x01, 0x00, 0xFC, 0x87, 0xD8, 0x0F, 0x00, 0x00, 0x80, 0x03, 0x00, 0x00, 
  0x80, 0x03, 0x00, 0xC0, 0x1F, 0xF3, 0x07, 0x04, 0x06, 0x80, 0x01, 0x00, 
  0x00, 0x80, 0x01, 0x00, 0x00, 0x7E, 0xF6, 0x03, 0x00, 0x08, 0x80, 0x03, 
  0x00, 0x20, 0xC0, 0x01, 0x00, 0x00, 0xF8, 0xFC, 0x00, 0x00, 0x00, 0x82, 
  0x03, 0x01, 0x00, 0x80, 0x03, 0x00, 0x00, 0xF0, 0x7D, 0x00, 0x00, 0x0C, 
  0x80, 0x03, 0x00, 0x00, 0x80, 0x03, 0x00, 0x00, 0xC0, 0x7F, 0x00, 0x00, 
  0x04, 0x80, 0x01, 0x00, 0x00, 0x80, 0x01, 0x00, 0x00, 0x00, 0x1F, 0x00, 
  0x00, 0x06, 0x80, 0x03, 0x01, 0x04, 0x80, 0x03, 0x00, 0x00, 0x00, 0x1F, 
  0x02, 0x01, 0x04, 0x80, 0x03, 0x00, 0x00, 0x80, 0x03, 0x00, 0x00, 0x00, 
  0x0F, 0x00, 0x00, 0x04, 0x80, 0x03, 0x00, 0x00, 0x80, 0x03, 0x00, 0x00, 
  0xC0, 0x07, 0x80, 0x00, 0x06, 0x82, 0x03, 0x00, 0x00, 0x80, 0x03, 0x00, 
  0x00, 0xC0, 0x03, 0x00, 0x80, 0x04, 0x80, 0x03, 0x80, 0x80, 0x80, 0x03, 
  0x00, 0x00, 0xE0, 0x00, 0x00, 0x00, 0x04, 0x00, 0x23, 0x00, 0x00, 0x82, 
  0x03, 0x00, 0x00, 0x78, 0x00, 0x00, 0x00, 0x06, 0x80, 0x03, 0x00, 0x00, 
  0x80, 0x07, 0x00, 0x00, 0x78, 0x00, 0x10, 0x00, 0x04, 0x00, 0x03, 0x00, 
  0x00, 0x00, 0x07, 0x00, 0x00, 0x3C, 0x00, 0x00, 0x00, 0x04, 0x00, 0x07, 
  0x08, 0x10, 0x00, 0x07, 0x00, 0x00, 0x0F, 0x80, 0x00, 0x10, 0x06, 0x02, 
  0x43, 0x00, 0x00, 0x00, 0x07, 0x00, 0x00, 0x07, 0x00, 0x00, 0x00, 0x04, 
  0x00, 0x07, 0x00, 0x00, 0x01, 0x07, 0x00, 0x80, 0x07, 0x02, 0x00, 0x00, 
  0x06, 0x00, 0x07, 0x00, 0x00, 0x00, 0x0E, 0x00, 0xC0, 0x03, 0x00, 0x00, 
  0x00, 0x04, 0x00, 0x07, 0x00, 0x01, 0x00, 0x0E, 0x00, 0xF0, 0x00, 0x00, 
  0x04, 0x04, 0x00, 0x00, 0x07, 0x00, 0x00, 0x00, 0x0E, 0x00, 0xF0, 0x08, 
  0x00, 0x00, 0x00, 0x0C, 0x00, 0x07, 0x00, 0x00, 0x02, 0x1E, 0x00, 0x78, 
  0x00, 0x00, 0x00, 0x00, 0x0E, 0x02, 0x87, 0x00, 0x02, 0x00, 0x1C, 0x00, 
  0x3C, 0x00, 0x00, 0x80, 0x00, 0x00, 0x00, 0x0E, 0x00, 0x00, 0x00, 0x38, 
  0x00, 0x0F, 0x00, 0x00, 0x00, 0x00, 0x04, 0x00, 0x06, 0x00, 0x00, 0x00, 
  0x38, 0x00, 0x07, 0x00, 0x40, 0x00, 0x20, 0x04, 0x00, 0x0E, 0x08, 0x80, 
  0x00, 0x70, 0x80, 0x07, 0x40, 0x00, 0x00, 0x00, 0x0E, 0x00, 0x0E, 0x00, 
  0x00, 0x20, 0x70, 0xC0, 0x03, 0x00, 0x00, 0x08, 0x01, 0x00, 0x00, 0x1C, 
  0x00, 0x00, 0x00, 0xF0, 0xF0, 0x40, 0x00, 0x02, 0x00, 0x00, 0x04, 0x02, 
  0x0E, 0x00, 0x00, 0x00, 0xE2, 0xF8, 0x02, 0x00, 0x00, 0x00, 0x00, 0x04, 
  0x00, 0x1C, 0x00, 0x00, 0x00, 0xC0, 0x7B, 0x01, 0x00, 0x00, 0x40, 0x00, 
  0x0A, 0x00, 0x1C, 0x00, 0x00, 0x00, 0x80, 0x9F, 0x08, 0x02, 0x00, 0x00, 
  0x00, 0x04, 0x00, 0x1C, 0x00, 0x02, 0x01, 0x00, 0x5F, 0x06, 0x00, 0x00, 
  0x00, 0x00, 0x06, 0x00, 0x1C, 0x01, 0x00, 0x00, 0x04, 0x7F, 0x42, 0x00, 
  0x20, 0x00, 0x40, 0x07, 0x00, 0x38, 0x40, 0x00, 0x00, 0x00, 0xBE, 0x13, 
  0x80, 0x00, 0x00, 0x80, 0x0F, 0x02, 0x38, 0x00, 0x00, 0x00, 0x20, 0xFC, 
  0x09, 0x00, 0x02, 0x00, 0xC0, 0x07, 0x00, 0x70, 0x00, 0x00, 0x80, 0x00, 
  0xF0, 0x6C, 0x00, 0x00, 0x08, 0xE0, 0x09, 0x00, 0x70, 0x00, 0x80, 0x00, 
  0x00, 0xF0, 0x27, 0x02, 0x00, 0x00, 0xF0, 0x04, 0x00, 0x70, 0x00, 0x00, 
  0x00, 0x02, 0xC0, 0x1B, 0x43, 0x00, 0x00, 0x78, 0x00, 0x00, 0xF0, 0x00, 
  0x00, 0x00, 0x00, 0xC0, 0x9F, 0x00, 0x00, 0x00, 0x3C, 0x04, 0x00, 0xE0, 
  0x00, 0x00, 0x00, 0x00, 0x80, 0xCF, 0x04, 0x00, 0x00, 0x1E, 0x08, 0x02, 
  0xE0, 0x01, 0x04, 0x08, 0x00, 0x00, 0x7F, 0x06, 0x02, 0x00, 0x0F, 0x04, 
  0x00, 0xC0, 0x01, 0x00, 0x00, 0x00, 0x41, 0xBE, 0x13, 0x40, 0x80, 0x07, 
  0x00, 0x00, 0xC0, 0x01, 0x00, 0x00, 0x00, 0x00, 0xFC, 0x09, 0x00, 0xC0, 
  0x03, 0x04, 0x00, 0x80, 0x23, 0x00, 0x00, 0x00, 0x00, 0xF0, 0x4C, 0x00, 
  0xE0, 0x01, 0x08, 0x00, 0x80, 0x03, 0x40, 0x00, 0x10, 0x00, 0xF0, 0x67, 
  0x02, 0xF4, 0x00, 0x04, 0x00, 0x00, 0x07, 0x04, 0x40, 0x00, 0x20, 0xE0, 
  0x33, 0x00, 0x78, 0x00, 0x00, 0x02, 0x00, 0x0F, 0x00, 0x00, 0x20, 0x00, 
  0xC0, 0x9F, 0x11, 0x3C, 0x00, 0x04, 0x02, 0x00, 0x0E, 0x00, 0x00, 0x00, 
  0x00, 0x02, 0xCF, 0x08, 0x1E, 0x00, 0x04, 0x00, 0x00, 0x1E, 0x00, 0x00, 
  0x00, 0x00, 0x00, 0x7F, 0x06, 0x0E, 0x00, 0x0C, 0x00, 0x00, 0x3C, 0x00, 
  0x02, 0x00, 0x04, 0x10, 0x7C, 0x93, 0x07, 0x00, 0x04, 0x04, 0x00, 0x38, 
  0x00, 0x00, 0x00, 0x00, 0x00, 0xBC, 0xD9, 0x03, 0x00, 0x00, 0x04, 0x00, 
  0x70, 0x10, 0x00, 0x00, 0x00, 0x00, 0xF0, 0xCC, 0x01, 0x00, 0x02, 0x00, 
  0x00, 0xF0, 0x00, 0x00, 0x08, 0x00, 0x00, 0xF0, 0xF7, 0x00, 0x00, 0x01, 
  0x10, 0x00, 0xE0, 0x01, 0x08, 0x00, 0x04, 0x00, 0xC0, 0x77, 0x00, 0x80, 
  0x00, 0x20, 0x00, 0xC0, 0x03, 0x80, 0x10, 0x00, 0x00, 0xC2, 0x3F, 0x00, 
  0x40, 0x00, 0x00, 0x00, 0x82, 0xA7, 0x45, 0x55, 0xB4, 0xA6, 0xA5, 0x5F, 
  0x00, 0x30, 0x00, 0x00, 0xBE, 0xE6, 0x5F, 0xBA, 0xDA, 0x55, 0x5D, 0xDA, 
  0xBF, 0xED, 0x0B, 0x00, };
