#define sh41_width 100
#define sh41_height 100
static char sh41_bits[] = {
  0x00, 0x4A, 0x12, 0xA3, 0x80, 0x52, 0x40, 0x4A, 0x09, 0x85, 0x44, 0x02, 
  0x00, 0x40, 0x51, 0xD4, 0x6F, 0x7E, 0xA6, 0xBF, 0x9A, 0xF6, 0x7E, 0x52, 
  0x14, 0x00, 0x20, 0x00, 0xC0, 0x3F, 0x12, 0x21, 0x80, 0x88, 0x01, 0x3D, 
  0x00, 0x20, 0x00, 0x10, 0x00, 0xE0, 0x3F, 0x00, 0x00, 0x00, 0x00, 0x00, 
  0x78, 0x00, 0x80, 0x00, 0x08, 0x00, 0xF0, 0xFE, 0x00, 0x00, 0x00, 0x00, 
  0x00, 0xF0, 0x00, 0x00, 0x00, 0x08, 0x00, 0x78, 0xF3, 0x01, 0x08, 0x00, 
  0x00, 0x00, 0xE0, 0x00, 0x00, 0x02, 0x04, 0x00, 0xBC, 0xF9, 0x01, 0x00, 
  0x02, 0x00, 0x02, 0xE0, 0x01, 0x00, 0x02, 0x02, 0x00, 0x9E, 0xDC, 0x03, 
  0x00, 0x00, 0x04, 0x00, 0xC0, 0x01, 0x00, 0x00, 0x02, 0x00, 0x0F, 0xE6, 
  0x0F, 0x00, 0x00, 0x00, 0x00, 0x80, 0x07, 0x00, 0x04, 0x00, 0x80, 0x07, 
  0x32, 0x1F, 0x80, 0x01, 0x40, 0x00, 0x80, 0x07, 0x00, 0x00, 0x01, 0xC0, 
  0x83, 0x90, 0x1F, 0x00, 0x00, 0x00, 0x10, 0x00, 0x0F, 0x00, 0x00, 0x02, 
  0xE0, 0x01, 0xCC, 0x3D, 0x00, 0x00, 0x00, 0x00, 0x00, 0x0E, 0x00, 0x00, 
  0x02, 0xF0, 0x00, 0x44, 0xFE, 0x00, 0x00, 0x00, 0x10, 0x00, 0x1C, 0x00, 
  0x00, 0x02, 0x78, 0x00, 0x20, 0xF7, 0x00, 0x00, 0x00, 0x00, 0x00, 0x1C, 
  0x00, 0x00, 0x02, 0x3C, 0x00, 0x10, 0xF9, 0x03, 0x80, 0x00, 0x00, 0x00, 
  0x38, 0x00, 0x00, 0x00, 0x1E, 0x04, 0x80, 0xD8, 0x03, 0x00, 0x00, 0x00, 
  0x00, 0x78, 0x00, 0x04, 0x02, 0x4F, 0x00, 0x60, 0xE4, 0x07, 0x00, 0x00, 
  0x00, 0x00, 0x70, 0x00, 0x04, 0x81, 0x07, 0x00, 0x00, 0x63, 0x0F, 0x00, 
  0x00, 0x00, 0x00, 0xF0, 0x00, 0x00, 0xC0, 0x03, 0x00, 0x00, 0x90, 0x1F, 
  0x00, 0x00, 0x00, 0x48, 0xE0, 0x00, 0x00, 0xE2, 0x01, 0x00, 0x00, 0x98, 
  0x3D, 0x01, 0x02, 0x00, 0x00, 0xE0, 0x00, 0x00, 0xF2, 0x00, 0x80, 0x00, 
  0xE4, 0xFE, 0x00, 0x00, 0x08, 0x00, 0xC0, 0x01, 0x04, 0x7A, 0x00, 0x00, 
  0x10, 0x20, 0xF6, 0x00, 0x00, 0x00, 0x00, 0xC0, 0x01, 0x00, 0x3E, 0x00, 
  0x00, 0x00, 0x00, 0xF1, 0x01, 0x00, 0x00, 0x00, 0xC0, 0x01, 0x00, 0x1E, 
  0x04, 0x00, 0x00, 0x80, 0xDD, 0x07, 0x08, 0x00, 0x00, 0x80, 0x03, 0x00, 
  0x0E, 0x02, 0x00, 0x00, 0x44, 0xCC, 0x07, 0x00, 0x00, 0x00, 0x84, 0x03, 
  0x00, 0x07, 0x00, 0x00, 0x00, 0x00, 0x66, 0x0F, 0x00, 0x00, 0x00, 0x00, 
  0x07, 0x00, 0x02, 0x00, 0x22, 0x00, 0x00, 0xB0, 0x1F, 0x40, 0x00, 0x04, 
  0x00, 0x07, 0x00, 0x06, 0x00, 0x00, 0x00, 0x00, 0xD8, 0x3F, 0x00, 0x10, 
  0x00, 0x00, 0x07, 0x04, 0x06, 0x00, 0x00, 0x20, 0x01, 0xE8, 0x79, 0x00, 
  0x00, 0x00, 0x00, 0x06, 0x04, 0x02, 0x80, 0x00, 0x00, 0x00, 0xF0, 0x70, 
  0x00, 0x10, 0x00, 0x02, 0x0E, 0x00, 0x02, 0x00, 0x00, 0x00, 0x00, 0x38, 
  0xE0, 0x00, 0x00, 0x00, 0x00, 0x0E, 0x00, 0x02, 0x00, 0x00, 0x00, 0x00, 
  0x3E, 0xE0, 0x01, 0x00, 0x00, 0x00, 0x0E, 0x00, 0x00, 0x00, 0x00, 0x00, 
  0x00, 0x1F, 0xC0, 0x01, 0x08, 0x00, 0x00, 0x0E, 0x00, 0x07, 0x02, 0x00, 
  0x00, 0x00, 0x0F, 0xC0, 0x01, 0x00, 0x00, 0x02, 0x1C, 0x00, 0x02, 0x00, 
  0x00, 0x00, 0xC0, 0x03, 0x80, 0x03, 0x00, 0x00, 0x00, 0x1C, 0x04, 0x04, 
  0x00, 0x10, 0x00, 0xC0, 0x03, 0x80, 0x03, 0x00, 0x00, 0x00, 0x1C, 0x00, 
  0x41, 0x00, 0x00, 0x08, 0xE0, 0x00, 0x00, 0x07, 0x80, 0x00, 0x00, 0x1C, 
  0x00, 0x06, 0x00, 0x00, 0x40, 0xF8, 0x00, 0x00, 0x07, 0x00, 0x00, 0x00, 
  0x18, 0x00, 0x02, 0x00, 0x00, 0x00, 0x78, 0x00, 0x00, 0x47, 0x00, 0x00, 
  0x40, 0x1C, 0x00, 0x04, 0x00, 0x00, 0x00, 0x3C, 0x00, 0x00, 0x07, 0x00, 
  0x04, 0x00, 0x38, 0x04, 0x03, 0x40, 0x00, 0x00, 0x0E, 0x00, 0x00, 0x0E, 
  0x00, 0x00, 0x00, 0x38, 0x04, 0x00, 0x00, 0x00, 0x00, 0x0F, 0x00, 0x00, 
  0x0E, 0x00, 0x00, 0x20, 0x38, 0x00, 0x00, 0x00, 0x04, 0x80, 0x07, 0x00, 
  0x00, 0x0E, 0x00, 0x00, 0x00, 0x38, 0x00, 0x47, 0x00, 0x00, 0xE0, 0x03, 
  0x00, 0x00, 0x0C, 0x00, 0x00, 0x00, 0x38, 0x00, 0x04, 0x00, 0x00, 0xF0, 
  0x01, 0x00, 0x00, 0x1C, 0x00, 0x28, 0x02, 0x38, 0x04, 0x03, 0x00, 0x00, 
  0xF0, 0x00, 0x00, 0x00, 0x0E, 0x04, 0x00, 0x00, 0x38, 0x00, 0x02, 0x00, 
  0x20, 0x38, 0x00, 0x00, 0x00, 0x1C, 0x00, 0x00, 0x00, 0x30, 0x00, 0x04, 
  0x01, 0x00, 0x3E, 0x00, 0x00, 0x00, 0x0C, 0x00, 0x00, 0x00, 0x38, 0x00, 
  0x03, 0x00, 0x00, 0x0E, 0x00, 0x00, 0x00, 0x1C, 0x00, 0x00, 0x80, 0x38, 
  0x00, 0x02, 0x00, 0x00, 0x0F, 0x00, 0x00, 0x00, 0x1C, 0x00, 0x00, 0x00, 
  0x30, 0x00, 0x00, 0x00, 0x80, 0x0F, 0x00, 0x00, 0x00, 0x1C, 0x20, 0x00, 
  0x00, 0x38, 0x00, 0x07, 0x08, 0xE0, 0x1F, 0x00, 0x00, 0x00, 0x0C, 0x00, 
  0x00, 0x00, 0x38, 0x04, 0x06, 0x00, 0xE0, 0x3F, 0x00, 0x00, 0x00, 0x1C, 
  0x00, 0x20, 0x00, 0x30, 0x04, 0x00, 0x00, 0xF0, 0x73, 0x00, 0x00, 0x00, 
  0x0C, 0x00, 0x00, 0x00, 0x38, 0x00, 0x01, 0x20, 0xFC, 0xF6, 0x00, 0x00, 
  0x00, 0x0C, 0x20, 0x00, 0x00, 0x38, 0x00, 0x06, 0x00, 0xFC, 0xEC, 0x01, 
  0x00, 0x00, 0x1E, 0x00, 0x00, 0x00, 0x30, 0x00, 0x82, 0x00, 0xBE, 0xC1, 
  0x03, 0x00, 0x00, 0x0C, 0x00, 0x00, 0x01, 0x38, 0x04, 0x02, 0x80, 0x3F, 
  0x93, 0x07, 0x00, 0x00, 0x0E, 0x00, 0x00, 0x00, 0x39, 0x00, 0x05, 0x80, 
  0x6F, 0x06, 0x0F, 0x00, 0x00, 0x0E, 0x00, 0x40, 0x00, 0x38, 0x00, 0x02, 
  0xC0, 0xCF, 0x00, 0x1E, 0x00, 0x00, 0x0E, 0x01, 0x00, 0x00, 0x38, 0x00, 
  0x00, 0xF0, 0x99, 0x00, 0x3C, 0x00, 0x00, 0x07, 0x00, 0x00, 0x00, 0x18, 
  0x00, 0x07, 0xF0, 0x33, 0x00, 0x78, 0x00, 0x00, 0x07, 0x00, 0x00, 0x00, 
  0x18, 0x00, 0x02, 0x7C, 0x46, 0x02, 0xF0, 0x00, 0x00, 0x27, 0x00, 0x00, 
  0x40, 0x1C, 0x00, 0x02, 0xFC, 0x0C, 0x00, 0xE0, 0x01, 0x80, 0x03, 0x00, 
  0x02, 0x00, 0x1C, 0x04, 0x02, 0x9E, 0x11, 0x00, 0xC0, 0x03, 0x80, 0x03, 
  0x04, 0x80, 0x00, 0x1C, 0x00, 0x06, 0x3F, 0x03, 0x00, 0x80, 0x07, 0x80, 
  0x03, 0x00, 0x00, 0x00, 0x1C, 0x00, 0x82, 0x77, 0x06, 0x00, 0x00, 0x0F, 
  0xC0, 0x01, 0x00, 0x00, 0x00, 0x0C, 0x00, 0xC1, 0xCF, 0x40, 0x00, 0x00, 
  0x1E, 0xE0, 0x01, 0x00, 0x00, 0x00, 0x0E, 0x04, 0xF2, 0x9D, 0x00, 0x00, 
  0x00, 0x38, 0xE0, 0x00, 0x00, 0x00, 0x00, 0x0E, 0x00, 0xF2, 0x33, 0x01, 
  0x20, 0x00, 0x78, 0xE0, 0x00, 0x02, 0x00, 0x00, 0x0E, 0x00, 0x7D, 0x26, 
  0x00, 0x00, 0x02, 0xF0, 0x78, 0x20, 0x00, 0x00, 0x40, 0x0E, 0x00, 0xFE, 
  0x44, 0x00, 0x00, 0x00, 0xE0, 0x39, 0x01, 0x00, 0x01, 0x00, 0x07, 0x04, 
  0xDF, 0x09, 0x00, 0x00, 0x20, 0xC0, 0x9F, 0x01, 0x00, 0x00, 0x00, 0x07, 
  0x00, 0x1E, 0x11, 0x00, 0x00, 0x00, 0x80, 0xDF, 0x04, 0x00, 0x02, 0x00, 
  0x03, 0x00, 0x3F, 0x06, 0x00, 0x08, 0x00, 0x00, 0x7F, 0x06, 0x00, 0x00, 
  0x00, 0x07, 0x00, 0xEE, 0x00, 0x10, 0x00, 0x00, 0x00, 0x3E, 0x13, 0x00, 
  0x00, 0xA0, 0x03, 0x04, 0xBE, 0x04, 0x00, 0x08, 0x00, 0x00, 0xFC, 0x09, 
  0x00, 0x00, 0x80, 0x01, 0x00, 0x3E, 0x01, 0x00, 0x00, 0x40, 0x00, 0xF8, 
  0x4C, 0x00, 0x00, 0xC0, 0x01, 0x00, 0xF2, 0x00, 0x00, 0x00, 0x00, 0x00, 
  0xF0, 0x6E, 0x00, 0x80, 0xC0, 0x01, 0x00, 0xF1, 0x00, 0x00, 0x00, 0x00, 
  0x20, 0xE0, 0x33, 0x03, 0x00, 0xE0, 0x00, 0x04, 0xC2, 0x03, 0x00, 0x08, 
  0x10, 0x00, 0xC0, 0x9F, 0x11, 0x00, 0xE4, 0x00, 0x00, 0xC0, 0x03, 0x00, 
  0x00, 0x00, 0x00, 0x80, 0xCF, 0x08, 0x00, 0xE0, 0x00, 0x00, 0x02, 0x0F, 
  0x08, 0x00, 0x00, 0x00, 0x00, 0x7F, 0x06, 0x80, 0x70, 0x00, 0x00, 0x01, 
  0x1F, 0x00, 0x00, 0x00, 0x00, 0x00, 0x3E, 0x23, 0x00, 0x70, 0x00, 0x04, 
  0x00, 0x3C, 0x00, 0x02, 0x00, 0x00, 0x00, 0xFC, 0x19, 0x00, 0x38, 0x00, 
  0x00, 0x02, 0x3C, 0x00, 0x00, 0x40, 0x00, 0x00, 0xF8, 0x0C, 0x02, 0x3C, 
  0x00, 0x00, 0x02, 0xF0, 0x00, 0x00, 0x00, 0x00, 0x00, 0xF0, 0x67, 0x00, 
  0x1C, 0x00, 0x00, 0x00, 0xF0, 0x10, 0x00, 0x00, 0x08, 0x00, 0xE0, 0x33, 
  0x02, 0x1E, 0x00, 0x04, 0x02, 0xC0, 0x03, 0x00, 0x00, 0x02, 0x00, 0x80, 
  0x1F, 0x01, 0x0E, 0x00, 0x00, 0x02, 0x80, 0x03, 0x00, 0x00, 0x00, 0x04, 
  0x80, 0xDF, 0x09, 0x07, 0x00, 0x00, 0x00, 0x00, 0x0F, 0x00, 0x00, 0x00, 
  0x00, 0x00, 0xEF, 0x04, 0x07, 0x00, 0x00, 0x06, 0x00, 0x1F, 0x00, 0x00, 
  0x00, 0x00, 0x40, 0x3E, 0xC6, 0x03, 0x00, 0x00, 0x00, 0x00, 0x3C, 0x00, 
  0x00, 0x00, 0x01, 0x00, 0xFC, 0xD3, 0x01, 0x00, 0x00, 0x04, 0x00, 0x3C, 
  0x10, 0x04, 0x00, 0x00, 0x00, 0xF8, 0xE9, 0x01, 0x00, 0x00, 0x08, 0x00, 
  0x70, 0x00, 0x00, 0x00, 0x00, 0x00, 0xF0, 0xF5, 0x00, 0x00, 0x00, 0x08, 
  0x00, 0xF0, 0x01, 0x00, 0x00, 0x00, 0x00, 0xE0, 0x7F, 0x00, 0x00, 0x00, 
  0x20, 0x00, 0xC0, 0x03, 0x00, 0x00, 0x00, 0x00, 0xC0, 0x3F, 0x00, 0x40, 
  0x00, 0x40, 0x00, 0x80, 0x47, 0x99, 0x65, 0x24, 0x99, 0x98, 0x3F, 0x00, 
  0x00, 0x00, 0x00, 0x65, 0xDB, 0x6F, 0x5D, 0xA6, 0xDB, 0x67, 0x5D, 0xDF, 
  0xA6, 0x05, 0x00, 0x00, 0x00, 0x00, 0x00, 0x00, 0x00, 0x00, 0x00, 0x00, 
  0x00, 0x00, 0x00, 0x00, };
