#define sh43_width 100
#define sh43_height 100
static char sh43_bits[] = {
  0x00, 0x00, 0x00, 0x00, 0x00, 0x00, 0x00, 0x00, 0x00, 0x00, 0x00, 0x00, 
  0x00, 0x00, 0x6C, 0xD9, 0xB7, 0xDA, 0xF6, 0x66, 0x6F, 0xAB, 0xBF, 0x65, 
  0x09, 0x00, 0x00, 0x00, 0xC0, 0x1F, 0x2A, 0x4A, 0xA2, 0x24, 0xA9, 0x3E, 
  0x00, 0x20, 0x00, 0x20, 0x00, 0xC0, 0x3F, 0x00, 0x00, 0x00, 0x00, 0x00, 
  0x38, 0x00, 0x40, 0x00, 0x00, 0x00, 0xE0, 0x7F, 0x00, 0x00, 0x20, 0x00, 
  0x00, 0xF8, 0x00, 0x00, 0x00, 0x00, 0x00, 0xF0, 0xF6, 0x00, 0x00, 0x00, 
  0x00, 0x00, 0xF0, 0x00, 0x00, 0x01, 0x00, 0x00, 0x78, 0xFB, 0x01, 0x08, 
  0x00, 0x00, 0x00, 0xC0, 0x01, 0x00, 0x00, 0x00, 0x00, 0xB8, 0xD8, 0x03, 
  0x00, 0x00, 0x08, 0x00, 0xC0, 0x03, 0x00, 0x06, 0x00, 0x00, 0x5C, 0xEC, 
  0x07, 0x00, 0x00, 0x00, 0x00, 0x04, 0x0F, 0x00, 0x04, 0x00, 0x00, 0x1E, 
  0x63, 0x0F, 0x00, 0x00, 0x00, 0x00, 0x00, 0x0F, 0x00, 0x04, 0x00, 0x00, 
  0x0F, 0xB0, 0x1F, 0x00, 0x00, 0x10, 0x00, 0x00, 0x3C, 0x00, 0x00, 0x00, 
  0x00, 0x07, 0x88, 0x3F, 0x00, 0x00, 0x00, 0x80, 0x00, 0x3C, 0x00, 0x04, 
  0x00, 0x00, 0x07, 0xC4, 0x7C, 0x00, 0x00, 0x00, 0x00, 0x40, 0xF8, 0x00, 
  0x00, 0x02, 0x80, 0x03, 0x60, 0xF7, 0x00, 0x21, 0x00, 0x00, 0x00, 0xF0, 
  0x00, 0x08, 0x00, 0xC0, 0x03, 0x10, 0xFB, 0x01, 0x00, 0x00, 0x08, 0x00, 
  0xC0, 0x03, 0x04, 0x00, 0xC0, 0x01, 0x82, 0xF8, 0x03, 0x00, 0x00, 0x00, 
  0x00, 0xC0, 0x03, 0x04, 0x00, 0xC0, 0x01, 0x40, 0xEC, 0x07, 0x00, 0x00, 
  0x00, 0x00, 0x00, 0x0F, 0x08, 0x00, 0xE0, 0x00, 0x00, 0x66, 0x0F, 0x20, 
  0x00, 0x00, 0x00, 0x00, 0x0F, 0x04, 0x00, 0x70, 0x00, 0x00, 0x30, 0x1F, 
  0x00, 0x00, 0x40, 0x00, 0x04, 0x1C, 0x00, 0x02, 0x70, 0x00, 0x80, 0x91, 
  0x3F, 0x00, 0x00, 0x00, 0x00, 0x00, 0x3C, 0x04, 0x00, 0x70, 0x00, 0x00, 
  0xC8, 0x7C, 0x00, 0x00, 0x00, 0x20, 0x40, 0xF0, 0x04, 0x00, 0x38, 0x00, 
  0x01, 0x60, 0xFE, 0x00, 0x10, 0x00, 0x00, 0x00, 0xF0, 0x08, 0x00, 0x38, 
  0x00, 0x00, 0x20, 0xF3, 0x01, 0x00, 0x00, 0x00, 0x00, 0xC8, 0x03, 0x00, 
  0x1C, 0x04, 0x00, 0x80, 0xF9, 0x03, 0x00, 0x20, 0x00, 0x00, 0xD0, 0x07, 
  0x00, 0x1C, 0x00, 0x08, 0x80, 0xCC, 0x07, 0x00, 0x00, 0x00, 0x04, 0x62, 
  0x0F, 0x02, 0x0C, 0x00, 0x00, 0x20, 0xE4, 0x0F, 0x00, 0x00, 0x00, 0x00, 
  0xE4, 0x07, 0x00, 0x1E, 0x00, 0x00, 0x00, 0xB3, 0x1F, 0x08, 0x00, 0x00, 
  0x80, 0x88, 0x07, 0x00, 0x0E, 0x00, 0x00, 0x00, 0x90, 0x3F, 0x00, 0x02, 
  0x80, 0x00, 0xB9, 0x0F, 0x00, 0x0E, 0x00, 0x80, 0x00, 0xCC, 0x79, 0x00, 
  0x00, 0x00, 0x20, 0xF2, 0x07, 0x02, 0x07, 0x00, 0x00, 0x00, 0xE0, 0xF1, 
  0x00, 0x00, 0x00, 0x40, 0xEE, 0x0B, 0x00, 0x07, 0x08, 0x00, 0x00, 0xF0, 
  0xE0, 0x01, 0x00, 0x00, 0x88, 0xFC, 0x04, 0x00, 0x07, 0x00, 0x00, 0x10, 
  0x70, 0xC0, 0x05, 0x00, 0x08, 0x90, 0x7B, 0x04, 0x00, 0x87, 0x00, 0x00, 
  0x00, 0x38, 0x80, 0x07, 0x00, 0x00, 0x22, 0x3F, 0x04, 0x00, 0x03, 0x00, 
  0x08, 0x40, 0x38, 0x00, 0x0F, 0x00, 0x00, 0x64, 0x1E, 0x04, 0x00, 0x03, 
  0x00, 0x00, 0x00, 0x3C, 0x00, 0x0E, 0x00, 0x00, 0xCC, 0x1F, 0x06, 0x82, 
  0x03, 0x00, 0x00, 0x00, 0x1C, 0x00, 0x3C, 0x00, 0x82, 0xB9, 0x07, 0x04, 
  0x80, 0x03, 0x00, 0x00, 0x00, 0x0C, 0x00, 0x78, 0x20, 0x20, 0xF3, 0x03, 
  0x02, 0x80, 0x03, 0x80, 0x00, 0x00, 0x0E, 0x00, 0xF0, 0x00, 0x20, 0xE6, 
  0x01, 0x0C, 0xC0, 0x01, 0x04, 0x00, 0x02, 0x0E, 0x00, 0xE0, 0x01, 0xC0, 
  0xFC, 0x00, 0x02, 0x80, 0x01, 0x00, 0x00, 0x00, 0x06, 0x00, 0xC0, 0x03, 
  0x88, 0x7D, 0x02, 0x08, 0x80, 0x01, 0x00, 0x00, 0x00, 0x07, 0x00, 0x80, 
  0x07, 0x30, 0x3F, 0x00, 0x04, 0xC2, 0x01, 0x00, 0x00, 0x00, 0x07, 0x00, 
  0x00, 0x0F, 0x62, 0x1E, 0x00, 0x04, 0xC0, 0x01, 0x00, 0x80, 0x00, 0x07, 
  0x00, 0x00, 0x1E, 0xCC, 0x1F, 0x00, 0x04, 0xC0, 0x01, 0x00, 0x00, 0x00, 
  0x07, 0x00, 0x00, 0x3C, 0xD9, 0x07, 0x10, 0x06, 0xC0, 0x01, 0x00, 0x00, 
  0x00, 0x03, 0x00, 0x00, 0x78, 0xF3, 0x03, 0x00, 0x04, 0xC0, 0x01, 0x20, 
  0x00, 0x00, 0x03, 0x00, 0x00, 0xF0, 0xF6, 0x01, 0x02, 0x04, 0xC0, 0x10, 
  0x00, 0x08, 0x10, 0x03, 0x00, 0x00, 0xE0, 0xFD, 0x01, 0x00, 0x06, 0xC2, 
  0x01, 0x00, 0x00, 0x80, 0x03, 0x00, 0x00, 0xC0, 0x7B, 0x00, 0x00, 0x04, 
  0xC0, 0x01, 0x00, 0x00, 0x80, 0x03, 0x00, 0x00, 0x80, 0x3F, 0x01, 0x00, 
  0x06, 0xC0, 0x00, 0x40, 0x00, 0x00, 0x03, 0x00, 0x00, 0x00, 0x1F, 0x00, 
  0x00, 0x04, 0xC0, 0x01, 0x00, 0x00, 0x80, 0x03, 0x00, 0x00, 0x00, 0x1F, 
  0x00, 0x10, 0x00, 0xC0, 0x10, 0x00, 0x00, 0x80, 0x03, 0x00, 0x00, 0x00, 
  0x07, 0x00, 0x00, 0x0C, 0xC0, 0x01, 0x00, 0x00, 0x00, 0x03, 0x00, 0x00, 
  0xC0, 0x03, 0x00, 0x00, 0x04, 0xC2, 0x01, 0x00, 0x00, 0x80, 0x03, 0x00, 
  0x00, 0xE0, 0x01, 0x00, 0x00, 0x06, 0xC0, 0x00, 0x00, 0x20, 0x00, 0x03, 
  0x00, 0x00, 0xE0, 0x01, 0x00, 0x00, 0x04, 0xC0, 0x01, 0x04, 0x00, 0x80, 
  0x03, 0x00, 0x00, 0x78, 0x00, 0x10, 0x00, 0x04, 0xC0, 0x01, 0x00, 0x40, 
  0x00, 0x07, 0x00, 0x00, 0x38, 0x00, 0x20, 0x00, 0x04, 0xC0, 0x01, 0x01, 
  0x00, 0x00, 0x07, 0x00, 0x00, 0x3E, 0x04, 0x00, 0x80, 0x04, 0xC0, 0x01, 
  0x00, 0x00, 0x02, 0x07, 0x00, 0x00, 0x0F, 0x00, 0x00, 0x00, 0x06, 0xC0, 
  0x01, 0x00, 0x00, 0x00, 0x07, 0x00, 0x00, 0x07, 0x00, 0x00, 0x00, 0x04, 
  0x80, 0x01, 0x00, 0x00, 0x00, 0x06, 0x00, 0xC0, 0x03, 0x00, 0x00, 0x00, 
  0x06, 0x82, 0x03, 0x00, 0x00, 0x00, 0x0E, 0x00, 0xC0, 0x43, 0x00, 0x00, 
  0x00, 0x04, 0x80, 0x03, 0x00, 0x00, 0x00, 0x0E, 0x00, 0xF0, 0x00, 0x00, 
  0x02, 0x02, 0x00, 0x80, 0x03, 0x00, 0x01, 0x20, 0x0E, 0x00, 0x78, 0x00, 
  0x00, 0x00, 0x00, 0x0C, 0x80, 0x83, 0x00, 0x20, 0x80, 0x1C, 0x00, 0x38, 
  0x00, 0x00, 0x00, 0x04, 0x04, 0x02, 0x03, 0x00, 0x00, 0x00, 0x1C, 0x00, 
  0x3E, 0x00, 0x00, 0x00, 0x00, 0x06, 0x00, 0x03, 0x00, 0x00, 0x00, 0x38, 
  0x00, 0x0F, 0x20, 0x80, 0x00, 0x00, 0x04, 0x00, 0x07, 0x00, 0x00, 0x00, 
  0x38, 0x00, 0x0F, 0x00, 0x00, 0x00, 0x00, 0x04, 0x00, 0x07, 0x00, 0x00, 
  0x00, 0x78, 0xC0, 0x03, 0x00, 0x00, 0x00, 0x00, 0x04, 0x00, 0x07, 0x00, 
  0x00, 0x00, 0xF0, 0xC0, 0x01, 0x00, 0x00, 0x00, 0x00, 0x06, 0x00, 0x06, 
  0x00, 0x02, 0x00, 0xE0, 0xF0, 0x04, 0x00, 0x08, 0x00, 0x00, 0x04, 0x00, 
  0x0F, 0x40, 0x00, 0x02, 0xE0, 0x79, 0x01, 0x00, 0x00, 0x10, 0x10, 0x04, 
  0x00, 0x0E, 0x00, 0x00, 0x01, 0xC0, 0xBF, 0x01, 0x40, 0x00, 0x00, 0x00, 
  0x04, 0x02, 0x0E, 0x00, 0x00, 0x00, 0x80, 0xDF, 0x00, 0x08, 0x00, 0x02, 
  0x80, 0x06, 0x00, 0x1E, 0x00, 0x00, 0x00, 0x80, 0x6F, 0x06, 0x00, 0x00, 
  0x00, 0x00, 0x06, 0x00, 0x1C, 0x80, 0x00, 0x00, 0x00, 0x7E, 0x23, 0x00, 
  0x00, 0x00, 0x00, 0x0F, 0x00, 0x1C, 0x00, 0x00, 0x00, 0x00, 0xBE, 0x11, 
  0x00, 0x00, 0x00, 0x80, 0x07, 0x02, 0x1C, 0x00, 0x40, 0x00, 0x00, 0xF8, 
  0x8C, 0x00, 0x00, 0x00, 0xC0, 0x07, 0x00, 0x38, 0x00, 0x00, 0x00, 0x00, 
  0xF0, 0x46, 0x00, 0x20, 0x80, 0xE0, 0x09, 0x00, 0x30, 0x04, 0x00, 0x40, 
  0x00, 0xE0, 0x37, 0x02, 0x00, 0x00, 0xF0, 0x04, 0x00, 0x70, 0x00, 0x00, 
  0x00, 0x00, 0xC0, 0x1B, 0x01, 0x00, 0x80, 0x78, 0x00, 0x00, 0x70, 0x00, 
  0x00, 0x00, 0x08, 0xC0, 0xDF, 0x08, 0x00, 0x00, 0x3C, 0x04, 0x00, 0xF0, 
  0x80, 0x00, 0x00, 0x00, 0x00, 0x6F, 0x04, 0x00, 0x00, 0x1E, 0x08, 0x02, 
  0xE0, 0x00, 0x40, 0x00, 0x00, 0x00, 0x7E, 0x23, 0x04, 0x01, 0x0F, 0x04, 
  0x00, 0xC0, 0x01, 0x00, 0x02, 0x80, 0x00, 0xBE, 0x11, 0x00, 0x80, 0x07, 
  0x00, 0x00, 0xC0, 0x01, 0x00, 0x00, 0x00, 0x00, 0xF8, 0x8D, 0x00, 0xC0, 
  0x03, 0x04, 0x00, 0x80, 0x03, 0x00, 0x00, 0x00, 0x80, 0xF0, 0x4E, 0x00, 
  0xE0, 0x01, 0x04, 0x00, 0x80, 0x03, 0x00, 0x00, 0x00, 0x04, 0xF0, 0x63, 
  0x02, 0xF0, 0x00, 0x08, 0x00, 0x00, 0x07, 0x00, 0x00, 0x00, 0x00, 0xC0, 
  0x3B, 0x02, 0x78, 0x00, 0x00, 0x02, 0x00, 0x0F, 0x00, 0x20, 0x01, 0x00, 
  0x80, 0x9F, 0x01, 0x3C, 0x00, 0x04, 0x00, 0x00, 0x1E, 0x00, 0x00, 0x00, 
  0x00, 0x80, 0xCF, 0x08, 0x1E, 0x00, 0x0C, 0x00, 0x00, 0x1C, 0x02, 0x00, 
  0x00, 0x00, 0x00, 0x7E, 0x26, 0x0F, 0x00, 0x00, 0x00, 0x00, 0x38, 0x00, 
  0x00, 0x00, 0x20, 0x02, 0xBE, 0xB3, 0x07, 0x00, 0x04, 0x04, 0x00, 0x38, 
  0x00, 0x00, 0x00, 0x00, 0x00, 0xF8, 0xC9, 0x03, 0x00, 0x00, 0x04, 0x00, 
  0x70, 0x00, 0x20, 0x00, 0x00, 0x00, 0xF8, 0xEC, 0x01, 0x00, 0x02, 0x00, 
  0x00, 0xF0, 0x80, 0x00, 0x40, 0x00, 0x00, 0xE0, 0xF7, 0x00, 0x00, 0x01, 
  0x10, 0x00, 0xC0, 0x01, 0x00, 0x00, 0x00, 0x00, 0xE0, 0x7F, 0x00, 0xC0, 
  0x00, 0x40, 0x00, 0xC0, 0x17, 0x02, 0x82, 0x54, 0x44, 0x88, 0x3F, 0x00, 
  0x40, 0x00, 0x00, 0x12, 0xC9, 0x97, 0xBF, 0x6B, 0x29, 0x5A, 0x96, 0x9F, 
  0x26, 0x1A, 0x00, 0x00, 0x44, 0x94, 0x45, 0x40, 0x54, 0x92, 0x94, 0xA4, 
  0x35, 0x82, 0x01, 0x00, };
