#define sh50_width 100
#define sh50_height 100
static char sh50_bits[] = {
  0x00, 0x00, 0x00, 0x00, 0x00, 0x00, 0x00, 0x00, 0x00, 0x00, 0x00, 0x00, 
  0x00, 0x00, 0x50, 0x88, 0x6F, 0x5A, 0x19, 0x99, 0x85, 0x66, 0x9E, 0x80, 
  0x00, 0x00, 0x20, 0x00, 0xC0, 0x1F, 0x00, 0x08, 0x80, 0x00, 0x00, 0x3C, 
  0x00, 0x00, 0x00, 0x20, 0x00, 0x80, 0x28, 0x00, 0x00, 0x00, 0x00, 0x00, 
  0x20, 0x00, 0x40, 0x00, 0x10, 0x00, 0xE0, 0x7E, 0x00, 0x00, 0x00, 0x00, 
  0x00, 0xF0, 0x00, 0x00, 0x00, 0x04, 0x00, 0x70, 0xF3, 0x00, 0x00, 0x00, 
  0x00, 0x00, 0xE0, 0x01, 0x00, 0x00, 0x04, 0x00, 0xBC, 0xF9, 0x01, 0x00, 
  0x00, 0x00, 0x00, 0xE0, 0x03, 0x00, 0x02, 0x00, 0x00, 0x9E, 0xDC, 0x03, 
  0x00, 0x00, 0x00, 0x00, 0x80, 0x07, 0x00, 0x00, 0x02, 0x00, 0x6F, 0xE6, 
  0x07, 0x00, 0x00, 0x02, 0x00, 0x00, 0x0F, 0x00, 0x04, 0x00, 0x00, 0x07, 
  0x62, 0x0F, 0x00, 0x00, 0x00, 0x00, 0x08, 0x1E, 0x00, 0x04, 0x02, 0xC0, 
  0x03, 0xB1, 0x1F, 0x00, 0x20, 0x00, 0x80, 0x00, 0x3C, 0x00, 0x00, 0x00, 
  0xE0, 0x03, 0xC8, 0x7D, 0x01, 0x00, 0x00, 0x00, 0x00, 0x78, 0x00, 0x00, 
  0x02, 0xE0, 0x00, 0x60, 0x7E, 0x00, 0x00, 0x00, 0x00, 0x00, 0xF0, 0x00, 
  0x00, 0x01, 0x78, 0x00, 0x20, 0xF2, 0x00, 0x00, 0x00, 0x00, 0x00, 0xE0, 
  0x01, 0x04, 0x02, 0x7C, 0x80, 0x10, 0xF9, 0x01, 0x00, 0x20, 0x00, 0x00, 
  0xC2, 0x03, 0x00, 0x00, 0x1C, 0x00, 0x80, 0xDD, 0x13, 0x00, 0x00, 0x10, 
  0x00, 0x80, 0x07, 0x04, 0x02, 0x1F, 0x00, 0x40, 0xEC, 0x07, 0x00, 0x00, 
  0x00, 0x00, 0x00, 0x0F, 0x04, 0x00, 0x07, 0x00, 0x00, 0x62, 0x0F, 0x00, 
  0x00, 0x00, 0x40, 0x08, 0x1E, 0x04, 0xC0, 0x03, 0x00, 0x00, 0x31, 0x1F, 
  0x04, 0x00, 0x00, 0x01, 0x00, 0x3C, 0x00, 0xE3, 0x01, 0x00, 0x04, 0x88, 
  0x7D, 0x00, 0x08, 0x00, 0x00, 0x00, 0x78, 0x00, 0xE2, 0x00, 0x00, 0x00, 
  0xC4, 0x7E, 0x00, 0x02, 0x00, 0x00, 0x00, 0xF8, 0x00, 0x78, 0x00, 0x40, 
  0x00, 0x60, 0xF6, 0x00, 0x00, 0x08, 0x00, 0x00, 0xE0, 0x05, 0x3E, 0x10, 
  0x00, 0x00, 0x10, 0xFB, 0x01, 0x00, 0x00, 0x00, 0x00, 0xC8, 0x07, 0x3E, 
  0x00, 0x00, 0x00, 0x80, 0xD8, 0x07, 0x00, 0x00, 0x00, 0x00, 0xB0, 0x07, 
  0x1E, 0x00, 0x00, 0x00, 0x80, 0xCC, 0x07, 0x00, 0x08, 0x00, 0x04, 0x64, 
  0x07, 0x07, 0x00, 0x00, 0x08, 0x08, 0x66, 0x1F, 0x00, 0x00, 0x00, 0x00, 
  0xC4, 0x0E, 0x06, 0x00, 0x00, 0x10, 0x00, 0xB1, 0x1F, 0x00, 0x00, 0x00, 
  0x80, 0x98, 0x07, 0x02, 0x00, 0x00, 0x00, 0x00, 0xC8, 0x3F, 0x00, 0x00, 
  0x00, 0x00, 0xB3, 0x07, 0x02, 0x00, 0x00, 0x00, 0x00, 0xE4, 0x79, 0x40, 
  0x00, 0x80, 0x20, 0xF6, 0x07, 0x06, 0x00, 0x00, 0x00, 0x01, 0x70, 0xF0, 
  0x00, 0x00, 0x00, 0xC0, 0xEC, 0x07, 0x02, 0x10, 0x02, 0x00, 0x00, 0x78, 
  0xE0, 0x01, 0x00, 0x00, 0x88, 0xFD, 0x04, 0x02, 0x00, 0x00, 0x00, 0x00, 
  0x3C, 0xC0, 0x03, 0x00, 0x01, 0x10, 0x7B, 0x00, 0x12, 0x00, 0x00, 0x00, 
  0x00, 0x1E, 0x00, 0x07, 0x00, 0x00, 0x62, 0x3E, 0x06, 0x02, 0x00, 0x00, 
  0x40, 0x00, 0x0F, 0x00, 0x0F, 0x10, 0x00, 0xCC, 0x1F, 0x00, 0x06, 0x00, 
  0x00, 0x00, 0xC0, 0x07, 0x00, 0x1E, 0x00, 0x80, 0xCC, 0x0F, 0x04, 0x02, 
  0x02, 0x00, 0x00, 0xC0, 0x01, 0x00, 0x3C, 0x00, 0x00, 0xB1, 0x07, 0x04, 
  0x02, 0x00, 0x00, 0x00, 0xE0, 0x01, 0x00, 0x70, 0x00, 0x20, 0xF3, 0x03, 
  0x04, 0x02, 0x00, 0x08, 0x00, 0xF0, 0x00, 0x00, 0xF0, 0x00, 0x40, 0xEE, 
  0x01, 0x06, 0x00, 0x00, 0x10, 0x00, 0x78, 0x00, 0x00, 0xE0, 0x21, 0x8C, 
  0xFC, 0x00, 0x00, 0x06, 0x00, 0x00, 0x00, 0x3C, 0x00, 0x00, 0xC0, 0x03, 
  0x90, 0x79, 0x04, 0x04, 0x03, 0x80, 0x00, 0x00, 0x0E, 0x00, 0x00, 0x00, 
  0x07, 0x30, 0x3F, 0x00, 0x00, 0x04, 0x00, 0x00, 0x00, 0x0F, 0x00, 0x00, 
  0x00, 0x0F, 0x64, 0x1E, 0x00, 0x06, 0x02, 0x00, 0x00, 0x82, 0x07, 0x00, 
  0x00, 0x00, 0x1E, 0xCC, 0x0F, 0x00, 0x04, 0x02, 0x00, 0x00, 0xC0, 0x03, 
  0x00, 0x00, 0x00, 0xBC, 0xD9, 0x07, 0x00, 0x04, 0x02, 0x00, 0x80, 0xE0, 
  0x01, 0x00, 0x00, 0x00, 0x70, 0xF3, 0x03, 0x00, 0x06, 0x02, 0x00, 0x00, 
  0xF0, 0x00, 0x00, 0x00, 0x00, 0xF0, 0xF6, 0x41, 0x20, 0x00, 0x46, 0x04, 
  0x00, 0x38, 0x00, 0x00, 0x00, 0x00, 0xE0, 0xFD, 0x00, 0x00, 0x04, 0x02, 
  0x00, 0x00, 0x3C, 0x00, 0x00, 0x00, 0x00, 0xC0, 0x7F, 0x00, 0x00, 0x04, 
  0x02, 0x00, 0x00, 0x0E, 0x00, 0x00, 0x00, 0x00, 0x00, 0x3F, 0x04, 0x00, 
  0x04, 0x02, 0x00, 0x00, 0x0F, 0x00, 0x00, 0x00, 0x00, 0x00, 0x1F, 0x00, 
  0x00, 0x06, 0x10, 0x00, 0x80, 0x0F, 0x00, 0x00, 0x00, 0x00, 0x00, 0x0F, 
  0x00, 0x00, 0x00, 0x06, 0x00, 0xC2, 0x1F, 0x00, 0x00, 0x00, 0x00, 0x80, 
  0x07, 0x00, 0x00, 0x04, 0x03, 0x00, 0xE0, 0x3F, 0x00, 0x00, 0x00, 0x00, 
  0xC0, 0x83, 0x00, 0x00, 0x02, 0x04, 0x40, 0xF0, 0x7B, 0x00, 0x00, 0x00, 
  0x00, 0xE0, 0x01, 0x00, 0x40, 0x04, 0x02, 0x00, 0xF8, 0xF6, 0x00, 0x00, 
  0x00, 0x00, 0xF0, 0x00, 0x00, 0x00, 0x04, 0x02, 0x00, 0xFC, 0xEC, 0x01, 
  0x00, 0x00, 0x00, 0x78, 0x00, 0x00, 0x08, 0x04, 0x00, 0x10, 0xBE, 0xD9, 
  0x03, 0x00, 0x00, 0x00, 0x3C, 0x00, 0x40, 0x00, 0x06, 0x06, 0x00, 0x3F, 
  0x83, 0x07, 0x00, 0x00, 0x00, 0x1E, 0x00, 0x00, 0x00, 0x00, 0x03, 0x80, 
  0x67, 0x02, 0x0F, 0x00, 0x00, 0x00, 0x0F, 0x00, 0x00, 0x00, 0x04, 0x04, 
  0xC0, 0xCF, 0x04, 0x1E, 0x00, 0x00, 0x80, 0x07, 0x00, 0x00, 0x00, 0x04, 
  0x02, 0xE0, 0x9B, 0x00, 0x3C, 0x00, 0x00, 0xC0, 0x03, 0x02, 0x00, 0x00, 
  0x04, 0x12, 0xF0, 0x13, 0x00, 0x78, 0x00, 0x00, 0xE0, 0x01, 0x00, 0x00, 
  0x02, 0x06, 0x06, 0xF8, 0x66, 0x00, 0xF0, 0x00, 0x00, 0xF0, 0x01, 0x00, 
  0x00, 0x00, 0x00, 0x02, 0xFC, 0x84, 0x00, 0xE0, 0x01, 0x00, 0x78, 0x00, 
  0x20, 0x00, 0x00, 0x04, 0x06, 0xFE, 0x09, 0x00, 0xC0, 0x03, 0x00, 0x3C, 
  0x00, 0x10, 0x00, 0x04, 0x06, 0x02, 0x3F, 0x11, 0x00, 0x80, 0x07, 0x00, 
  0x1E, 0x00, 0x00, 0x00, 0x00, 0x00, 0x82, 0x67, 0x22, 0x00, 0x20, 0x0F, 
  0x00, 0x0F, 0x00, 0x00, 0x00, 0x00, 0x04, 0xC2, 0x6F, 0x04, 0x00, 0x00, 
  0x1E, 0x80, 0x07, 0x08, 0x00, 0x00, 0x00, 0x04, 0xE2, 0x8D, 0x00, 0x40, 
  0x00, 0x3C, 0xC0, 0x03, 0x02, 0x00, 0x10, 0x00, 0x06, 0xF2, 0x39, 0x01, 
  0x00, 0x00, 0x78, 0xE0, 0x01, 0x00, 0x00, 0x00, 0x00, 0x00, 0x7E, 0x23, 
  0x00, 0x00, 0x00, 0xF0, 0xF0, 0x00, 0x00, 0x00, 0x00, 0x02, 0x04, 0xFE, 
  0x4E, 0x00, 0x00, 0x10, 0xE0, 0x79, 0x42, 0x00, 0x40, 0x00, 0x00, 0x04, 
  0xDE, 0x09, 0x00, 0x40, 0x00, 0xC0, 0xBF, 0x01, 0x00, 0x00, 0x00, 0x00, 
  0x04, 0x9E, 0x11, 0x00, 0x00, 0x00, 0x80, 0xDF, 0x04, 0x00, 0x00, 0x00, 
  0x00, 0x04, 0x3E, 0x02, 0x00, 0x00, 0x00, 0x00, 0x7F, 0x02, 0x00, 0x00, 
  0x10, 0x00, 0x07, 0x6F, 0x04, 0x00, 0x00, 0x02, 0x00, 0x3E, 0x23, 0x00, 
  0x00, 0x00, 0x00, 0x07, 0xDE, 0x00, 0x00, 0x00, 0x00, 0x02, 0xFC, 0x11, 
  0x00, 0x02, 0x00, 0x80, 0x07, 0xBE, 0x01, 0x01, 0x00, 0x00, 0x00, 0xF8, 
  0x8C, 0x00, 0x00, 0x00, 0xE0, 0x07, 0x78, 0x40, 0x00, 0x00, 0x00, 0x00, 
  0xF0, 0x4F, 0x20, 0x00, 0x00, 0xF0, 0x00, 0xF2, 0x00, 0x40, 0x00, 0x00, 
  0x00, 0xE0, 0x33, 0x01, 0x00, 0x00, 0xF0, 0x0C, 0xC2, 0x01, 0x00, 0x02, 
  0x00, 0x01, 0xC0, 0x1F, 0x01, 0x00, 0x00, 0x78, 0x00, 0xC0, 0x03, 0x00, 
  0x00, 0x00, 0x00, 0x80, 0xDF, 0x00, 0x00, 0x00, 0x3C, 0x00, 0x02, 0x0F, 
  0x00, 0x00, 0x00, 0x00, 0x00, 0xEF, 0x26, 0x00, 0x00, 0x0E, 0x08, 0x00, 
  0x0F, 0x00, 0x00, 0x00, 0x80, 0x00, 0x3E, 0x07, 0x00, 0x08, 0x0F, 0x04, 
  0x02, 0x3C, 0x00, 0x00, 0x00, 0x00, 0x80, 0xFC, 0x11, 0x01, 0xC0, 0x03, 
  0x00, 0x01, 0x3C, 0x00, 0x00, 0x00, 0x00, 0x00, 0xF8, 0x8D, 0x40, 0xC0, 
  0x03, 0x00, 0x02, 0x70, 0x00, 0x00, 0x08, 0x00, 0x00, 0xF0, 0x4E, 0x00, 
  0xF0, 0x01, 0x00, 0x00, 0xF0, 0x01, 0x04, 0x00, 0x00, 0x00, 0xE0, 0x33, 
  0x02, 0xF0, 0x00, 0x0C, 0x02, 0xC0, 0x01, 0x00, 0x00, 0x00, 0x04, 0xC0, 
  0x37, 0x03, 0x3C, 0x00, 0x00, 0x00, 0xC0, 0x03, 0x00, 0x00, 0x20, 0x00, 
  0x80, 0x9F, 0x00, 0x3C, 0x00, 0x00, 0x02, 0x00, 0x0F, 0x40, 0x08, 0x00, 
  0x00, 0x00, 0xEF, 0x04, 0x1E, 0x00, 0x04, 0x02, 0x00, 0x0F, 0x00, 0x00, 
  0x00, 0x00, 0x20, 0x7E, 0x26, 0x07, 0x00, 0x04, 0x00, 0x00, 0x3C, 0x00, 
  0x00, 0x00, 0x00, 0x00, 0x7C, 0xB3, 0x07, 0x00, 0x00, 0x04, 0x00, 0x3C, 
  0x00, 0x00, 0x00, 0x00, 0x00, 0xF8, 0xD9, 0x03, 0x00, 0x02, 0x08, 0x00, 
  0x78, 0x00, 0x00, 0x00, 0x08, 0x08, 0xF0, 0xEE, 0x00, 0x00, 0x02, 0x08, 
  0x00, 0xF0, 0x01, 0x00, 0x01, 0x00, 0x00, 0xE0, 0xF7, 0x00, 0x00, 0x00, 
  0x20, 0x00, 0xC0, 0x03, 0x00, 0x00, 0x00, 0x00, 0xC0, 0x7F, 0x00, 0x80, 
  0x00, 0x60, 0x00, 0xC0, 0x87, 0x88, 0x25, 0x14, 0x42, 0x95, 0x3F, 0x00, 
  0x60, 0x00, 0x40, 0xB3, 0xB9, 0xB7, 0xFF, 0xF2, 0xBF, 0xED, 0x97, 0x9F, 
  0xCA, 0x1B, 0x00, 0x00, 0x08, 0x42, 0x25, 0x00, 0x0A, 0x80, 0x12, 0x24, 
  0x45, 0x29, 0x00, 0x00, };
