#define sh51_width 100
#define sh51_height 100
static char sh51_bits[] = {
  0x00, 0x80, 0x20, 0x04, 0x00, 0x00, 0x00, 0x00, 0x00, 0x01, 0x81, 0x00, 
  0x00, 0x80, 0x57, 0xD5, 0xDF, 0xFF, 0xBF, 0xFF, 0xFB, 0xBF, 0x7F, 0x56, 
  0x05, 0x00, 0x00, 0x00, 0xC0, 0xBF, 0x14, 0x81, 0x12, 0x28, 0x84, 0x3E, 
  0x00, 0x30, 0x00, 0x30, 0x00, 0xC0, 0x3F, 0x00, 0x00, 0x00, 0x00, 0x00, 
  0x78, 0x00, 0x80, 0x00, 0x08, 0x00, 0xF0, 0x7E, 0x00, 0x00, 0x40, 0x00, 
  0x00, 0xF4, 0x00, 0x00, 0x00, 0x04, 0x00, 0x70, 0xF7, 0x00, 0x08, 0x00, 
  0x00, 0x01, 0xE0, 0x00, 0x00, 0x01, 0x00, 0x00, 0xBC, 0xF9, 0x01, 0x00, 
  0x00, 0x01, 0x00, 0xC0, 0x03, 0x00, 0x02, 0x06, 0x00, 0x9E, 0xDC, 0x03, 
  0x00, 0x00, 0x00, 0x00, 0x80, 0x03, 0x00, 0x00, 0x02, 0x00, 0x5F, 0xEC, 
  0x07, 0x00, 0x00, 0x00, 0x00, 0x00, 0x0F, 0x00, 0x00, 0x00, 0x00, 0x07, 
  0x63, 0x0F, 0x00, 0x20, 0x00, 0x08, 0x00, 0x1E, 0x00, 0x04, 0x01, 0x80, 
  0x07, 0x30, 0x1F, 0x00, 0x00, 0x00, 0x00, 0x40, 0x3C, 0x00, 0x00, 0x02, 
  0xE0, 0x01, 0xC8, 0x3D, 0x24, 0x00, 0x00, 0x00, 0x00, 0x38, 0x00, 0x00, 
  0x02, 0xE0, 0x00, 0x44, 0x7E, 0x00, 0x00, 0x00, 0x00, 0x00, 0xF0, 0x00, 
  0x00, 0x01, 0xF8, 0x00, 0x60, 0xF6, 0x00, 0x00, 0x00, 0x00, 0x00, 0xE2, 
  0x00, 0x00, 0x02, 0x3C, 0x20, 0x10, 0xF9, 0x01, 0x00, 0x80, 0x00, 0x00, 
  0xC0, 0x03, 0x00, 0x00, 0x1C, 0x00, 0x80, 0xD9, 0x03, 0x00, 0x00, 0x80, 
  0x00, 0x80, 0x07, 0x04, 0x02, 0x0F, 0x80, 0x40, 0xEC, 0x07, 0x04, 0x00, 
  0x00, 0x00, 0x01, 0x0F, 0x00, 0x01, 0x0F, 0x00, 0x00, 0x62, 0x0F, 0x00, 
  0x00, 0x00, 0x00, 0x00, 0x0E, 0x00, 0xC0, 0x03, 0x00, 0x00, 0x31, 0x1F, 
  0x80, 0x00, 0x00, 0x00, 0x00, 0x3C, 0x00, 0xE2, 0x03, 0x00, 0x80, 0x88, 
  0x3F, 0x00, 0x10, 0x80, 0x00, 0x00, 0x78, 0x00, 0xE2, 0x00, 0x00, 0x00, 
  0xC4, 0x7C, 0x00, 0x00, 0x00, 0x00, 0x00, 0xF0, 0x00, 0xF8, 0x00, 0x00, 
  0x00, 0x60, 0xFE, 0x00, 0x00, 0x10, 0x00, 0x00, 0xE1, 0x00, 0x3D, 0x00, 
  0x00, 0x00, 0x10, 0xF3, 0x01, 0x00, 0x00, 0x00, 0x00, 0xC8, 0x05, 0x1E, 
  0x10, 0x00, 0x20, 0x01, 0xF9, 0x03, 0x00, 0x00, 0x80, 0x00, 0x90, 0x07, 
  0x1F, 0x00, 0x04, 0x00, 0x40, 0xCC, 0x07, 0x00, 0x00, 0x00, 0x00, 0x64, 
  0x06, 0x0E, 0x00, 0x00, 0x00, 0x00, 0x62, 0x0F, 0x08, 0x00, 0x01, 0x80, 
  0xC4, 0x06, 0x06, 0x00, 0x00, 0x00, 0x00, 0xB2, 0x1F, 0x00, 0x00, 0x00, 
  0x00, 0x98, 0x07, 0x01, 0x00, 0x20, 0x00, 0x00, 0xD8, 0x3F, 0x00, 0x00, 
  0x00, 0x00, 0xB3, 0x06, 0x02, 0x20, 0x00, 0x00, 0x00, 0xE8, 0x79, 0x04, 
  0x02, 0x00, 0x20, 0xF6, 0x07, 0x06, 0x00, 0x00, 0x10, 0x00, 0xF0, 0xF0, 
  0x00, 0x00, 0x00, 0x60, 0xEC, 0x00, 0x02, 0x00, 0x00, 0x00, 0x20, 0x78, 
  0xE0, 0x01, 0x00, 0x00, 0x88, 0xFD, 0x00, 0x02, 0x00, 0x00, 0x00, 0x00, 
  0x3C, 0xC0, 0x03, 0x00, 0x00, 0x90, 0x7B, 0x04, 0x22, 0x00, 0x00, 0x40, 
  0x00, 0x1E, 0x00, 0x07, 0x00, 0x00, 0x72, 0x7F, 0x00, 0x02, 0x00, 0x00, 
  0x00, 0x00, 0x0F, 0x00, 0x0F, 0x00, 0x00, 0xC4, 0x1E, 0x04, 0x05, 0x00, 
  0x00, 0x00, 0xC0, 0x07, 0x00, 0x1E, 0x00, 0x82, 0x8C, 0x0F, 0x00, 0x02, 
  0x00, 0x00, 0x00, 0xC0, 0x03, 0x00, 0x3C, 0x01, 0x00, 0xB1, 0x07, 0x04, 
  0x00, 0x02, 0x08, 0x00, 0xE0, 0x01, 0x00, 0x70, 0x00, 0x20, 0xF2, 0x03, 
  0x00, 0x07, 0x00, 0x00, 0x00, 0xF0, 0x00, 0x00, 0xF0, 0x00, 0x40, 0xEE, 
  0x01, 0x04, 0x02, 0x00, 0x10, 0x00, 0x78, 0x00, 0x00, 0xE0, 0x01, 0xC0, 
  0xFD, 0x01, 0x00, 0x02, 0x20, 0x00, 0x00, 0x3C, 0x00, 0x00, 0xC0, 0x03, 
  0x18, 0x79, 0x00, 0x04, 0x02, 0x00, 0x00, 0x00, 0x1E, 0x00, 0x00, 0x80, 
  0x07, 0x30, 0x3F, 0x00, 0x04, 0x06, 0x00, 0x00, 0x00, 0x0F, 0x00, 0x00, 
  0x00, 0x0F, 0x64, 0x3E, 0x00, 0x00, 0x02, 0x00, 0x00, 0x80, 0x07, 0x00, 
  0x00, 0x00, 0x1E, 0xCC, 0x0F, 0x00, 0x00, 0x01, 0x00, 0x00, 0xC0, 0x03, 
  0x00, 0x00, 0x00, 0xBC, 0xD9, 0x07, 0x00, 0x04, 0x02, 0x00, 0x00, 0xE0, 
  0x01, 0x00, 0x00, 0x00, 0x78, 0xF3, 0x07, 0x00, 0x00, 0x24, 0x00, 0x80, 
  0xF0, 0x00, 0x00, 0x00, 0x00, 0xF0, 0xE6, 0x01, 0x00, 0x04, 0x07, 0x00, 
  0x00, 0x78, 0x00, 0x00, 0x00, 0x00, 0xE0, 0xFD, 0x00, 0x02, 0x04, 0x00, 
  0x02, 0x00, 0x3C, 0x00, 0x00, 0x00, 0x00, 0xC0, 0x7F, 0x00, 0x00, 0x00, 
  0x00, 0x80, 0x00, 0x1E, 0x00, 0x00, 0x00, 0x00, 0x00, 0x3F, 0x00, 0x04, 
  0x00, 0x07, 0x00, 0x00, 0x0F, 0x00, 0x00, 0x00, 0x00, 0x00, 0x1F, 0x80, 
  0x00, 0x04, 0x02, 0x00, 0x80, 0x0F, 0x00, 0x00, 0x00, 0x00, 0x00, 0x1F, 
  0x00, 0x00, 0x00, 0x02, 0x00, 0xC0, 0x1F, 0x00, 0x00, 0x00, 0x00, 0x80, 
  0x07, 0x00, 0x00, 0x04, 0x41, 0x00, 0xE0, 0x3F, 0x00, 0x00, 0x00, 0x00, 
  0xC0, 0x03, 0x00, 0x00, 0x00, 0x06, 0x00, 0xF0, 0x7B, 0x00, 0x00, 0x00, 
  0x00, 0xE0, 0x01, 0x00, 0x00, 0x00, 0x00, 0x00, 0xF8, 0xF6, 0x00, 0x00, 
  0x00, 0x00, 0xF0, 0x08, 0x02, 0x00, 0x00, 0x03, 0x02, 0xFC, 0xEC, 0x01, 
  0x00, 0x00, 0x00, 0x78, 0x00, 0x00, 0x00, 0x04, 0x00, 0x00, 0xBE, 0xD9, 
  0x03, 0x00, 0x00, 0x00, 0x3C, 0x00, 0x00, 0x00, 0x04, 0x07, 0x00, 0x3F, 
  0x83, 0x07, 0x00, 0x00, 0x00, 0x1E, 0x00, 0x00, 0x00, 0x00, 0x02, 0x80, 
  0x67, 0x02, 0x0F, 0x00, 0x00, 0x00, 0x0F, 0x20, 0x00, 0x00, 0x00, 0x04, 
  0xC0, 0xCF, 0x04, 0x1E, 0x00, 0x00, 0x00, 0x07, 0x00, 0x00, 0x00, 0x04, 
  0x03, 0xE0, 0x8B, 0x40, 0x3C, 0x00, 0x00, 0xC0, 0x03, 0x00, 0x00, 0x00, 
  0x04, 0x12, 0xF0, 0x33, 0x00, 0x78, 0x00, 0x00, 0xC0, 0x41, 0x00, 0x00, 
  0x08, 0x00, 0x00, 0x78, 0x26, 0x02, 0xF0, 0x00, 0x00, 0xF0, 0x00, 0x00, 
  0x20, 0x00, 0x04, 0x07, 0xFC, 0x4C, 0x00, 0xE0, 0x01, 0x00, 0x78, 0x00, 
  0x00, 0x00, 0x00, 0x00, 0x02, 0xFE, 0x09, 0x00, 0xC1, 0x03, 0x00, 0x3C, 
  0x08, 0x00, 0x00, 0x00, 0x04, 0x80, 0x3F, 0x11, 0x00, 0x80, 0x07, 0x00, 
  0x1E, 0x00, 0x10, 0x00, 0x10, 0x00, 0x85, 0x67, 0x02, 0x20, 0x00, 0x0F, 
  0x00, 0x0F, 0x00, 0x00, 0x00, 0x00, 0x04, 0xC2, 0x6F, 0x04, 0x00, 0x00, 
  0x1E, 0x00, 0x07, 0x00, 0x00, 0x00, 0x00, 0x00, 0xE2, 0xCD, 0x00, 0x00, 
  0x00, 0x3C, 0x80, 0x03, 0x00, 0x00, 0x00, 0x00, 0x04, 0xF2, 0x13, 0x81, 
  0x00, 0x00, 0x78, 0xE0, 0x01, 0x01, 0x00, 0x10, 0x00, 0x00, 0xFE, 0x33, 
  0x00, 0x00, 0x40, 0xF0, 0xF0, 0x80, 0x00, 0x80, 0x00, 0x00, 0x00, 0x7E, 
  0x46, 0x00, 0x00, 0x00, 0xE0, 0x79, 0x02, 0x00, 0x00, 0x00, 0x00, 0x00, 
  0xFE, 0x09, 0x00, 0x00, 0x00, 0xC2, 0x3F, 0x01, 0x00, 0x00, 0x02, 0x00, 
  0x04, 0x1E, 0x21, 0x00, 0x00, 0x00, 0x80, 0xDF, 0x08, 0x00, 0x00, 0x00, 
  0x00, 0x04, 0x3F, 0x03, 0x01, 0x08, 0x00, 0x00, 0xFF, 0x06, 0x00, 0x00, 
  0x00, 0x00, 0x06, 0x6E, 0x04, 0x00, 0x00, 0x00, 0x00, 0x3E, 0x23, 0x00, 
  0x00, 0x00, 0x04, 0x06, 0xDE, 0x08, 0x00, 0x00, 0x00, 0x00, 0xBC, 0x11, 
  0x00, 0x00, 0x00, 0x80, 0x07, 0xBE, 0x00, 0x00, 0x01, 0x01, 0x00, 0xF8, 
  0x8C, 0x00, 0x01, 0x00, 0xC0, 0x02, 0x7A, 0x00, 0x00, 0x00, 0x00, 0x00, 
  0xF0, 0x46, 0x10, 0x00, 0x00, 0xE0, 0x00, 0xF1, 0x00, 0x00, 0x00, 0x00, 
  0x00, 0xE0, 0x37, 0x01, 0x00, 0x00, 0xF2, 0x04, 0xE2, 0x01, 0x40, 0x00, 
  0x00, 0x00, 0xC0, 0xBB, 0x01, 0x00, 0x00, 0x79, 0x00, 0xC0, 0x07, 0x00, 
  0x00, 0x00, 0x00, 0x80, 0x8F, 0x08, 0x00, 0x00, 0x3C, 0x00, 0x02, 0x07, 
  0x00, 0x00, 0x80, 0x00, 0x80, 0x6F, 0x04, 0x00, 0x00, 0x1E, 0x00, 0x01, 
  0x0F, 0x00, 0x00, 0x00, 0x00, 0x00, 0x7E, 0x23, 0x20, 0x00, 0x0F, 0x00, 
  0x00, 0x1C, 0x00, 0x00, 0x00, 0x00, 0x00, 0xBC, 0x11, 0x00, 0x80, 0x03, 
  0x00, 0x02, 0x7C, 0x02, 0x00, 0x10, 0x00, 0x00, 0xF8, 0x9D, 0x00, 0xC0, 
  0x03, 0x00, 0x02, 0x78, 0x00, 0x00, 0x00, 0x00, 0x00, 0xF0, 0xCC, 0x00, 
  0xE2, 0x01, 0x00, 0x00, 0xF0, 0x00, 0x40, 0x00, 0x40, 0x00, 0xE0, 0x27, 
  0x04, 0xF0, 0x00, 0x04, 0x02, 0xC0, 0x01, 0x00, 0x00, 0x00, 0x00, 0xE0, 
  0x3B, 0x01, 0x78, 0x00, 0x00, 0x02, 0xC0, 0x07, 0x40, 0x00, 0x08, 0x00, 
  0x80, 0x9F, 0x09, 0x1C, 0x00, 0x00, 0x02, 0x00, 0x07, 0x00, 0x00, 0x00, 
  0x00, 0x00, 0xCF, 0x04, 0x1E, 0x00, 0x00, 0x02, 0x00, 0x0F, 0x00, 0x00, 
  0x00, 0x01, 0x00, 0x7E, 0x22, 0x0F, 0x00, 0x00, 0x04, 0x00, 0x3C, 0x00, 
  0x00, 0x00, 0x00, 0x00, 0x7C, 0xB3, 0x07, 0x00, 0x00, 0x04, 0x00, 0x3C, 
  0x00, 0x04, 0x00, 0x00, 0x00, 0xF8, 0xC9, 0x03, 0x00, 0x00, 0x04, 0x00, 
  0x78, 0x00, 0x00, 0x00, 0x08, 0x00, 0xF0, 0xEE, 0x01, 0x00, 0x00, 0x00, 
  0x00, 0xF0, 0x01, 0x00, 0x00, 0x00, 0x00, 0xE0, 0x77, 0x00, 0x00, 0x00, 
  0x10, 0x00, 0xC0, 0x03, 0x00, 0x00, 0x00, 0x00, 0xC0, 0x7F, 0x00, 0x40, 
  0x00, 0x40, 0x00, 0xC0, 0x13, 0x05, 0x52, 0x08, 0x85, 0x91, 0x3F, 0x00, 
  0x00, 0x00, 0x00, 0x15, 0xD5, 0x5F, 0x77, 0x7B, 0xBB, 0xB7, 0xDE, 0xBF, 
  0xA9, 0x09, 0x00, 0x00, 0x20, 0x00, 0x80, 0x00, 0x00, 0x00, 0x00, 0x00, 
  0x02, 0x00, 0x00, 0x00, };
