#define sh52_width 100
#define sh52_height 100
static char sh52_bits[] = {
  0x00, 0x20, 0x00, 0x05, 0x00, 0x20, 0x40, 0x82, 0x14, 0x01, 0x24, 0x00, 
  0x00, 0x80, 0x97, 0xED, 0xFF, 0xFF, 0xDF, 0xBF, 0x7E, 0xA6, 0xFF, 0x93, 
  0x1D, 0x00, 0x40, 0x00, 0xC0, 0x9F, 0x24, 0x41, 0x42, 0x22, 0xAA, 0x3E, 
  0x00, 0x60, 0x00, 0x10, 0x00, 0xE0, 0x3F, 0x00, 0x00, 0x00, 0x00, 0x00, 
  0x7C, 0x00, 0x80, 0x00, 0x08, 0x00, 0xF0, 0x7F, 0x00, 0x04, 0x00, 0x00, 
  0x00, 0xF0, 0x00, 0x00, 0x00, 0x04, 0x00, 0x70, 0xF3, 0x01, 0x00, 0x00, 
  0x00, 0x00, 0xE0, 0x00, 0x00, 0x02, 0x04, 0x00, 0xBC, 0xF9, 0x01, 0x00, 
  0x20, 0x04, 0x20, 0xE0, 0x03, 0x00, 0x02, 0x00, 0x00, 0x9E, 0xDC, 0x03, 
  0x00, 0x00, 0x00, 0x00, 0x80, 0x03, 0x00, 0x02, 0x02, 0x00, 0x4F, 0xE4, 
  0x07, 0x00, 0x00, 0x00, 0x00, 0x80, 0x0F, 0x00, 0x04, 0x00, 0x00, 0x0F, 
  0x66, 0x0F, 0x10, 0x00, 0x00, 0x00, 0x00, 0x1E, 0x00, 0x00, 0x00, 0xC0, 
  0x03, 0x91, 0x1F, 0x00, 0x00, 0x00, 0x02, 0x00, 0x3C, 0x00, 0x04, 0x02, 
  0xE0, 0x01, 0xD8, 0x3F, 0x01, 0x00, 0x40, 0x00, 0x00, 0x3C, 0x00, 0x04, 
  0x00, 0xE0, 0x01, 0x44, 0x7C, 0x00, 0x20, 0x00, 0x00, 0x00, 0xF0, 0x00, 
  0x00, 0x02, 0x78, 0x00, 0x60, 0xF7, 0x00, 0x00, 0x00, 0x00, 0x04, 0xF0, 
  0x00, 0x04, 0x00, 0x7C, 0x00, 0x10, 0xFB, 0x01, 0x08, 0x00, 0x00, 0x00, 
  0xC0, 0x03, 0x04, 0x00, 0x1C, 0x00, 0x80, 0xD8, 0x03, 0x00, 0x00, 0x00, 
  0x00, 0x80, 0x03, 0x04, 0x02, 0x1F, 0x00, 0x40, 0xEC, 0x07, 0x00, 0x00, 
  0x00, 0x00, 0x80, 0x0F, 0x00, 0x02, 0x07, 0x00, 0x00, 0x62, 0x0F, 0x10, 
  0x00, 0x00, 0x00, 0x00, 0x0F, 0x04, 0xC2, 0x03, 0x00, 0x00, 0xB1, 0x1F, 
  0x00, 0x00, 0x20, 0x00, 0x00, 0x3C, 0x00, 0xE0, 0x01, 0x10, 0x80, 0x88, 
  0x3F, 0x00, 0x00, 0x00, 0x00, 0x00, 0x38, 0x04, 0xE2, 0x00, 0x00, 0x00, 
  0xC4, 0x7C, 0x00, 0x00, 0x00, 0x00, 0x00, 0xF0, 0x04, 0xF8, 0x00, 0x00, 
  0x00, 0x20, 0xFE, 0x00, 0x00, 0x40, 0x00, 0x00, 0xE0, 0x04, 0x3E, 0x02, 
  0x00, 0x00, 0x20, 0xF3, 0x01, 0x40, 0x00, 0x00, 0x02, 0xC8, 0x07, 0x1E, 
  0x00, 0x00, 0x01, 0x80, 0xF9, 0x03, 0x00, 0x00, 0x20, 0x00, 0xB0, 0x07, 
  0x0E, 0x01, 0x00, 0x00, 0x42, 0xCC, 0x07, 0x00, 0x00, 0x01, 0x00, 0x60, 
  0x07, 0x06, 0x00, 0x40, 0x00, 0x00, 0x66, 0x0F, 0x20, 0x00, 0x00, 0x00, 
  0xCC, 0x0F, 0x06, 0x00, 0x01, 0x00, 0x00, 0xB1, 0x1F, 0x00, 0x00, 0x00, 
  0x80, 0x98, 0x07, 0x02, 0x00, 0x00, 0x00, 0x00, 0xD0, 0x3F, 0x00, 0x00, 
  0x00, 0x00, 0xB3, 0x07, 0x02, 0x00, 0x00, 0x40, 0x00, 0xEC, 0x79, 0x00, 
  0x00, 0x00, 0x00, 0xF6, 0x07, 0x04, 0x80, 0x00, 0x00, 0x00, 0xF0, 0xF0, 
  0x00, 0x02, 0x00, 0xE0, 0xEE, 0x07, 0x02, 0x00, 0x00, 0x00, 0x80, 0x78, 
  0xE0, 0x01, 0x00, 0x00, 0x88, 0xFC, 0x04, 0x02, 0x00, 0x00, 0x00, 0x00, 
  0x3C, 0xC0, 0x03, 0x00, 0x00, 0x90, 0xFB, 0x04, 0x24, 0x00, 0x00, 0x80, 
  0x20, 0x1E, 0x80, 0x07, 0x00, 0x00, 0x72, 0x3F, 0x0E, 0x02, 0x04, 0x00, 
  0x00, 0x00, 0x0F, 0x00, 0x0F, 0x00, 0x00, 0x44, 0x1E, 0x00, 0x02, 0x00, 
  0x00, 0x00, 0x80, 0x07, 0x00, 0x1E, 0x10, 0x80, 0xCC, 0x0F, 0x00, 0x02, 
  0x00, 0x00, 0x00, 0xC0, 0x03, 0x00, 0x3C, 0x00, 0x00, 0xB1, 0x07, 0x06, 
  0x02, 0x00, 0x00, 0x00, 0xE0, 0x01, 0x00, 0x78, 0x00, 0x00, 0xF3, 0x03, 
  0x04, 0x02, 0x00, 0x02, 0x00, 0xF0, 0x00, 0x00, 0xF0, 0x00, 0x60, 0xE6, 
  0x01, 0x04, 0x02, 0x00, 0x00, 0x00, 0x78, 0x00, 0x00, 0xE0, 0x01, 0x8C, 
  0xFC, 0x00, 0x04, 0x02, 0x00, 0x20, 0x00, 0x3C, 0x00, 0x00, 0xC0, 0x03, 
  0x90, 0x7D, 0x00, 0x04, 0x02, 0x00, 0x00, 0x00, 0x1E, 0x00, 0x00, 0x80, 
  0x07, 0x30, 0x3F, 0x80, 0x02, 0x04, 0x00, 0x00, 0x20, 0x0F, 0x00, 0x00, 
  0x00, 0x0F, 0x64, 0x1E, 0x00, 0x0C, 0x02, 0x20, 0x00, 0x80, 0x07, 0x00, 
  0x00, 0x00, 0x1E, 0xCC, 0x0F, 0x00, 0x06, 0x02, 0x00, 0x00, 0xC0, 0x03, 
  0x00, 0x00, 0x00, 0xBC, 0xD9, 0x07, 0x00, 0x00, 0x02, 0x00, 0x10, 0xE0, 
  0x01, 0x00, 0x00, 0x00, 0x78, 0xF3, 0x03, 0x00, 0x04, 0x04, 0x00, 0x00, 
  0xF0, 0x00, 0x00, 0x00, 0x00, 0xF0, 0xF6, 0x01, 0x00, 0x04, 0x02, 0x10, 
  0x00, 0x78, 0x00, 0x00, 0x00, 0x00, 0xE0, 0xFD, 0x00, 0x00, 0x04, 0x06, 
  0x00, 0x00, 0x3C, 0x00, 0x00, 0x00, 0x00, 0xC0, 0x7F, 0x40, 0x02, 0x06, 
  0x00, 0x00, 0x00, 0x1E, 0x00, 0x00, 0x00, 0x00, 0x80, 0x3F, 0x01, 0x00, 
  0x02, 0x02, 0x00, 0x10, 0x0F, 0x00, 0x00, 0x00, 0x00, 0x00, 0x1F, 0x00, 
  0x00, 0x0C, 0x04, 0x20, 0x80, 0x0F, 0x00, 0x00, 0x00, 0x00, 0x00, 0x0F, 
  0x00, 0x00, 0x00, 0x82, 0x00, 0xC0, 0x0F, 0x00, 0x00, 0x00, 0x00, 0x00, 
  0x07, 0x00, 0x80, 0x04, 0x02, 0x00, 0xE0, 0x3F, 0x00, 0x00, 0x00, 0x00, 
  0xC0, 0x03, 0x00, 0x00, 0x02, 0x02, 0x00, 0xF0, 0x7B, 0x00, 0x00, 0x00, 
  0x00, 0xE0, 0x01, 0x00, 0x00, 0x04, 0x00, 0x00, 0x78, 0xF6, 0x00, 0x00, 
  0x00, 0x00, 0xF0, 0x80, 0x00, 0x02, 0x04, 0x06, 0x00, 0xFC, 0xEC, 0x00, 
  0x00, 0x00, 0x00, 0x78, 0x00, 0x00, 0x00, 0x06, 0x02, 0x00, 0xBE, 0xD9, 
  0x03, 0x00, 0x00, 0x00, 0x3C, 0x00, 0x00, 0x00, 0x04, 0x02, 0x01, 0x3F, 
  0x83, 0x07, 0x00, 0x00, 0x00, 0x1E, 0x00, 0x40, 0x00, 0x04, 0x46, 0x80, 
  0x67, 0x02, 0x0F, 0x00, 0x00, 0x00, 0x0F, 0x00, 0x00, 0x02, 0x06, 0x00, 
  0xC0, 0xCF, 0x04, 0x0E, 0x00, 0x00, 0x00, 0x07, 0x00, 0x00, 0x00, 0x04, 
  0x02, 0xE0, 0x9D, 0x00, 0x3C, 0x00, 0x00, 0x80, 0x03, 0x04, 0x00, 0x00, 
  0x06, 0x02, 0xF0, 0x13, 0x40, 0x78, 0x00, 0x00, 0xE0, 0x01, 0x00, 0x00, 
  0x00, 0x04, 0x02, 0x78, 0x67, 0x00, 0xF0, 0x00, 0x00, 0xF0, 0x00, 0x20, 
  0x00, 0x00, 0x02, 0x04, 0xFC, 0x84, 0x00, 0xE0, 0x00, 0x00, 0x78, 0x00, 
  0x00, 0x00, 0x00, 0x04, 0x02, 0xDE, 0x18, 0x00, 0xE0, 0x03, 0x00, 0x3C, 
  0x00, 0x00, 0x00, 0x80, 0x04, 0x06, 0xBF, 0x03, 0x00, 0x80, 0x07, 0x00, 
  0x1E, 0x00, 0x00, 0x00, 0x00, 0x06, 0x80, 0x37, 0x12, 0x00, 0x00, 0x0F, 
  0x00, 0x0F, 0x00, 0x00, 0x00, 0x00, 0x04, 0xC2, 0x6F, 0x04, 0x00, 0x00, 
  0x0E, 0x80, 0x07, 0x08, 0x40, 0x00, 0x00, 0x04, 0xE0, 0xCD, 0x00, 0x10, 
  0x80, 0x3C, 0xC0, 0x03, 0x00, 0x20, 0x00, 0x00, 0x04, 0xF2, 0x19, 0x01, 
  0x00, 0x00, 0x78, 0xC0, 0x01, 0x02, 0x00, 0x00, 0x00, 0x04, 0xFE, 0x33, 
  0x00, 0x00, 0x00, 0xF0, 0xF0, 0x00, 0x00, 0x00, 0x40, 0x00, 0x0E, 0x7E, 
  0x46, 0x00, 0x00, 0x00, 0xE0, 0x79, 0x03, 0x00, 0x00, 0x00, 0x00, 0x00, 
  0xDE, 0x0C, 0x00, 0x08, 0x00, 0xC0, 0x3F, 0x01, 0x00, 0x00, 0x02, 0x01, 
  0x04, 0x9E, 0x01, 0x00, 0x00, 0x00, 0x82, 0xDF, 0x04, 0x00, 0x00, 0x00, 
  0x00, 0x06, 0x3E, 0x12, 0x01, 0x00, 0x00, 0x80, 0x7F, 0x04, 0x00, 0x00, 
  0x00, 0x00, 0x0E, 0x6E, 0x02, 0x00, 0x00, 0x00, 0x00, 0x7E, 0x23, 0x00, 
  0x00, 0x00, 0x00, 0x07, 0xDF, 0x00, 0x00, 0x00, 0x01, 0x00, 0xBE, 0x11, 
  0x00, 0x00, 0x00, 0x90, 0x07, 0xBE, 0x00, 0x00, 0x00, 0x00, 0x00, 0xF8, 
  0x8C, 0x00, 0x00, 0x00, 0xC0, 0x07, 0x78, 0x02, 0x00, 0x00, 0x00, 0x00, 
  0xF0, 0x4F, 0x00, 0x04, 0x00, 0xE2, 0x04, 0xF0, 0x00, 0x00, 0x01, 0x00, 
  0x00, 0xE0, 0x33, 0x81, 0x00, 0x00, 0xF0, 0x04, 0xE0, 0x01, 0x00, 0x00, 
  0x00, 0x00, 0xC0, 0x9B, 0x01, 0x00, 0x00, 0x78, 0x00, 0xC0, 0x23, 0x00, 
  0x02, 0x00, 0x01, 0x82, 0x9F, 0x04, 0x00, 0x40, 0x3C, 0x04, 0x02, 0x07, 
  0x00, 0x00, 0x00, 0x80, 0x00, 0x6F, 0x04, 0x80, 0x00, 0x0E, 0x04, 0x02, 
  0x0F, 0x00, 0x00, 0x00, 0x00, 0x00, 0x7E, 0x23, 0x00, 0x00, 0x0F, 0x00, 
  0x02, 0x1E, 0x00, 0x00, 0x00, 0x00, 0x80, 0xBE, 0x11, 0x00, 0x80, 0x03, 
  0x00, 0x00, 0x3C, 0x00, 0x00, 0x00, 0x00, 0x00, 0xF8, 0x9D, 0x00, 0xC0, 
  0x03, 0x04, 0x00, 0x78, 0x01, 0x08, 0x00, 0x00, 0x00, 0xF0, 0xCE, 0x00, 
  0xE0, 0x01, 0x04, 0x00, 0xF0, 0x00, 0x00, 0x08, 0x00, 0x00, 0xE0, 0x23, 
  0x04, 0xF8, 0x00, 0x04, 0x02, 0xE0, 0x21, 0x00, 0x00, 0x00, 0x00, 0xE0, 
  0x3B, 0x01, 0x38, 0x00, 0x00, 0x02, 0xC0, 0x03, 0x00, 0x00, 0x00, 0x10, 
  0x80, 0x9F, 0x01, 0x3C, 0x00, 0x04, 0x02, 0x00, 0x07, 0x80, 0x00, 0x10, 
  0x00, 0x00, 0xCF, 0x04, 0x1F, 0x00, 0x04, 0x00, 0x00, 0x0F, 0x00, 0x04, 
  0x00, 0x00, 0x00, 0x7E, 0x26, 0x07, 0x00, 0x00, 0x06, 0x00, 0x1E, 0x00, 
  0x00, 0x00, 0x00, 0x00, 0xBC, 0xB3, 0x07, 0x00, 0x02, 0x00, 0x00, 0x3C, 
  0x00, 0x00, 0x00, 0x00, 0x00, 0xF8, 0xC9, 0x03, 0x00, 0x00, 0x00, 0x00, 
  0x78, 0x00, 0x00, 0x00, 0x00, 0x00, 0xF0, 0xEC, 0x00, 0x00, 0x02, 0x00, 
  0x00, 0xF0, 0x00, 0x00, 0x00, 0x00, 0x00, 0xE0, 0x77, 0x00, 0x00, 0x00, 
  0x00, 0x00, 0x40, 0x00, 0x00, 0x00, 0x00, 0x00, 0x80, 0x08, 0x00, 0x00, 
  0x00, 0x00, 0x00, 0x80, 0x13, 0x00, 0x00, 0x00, 0x00, 0x81, 0x3F, 0x00, 
  0x50, 0x00, 0x00, 0x00, 0xCA, 0x4F, 0x92, 0x65, 0x59, 0x66, 0x69, 0x9F, 
  0x81, 0x02, 0x00, 0x00, 0x00, 0x00, 0x00, 0x00, 0x00, 0x00, 0x00, 0x00, 
  0x00, 0x00, 0x00, 0x00, };
