#define sh53_width 100
#define sh53_height 100
static char sh53_bits[] = {
  0x00, 0x00, 0x00, 0x08, 0x00, 0x04, 0x00, 0x00, 0x00, 0x00, 0x00, 0x00, 
  0x00, 0x00, 0x71, 0xDC, 0xEF, 0xDE, 0xFA, 0xDD, 0xBA, 0xB7, 0xBF, 0xB2, 
  0x0C, 0x00, 0x00, 0x00, 0xC0, 0x5F, 0x12, 0x01, 0xA2, 0x84, 0x48, 0x3C, 
  0x00, 0x50, 0x00, 0x10, 0x00, 0xE0, 0x3F, 0x00, 0x00, 0x00, 0x00, 0x00, 
  0x7C, 0x00, 0x80, 0x00, 0x00, 0x00, 0xF0, 0x7E, 0x00, 0x00, 0x00, 0x00, 
  0x00, 0xF8, 0x00, 0x00, 0x00, 0x00, 0x00, 0x78, 0xF7, 0x00, 0x00, 0x00, 
  0x00, 0x00, 0xE0, 0x00, 0x00, 0x02, 0x00, 0x00, 0xBC, 0xF9, 0x01, 0x02, 
  0x00, 0x00, 0x00, 0xC0, 0x03, 0x00, 0x00, 0x00, 0x00, 0x9E, 0xDC, 0x03, 
  0x00, 0x00, 0x08, 0x00, 0xC0, 0x03, 0x00, 0x06, 0x00, 0x00, 0x4F, 0xE6, 
  0x07, 0x00, 0x00, 0x00, 0x80, 0x00, 0x0F, 0x00, 0x04, 0x00, 0x80, 0x27, 
  0x32, 0x0F, 0x00, 0x00, 0x00, 0x00, 0x02, 0x1E, 0x00, 0x00, 0x00, 0xC0, 
  0x03, 0x98, 0x1F, 0x00, 0x00, 0x00, 0x00, 0x00, 0x3C, 0x00, 0x04, 0x00, 
  0xE0, 0x01, 0xC8, 0x3F, 0x00, 0x40, 0x00, 0x00, 0x00, 0x7C, 0x00, 0x04, 
  0x00, 0xF0, 0x00, 0xC4, 0x7C, 0x00, 0x00, 0x20, 0x00, 0x00, 0xF0, 0x00, 
  0x00, 0x02, 0x78, 0x00, 0x20, 0xF7, 0x00, 0x00, 0x00, 0x00, 0x00, 0xF0, 
  0x00, 0x08, 0x00, 0x3C, 0x00, 0x90, 0xFB, 0x01, 0x08, 0x00, 0x02, 0x00, 
  0xC0, 0x03, 0x04, 0x00, 0x1C, 0x08, 0x80, 0xD8, 0x83, 0x00, 0x00, 0x00, 
  0x40, 0x80, 0x07, 0x04, 0x00, 0x0F, 0x00, 0x00, 0xEC, 0x07, 0x00, 0x00, 
  0x00, 0x00, 0x00, 0x0F, 0x08, 0x82, 0x87, 0x00, 0x40, 0x62, 0x0F, 0x00, 
  0x00, 0x00, 0x00, 0x00, 0x0F, 0x04, 0x80, 0x03, 0x00, 0x04, 0xB1, 0x1F, 
  0x00, 0x00, 0x00, 0x00, 0x80, 0x3C, 0x00, 0xE0, 0x01, 0x00, 0x00, 0x88, 
  0x3F, 0x00, 0x10, 0x02, 0x00, 0x00, 0x78, 0x04, 0xF0, 0x01, 0x00, 0x00, 
  0xC4, 0x7C, 0x40, 0x00, 0x00, 0x00, 0x00, 0xF0, 0x04, 0x70, 0x00, 0x40, 
  0x00, 0x60, 0xFE, 0x00, 0x00, 0x00, 0x01, 0x00, 0xE0, 0x01, 0x36, 0x00, 
  0x00, 0x00, 0x00, 0xF3, 0x01, 0x00, 0x00, 0x00, 0x08, 0xC8, 0x07, 0x1E, 
  0x00, 0x00, 0x00, 0x80, 0xF9, 0x03, 0x00, 0x00, 0x00, 0x00, 0xB0, 0x07, 
  0x06, 0x02, 0x00, 0x00, 0x40, 0xCC, 0x07, 0x00, 0x00, 0x00, 0x00, 0x62, 
  0x0F, 0x06, 0x00, 0x00, 0x08, 0x01, 0x66, 0x0F, 0x04, 0x00, 0x20, 0x00, 
  0xC4, 0x07, 0x02, 0x00, 0x00, 0x00, 0x00, 0xB0, 0x1F, 0x00, 0x10, 0x00, 
  0x40, 0x98, 0x0F, 0x02, 0x80, 0x00, 0x10, 0x00, 0xD8, 0x3F, 0x00, 0x00, 
  0x00, 0x00, 0xF3, 0x07, 0x00, 0x00, 0x00, 0x00, 0x00, 0xEC, 0x79, 0x00, 
  0x80, 0x00, 0x40, 0xF6, 0x07, 0x00, 0x00, 0x00, 0x00, 0x00, 0x70, 0xF0, 
  0x00, 0x00, 0x00, 0x60, 0xEC, 0x07, 0x00, 0x00, 0x00, 0x00, 0x00, 0x78, 
  0xE0, 0x01, 0x00, 0x00, 0x88, 0xFD, 0x04, 0x02, 0x00, 0x02, 0x00, 0x10, 
  0x3C, 0xC0, 0x07, 0x00, 0x00, 0x90, 0x7B, 0x04, 0x00, 0x00, 0x00, 0x00, 
  0x00, 0x1E, 0x80, 0x07, 0x00, 0x00, 0x22, 0x3E, 0x04, 0x02, 0x00, 0x80, 
  0x04, 0x80, 0x0F, 0x00, 0x0F, 0x00, 0x00, 0xEC, 0x1F, 0x04, 0x02, 0x00, 
  0x00, 0x00, 0x80, 0x03, 0x00, 0x1E, 0x20, 0x80, 0xCC, 0x0F, 0x06, 0x00, 
  0x00, 0x00, 0x00, 0xC0, 0x03, 0x00, 0x3C, 0x00, 0x00, 0xB1, 0x07, 0x04, 
  0x00, 0x00, 0x00, 0x00, 0xE0, 0x00, 0x00, 0x78, 0x00, 0x20, 0xF6, 0x03, 
  0x06, 0x02, 0x28, 0x00, 0x00, 0xF0, 0x00, 0x00, 0xF0, 0x00, 0x40, 0xE6, 
  0x01, 0x04, 0x00, 0x00, 0x00, 0x00, 0x78, 0x00, 0x00, 0xE0, 0x01, 0xCC, 
  0xFC, 0x04, 0x00, 0x02, 0x00, 0x00, 0x00, 0x3C, 0x00, 0x00, 0xC0, 0x23, 
  0x10, 0x7F, 0x00, 0x0C, 0x02, 0x00, 0x00, 0x00, 0x0E, 0x00, 0x00, 0x80, 
  0x07, 0x32, 0x3F, 0x00, 0x00, 0x00, 0x00, 0x01, 0x00, 0x0F, 0x00, 0x00, 
  0x00, 0x0F, 0x64, 0x1E, 0x00, 0x0E, 0x00, 0x00, 0x00, 0x80, 0x07, 0x00, 
  0x00, 0x00, 0x1E, 0xCC, 0x0F, 0x80, 0x04, 0x02, 0x00, 0x00, 0xE0, 0x03, 
  0x00, 0x00, 0x00, 0xBC, 0xD9, 0x07, 0x04, 0x04, 0x00, 0x01, 0x00, 0xE0, 
  0x01, 0x00, 0x00, 0x00, 0x78, 0xF3, 0x03, 0x00, 0x08, 0x02, 0x00, 0x00, 
  0xF1, 0x00, 0x00, 0x00, 0x00, 0xF0, 0xF6, 0x01, 0x00, 0x04, 0x02, 0x00, 
  0x10, 0x38, 0x00, 0x00, 0x00, 0x00, 0xE0, 0xFD, 0x00, 0x00, 0x06, 0x00, 
  0x00, 0x00, 0x3C, 0x00, 0x00, 0x00, 0x00, 0xC0, 0x7F, 0x00, 0x00, 0x04, 
  0x00, 0x00, 0x00, 0x1E, 0x00, 0x00, 0x00, 0x00, 0x80, 0x3F, 0x01, 0x00, 
  0x04, 0x02, 0x80, 0x00, 0x0F, 0x00, 0x00, 0x00, 0x00, 0x00, 0x1F, 0x00, 
  0x80, 0x06, 0x00, 0x00, 0x80, 0x0F, 0x00, 0x00, 0x00, 0x00, 0x00, 0x0F, 
  0x00, 0x00, 0x04, 0x02, 0x00, 0xE0, 0x1F, 0x00, 0x00, 0x00, 0x00, 0x80, 
  0x07, 0x00, 0x00, 0x04, 0x02, 0x00, 0xE0, 0x3F, 0x00, 0x00, 0x00, 0x00, 
  0xC0, 0x03, 0x00, 0x00, 0x02, 0x00, 0x00, 0xF0, 0x7B, 0x00, 0x00, 0x00, 
  0x00, 0xE0, 0x01, 0x00, 0x00, 0x0C, 0x00, 0x00, 0x78, 0xF6, 0x00, 0x00, 
  0x00, 0x00, 0xF0, 0x00, 0x80, 0x00, 0x06, 0x02, 0x02, 0xFE, 0xEC, 0x01, 
  0x00, 0x00, 0x00, 0x78, 0x00, 0x00, 0x00, 0x00, 0x00, 0x00, 0xBE, 0xC9, 
  0x03, 0x00, 0x00, 0x00, 0x3C, 0x00, 0x00, 0x00, 0x0E, 0x02, 0x00, 0x3F, 
  0x93, 0x07, 0x00, 0x00, 0x00, 0x1E, 0x00, 0x00, 0x00, 0x00, 0x02, 0xC0, 
  0x67, 0x04, 0x0F, 0x00, 0x00, 0x00, 0x0F, 0x00, 0x80, 0x00, 0x00, 0x00, 
  0xC0, 0xCF, 0x40, 0x1E, 0x00, 0x00, 0x80, 0x07, 0x00, 0x00, 0x20, 0x0C, 
  0x00, 0xE0, 0x8D, 0x00, 0x3C, 0x00, 0x00, 0xC0, 0x03, 0x00, 0x00, 0x00, 
  0x04, 0x02, 0xF0, 0x33, 0x01, 0x78, 0x00, 0x00, 0xE0, 0x03, 0x12, 0x00, 
  0x20, 0x06, 0x00, 0x79, 0x23, 0x00, 0xF0, 0x00, 0x00, 0xF0, 0x00, 0x00, 
  0x00, 0x00, 0x04, 0x02, 0xFC, 0x4C, 0x00, 0xE0, 0x00, 0x00, 0x78, 0x00, 
  0x00, 0x00, 0x00, 0x04, 0x02, 0xDE, 0x08, 0x00, 0xC0, 0x03, 0x00, 0x3C, 
  0x00, 0x00, 0x00, 0x00, 0x04, 0x00, 0x3F, 0x13, 0x08, 0x80, 0x07, 0x00, 
  0x1E, 0x00, 0x00, 0x00, 0x80, 0x06, 0x80, 0x37, 0x02, 0x00, 0x00, 0x0F, 
  0x00, 0x0F, 0x80, 0x00, 0x00, 0x00, 0x08, 0xC2, 0xEF, 0x04, 0x00, 0x00, 
  0x1E, 0x80, 0x07, 0x00, 0x80, 0x00, 0x00, 0x04, 0xE0, 0x9D, 0x00, 0x02, 
  0x00, 0x3C, 0xC0, 0x03, 0x00, 0x00, 0x00, 0x00, 0x04, 0xF2, 0x13, 0x01, 
  0x00, 0x04, 0x78, 0xE0, 0x01, 0x00, 0x10, 0x00, 0x00, 0x06, 0x72, 0x23, 
  0x00, 0x00, 0x00, 0xF0, 0xF0, 0x00, 0x00, 0x00, 0x00, 0x01, 0x04, 0xFC, 
  0x46, 0x00, 0x00, 0x00, 0xE0, 0x78, 0x82, 0x00, 0x00, 0x80, 0x00, 0x04, 
  0xDE, 0x0C, 0x00, 0x00, 0x08, 0xC0, 0xBF, 0x00, 0x08, 0x00, 0x40, 0x00, 
  0x04, 0x36, 0x11, 0x20, 0x00, 0x00, 0x80, 0xDF, 0x08, 0x00, 0x00, 0x00, 
  0x00, 0x06, 0x26, 0x03, 0x00, 0x00, 0x00, 0x80, 0x7F, 0x06, 0x00, 0x00, 
  0x00, 0x00, 0x07, 0x66, 0x04, 0x00, 0x00, 0x00, 0x00, 0x3E, 0x23, 0x00, 
  0x00, 0x00, 0x80, 0x0F, 0xDE, 0x00, 0x00, 0x00, 0x00, 0x00, 0xFC, 0x09, 
  0x00, 0x00, 0x00, 0x80, 0x07, 0xBA, 0x00, 0x00, 0x00, 0x00, 0x00, 0xF8, 
  0x0C, 0x40, 0x00, 0x00, 0xC0, 0x05, 0x70, 0x80, 0x00, 0x40, 0x00, 0x01, 
  0xF8, 0x66, 0x00, 0x08, 0x00, 0xF0, 0x09, 0xE0, 0x00, 0x00, 0x00, 0x00, 
  0x00, 0xE0, 0x37, 0x01, 0x00, 0x00, 0xF0, 0x04, 0xE0, 0x03, 0x04, 0x00, 
  0x00, 0x00, 0xC0, 0x9F, 0x01, 0x00, 0x04, 0x7C, 0x00, 0xC0, 0x03, 0x00, 
  0x00, 0x00, 0x00, 0x80, 0x9F, 0x00, 0x01, 0x00, 0x3C, 0x04, 0x00, 0x07, 
  0x00, 0x40, 0x00, 0x00, 0x01, 0xEF, 0x06, 0x00, 0x00, 0x0F, 0x08, 0x02, 
  0x0F, 0x00, 0x00, 0x40, 0x00, 0x00, 0x3E, 0x27, 0x00, 0x00, 0x0F, 0x04, 
  0x00, 0x1C, 0x00, 0x00, 0x20, 0x00, 0x10, 0xFC, 0x19, 0x00, 0xC0, 0x03, 
  0x00, 0x00, 0x7C, 0x00, 0x00, 0x00, 0x00, 0x00, 0xF8, 0x8C, 0x00, 0xE0, 
  0x03, 0x04, 0x00, 0x78, 0x00, 0x00, 0x00, 0x40, 0x00, 0xF0, 0x46, 0x00, 
  0xE0, 0x01, 0x04, 0x00, 0xF0, 0x40, 0x00, 0x00, 0x00, 0x00, 0xE0, 0x37, 
  0x02, 0xF0, 0x00, 0x08, 0x00, 0xC0, 0x01, 0x00, 0x00, 0x00, 0x00, 0xC8, 
  0x9B, 0x01, 0x3C, 0x00, 0x04, 0x02, 0xC0, 0x23, 0x00, 0x00, 0x00, 0x00, 
  0x80, 0x9F, 0x09, 0x1C, 0x00, 0x00, 0x02, 0x00, 0x07, 0x04, 0x00, 0x00, 
  0x10, 0x00, 0xCF, 0x0C, 0x1E, 0x00, 0x04, 0x00, 0x00, 0x0F, 0x00, 0x00, 
  0x00, 0x00, 0x00, 0x7E, 0x82, 0x07, 0x00, 0x08, 0x02, 0x00, 0x1C, 0x00, 
  0x04, 0x02, 0x00, 0x20, 0xBC, 0x93, 0x07, 0x00, 0x02, 0x04, 0x00, 0x3C, 
  0x00, 0x00, 0x00, 0x00, 0x00, 0xF8, 0xE9, 0x03, 0x00, 0x00, 0x04, 0x00, 
  0x78, 0x00, 0x00, 0x20, 0x00, 0x00, 0xF0, 0xEC, 0x00, 0x00, 0x02, 0x00, 
  0x00, 0xF0, 0x08, 0x00, 0x00, 0x00, 0x00, 0xE0, 0x7F, 0x00, 0x00, 0x01, 
  0x20, 0x00, 0xE0, 0x01, 0x00, 0x00, 0x00, 0x00, 0xC0, 0x7F, 0x00, 0xC0, 
  0x00, 0x40, 0x00, 0xC0, 0x1B, 0x49, 0x85, 0x64, 0x12, 0xC9, 0x3F, 0x00, 
  0x20, 0x00, 0x00, 0xAD, 0xAD, 0x9F, 0xF6, 0xEB, 0x3B, 0x9F, 0x9F, 0xBF, 
  0xE9, 0x1A, 0x00, 0x00, 0x00, 0x80, 0x11, 0x02, 0x00, 0x88, 0x10, 0x10, 
  0x09, 0x02, 0x00, 0x00, };
